<mxfile host="Electron" agent="Mozilla/5.0 (Windows NT 10.0; Win64; x64) AppleWebKit/537.36 (KHTML, like Gecko) draw.io/28.2.5 Chrome/138.0.7204.251 Electron/37.6.1 Safari/537.36" version="28.2.5" pages="11">
  <diagram id="dtFdsJRPu8ScOABoQ38J" name="第 0 页">
    <mxGraphModel dx="815" dy="510" grid="1" gridSize="10" guides="1" tooltips="1" connect="1" arrows="1" fold="1" page="0" pageScale="1" pageWidth="1654" pageHeight="1169" math="1" shadow="0">
      <root>
        <mxCell id="0" />
        <mxCell id="1" parent="0" />
        <mxCell id="gVSL88sfswB4kloFDlLy-9" value="" style="rounded=0;whiteSpace=wrap;html=1;fillColor=#eeeeee;strokeColor=#36393d;movable=1;resizable=1;rotatable=1;deletable=1;editable=1;locked=0;connectable=1;" vertex="1" parent="1">
          <mxGeometry x="360" y="400" width="160" height="40" as="geometry" />
        </mxCell>
        <mxCell id="gVSL88sfswB4kloFDlLy-11" value="\( s \)" style="text;html=1;align=center;verticalAlign=middle;whiteSpace=wrap;rounded=0;movable=1;resizable=1;rotatable=1;deletable=1;editable=1;locked=0;connectable=1;" vertex="1" parent="1">
          <mxGeometry x="430" y="380" width="20" height="20" as="geometry" />
        </mxCell>
        <mxCell id="gVSL88sfswB4kloFDlLy-12" value="\( h \)" style="text;html=1;align=center;verticalAlign=middle;whiteSpace=wrap;rounded=0;movable=1;resizable=1;rotatable=1;deletable=1;editable=1;locked=0;connectable=1;" vertex="1" parent="1">
          <mxGeometry x="340" y="410" width="20" height="20" as="geometry" />
        </mxCell>
        <mxCell id="gVSL88sfswB4kloFDlLy-13" value="" style="endArrow=none;dashed=1;html=1;rounded=0;fontSize=12;startSize=8;endSize=8;curved=1;fillColor=#eeeeee;strokeColor=#36393d;entryX=0.25;entryY=0;entryDx=0;entryDy=0;exitX=0.25;exitY=1;exitDx=0;exitDy=0;movable=1;resizable=1;rotatable=1;deletable=1;editable=1;locked=0;connectable=1;" edge="1" parent="1" source="gVSL88sfswB4kloFDlLy-9" target="gVSL88sfswB4kloFDlLy-9">
          <mxGeometry width="50" height="50" relative="1" as="geometry">
            <mxPoint x="340" y="520" as="sourcePoint" />
            <mxPoint x="390" y="470" as="targetPoint" />
          </mxGeometry>
        </mxCell>
        <mxCell id="gVSL88sfswB4kloFDlLy-14" value="" style="endArrow=none;dashed=1;html=1;rounded=0;fontSize=12;startSize=8;endSize=8;curved=1;fillColor=#eeeeee;strokeColor=#36393d;entryX=0.5;entryY=0;entryDx=0;entryDy=0;exitX=0.5;exitY=1;exitDx=0;exitDy=0;movable=1;resizable=1;rotatable=1;deletable=1;editable=1;locked=0;connectable=1;" edge="1" parent="1" source="gVSL88sfswB4kloFDlLy-9" target="gVSL88sfswB4kloFDlLy-9">
          <mxGeometry width="50" height="50" relative="1" as="geometry">
            <mxPoint x="340" y="520" as="sourcePoint" />
            <mxPoint x="390" y="470" as="targetPoint" />
          </mxGeometry>
        </mxCell>
        <mxCell id="gVSL88sfswB4kloFDlLy-15" value="" style="endArrow=none;dashed=1;html=1;rounded=0;fontSize=12;startSize=8;endSize=8;curved=1;fillColor=#eeeeee;strokeColor=#36393d;entryX=0.75;entryY=0;entryDx=0;entryDy=0;exitX=0.75;exitY=1;exitDx=0;exitDy=0;movable=1;resizable=1;rotatable=1;deletable=1;editable=1;locked=0;connectable=1;" edge="1" parent="1" source="gVSL88sfswB4kloFDlLy-9" target="gVSL88sfswB4kloFDlLy-9">
          <mxGeometry width="50" height="50" relative="1" as="geometry">
            <mxPoint x="340" y="520" as="sourcePoint" />
            <mxPoint x="390" y="470" as="targetPoint" />
          </mxGeometry>
        </mxCell>
        <mxCell id="UlSqUWzPyONHGCnLybs_-1" value="" style="whiteSpace=wrap;html=1;aspect=fixed;fillColor=#ffcc99;strokeColor=#36393d;" vertex="1" parent="1">
          <mxGeometry x="330" y="480" width="40" height="40" as="geometry" />
        </mxCell>
        <mxCell id="UlSqUWzPyONHGCnLybs_-2" value="" style="whiteSpace=wrap;html=1;aspect=fixed;fillColor=#cce5ff;strokeColor=#36393d;" vertex="1" parent="1">
          <mxGeometry x="390" y="480" width="40" height="40" as="geometry" />
        </mxCell>
        <mxCell id="UlSqUWzPyONHGCnLybs_-3" value="" style="whiteSpace=wrap;html=1;aspect=fixed;fillColor=#cdeb8b;strokeColor=#36393d;" vertex="1" parent="1">
          <mxGeometry x="450" y="480" width="40" height="40" as="geometry" />
        </mxCell>
        <mxCell id="UlSqUWzPyONHGCnLybs_-4" value="" style="whiteSpace=wrap;html=1;aspect=fixed;fillColor=#ffcccc;strokeColor=#36393d;" vertex="1" parent="1">
          <mxGeometry x="510" y="480" width="40" height="40" as="geometry" />
        </mxCell>
        <mxCell id="Ah4pRlupZZ68qkv0p_8Z-4" value="Ring Self-Attention" style="rounded=1;whiteSpace=wrap;html=1;fillColor=#ffff88;strokeColor=#36393d;" vertex="1" parent="1">
          <mxGeometry x="330" y="580" width="220" height="40" as="geometry" />
        </mxCell>
        <mxCell id="BMt3PszbjwvvriYihtri-1" value="" style="endArrow=classic;html=1;rounded=0;fontSize=12;startSize=8;endSize=8;fillColor=#eeeeee;strokeColor=#36393d;exitX=0.5;exitY=1;exitDx=0;exitDy=0;entryX=0.5;entryY=0;entryDx=0;entryDy=0;edgeStyle=orthogonalEdgeStyle;movable=1;resizable=1;rotatable=1;deletable=1;editable=1;locked=0;connectable=1;" edge="1" parent="1" source="UlSqUWzPyONHGCnLybs_-1" target="Ah4pRlupZZ68qkv0p_8Z-4">
          <mxGeometry width="50" height="50" relative="1" as="geometry">
            <mxPoint x="660" y="680" as="sourcePoint" />
            <mxPoint x="720" y="490" as="targetPoint" />
            <Array as="points">
              <mxPoint x="350" y="550" />
              <mxPoint x="440" y="550" />
            </Array>
          </mxGeometry>
        </mxCell>
        <mxCell id="BMt3PszbjwvvriYihtri-2" value="" style="endArrow=classic;html=1;rounded=0;fontSize=12;startSize=8;endSize=8;fillColor=#eeeeee;strokeColor=#36393d;exitX=0.5;exitY=1;exitDx=0;exitDy=0;entryX=0.5;entryY=0;entryDx=0;entryDy=0;edgeStyle=orthogonalEdgeStyle;movable=1;resizable=1;rotatable=1;deletable=1;editable=1;locked=0;connectable=1;" edge="1" parent="1" source="UlSqUWzPyONHGCnLybs_-2" target="Ah4pRlupZZ68qkv0p_8Z-4">
          <mxGeometry width="50" height="50" relative="1" as="geometry">
            <mxPoint x="660" y="680" as="sourcePoint" />
            <mxPoint x="720" y="490" as="targetPoint" />
            <Array as="points">
              <mxPoint x="410" y="550" />
              <mxPoint x="440" y="550" />
            </Array>
          </mxGeometry>
        </mxCell>
        <mxCell id="BMt3PszbjwvvriYihtri-3" value="" style="endArrow=classic;html=1;rounded=0;fontSize=12;startSize=8;endSize=8;fillColor=#eeeeee;strokeColor=#36393d;exitX=0.5;exitY=1;exitDx=0;exitDy=0;entryX=0.5;entryY=0;entryDx=0;entryDy=0;edgeStyle=orthogonalEdgeStyle;movable=1;resizable=1;rotatable=1;deletable=1;editable=1;locked=0;connectable=1;" edge="1" parent="1" source="UlSqUWzPyONHGCnLybs_-3" target="Ah4pRlupZZ68qkv0p_8Z-4">
          <mxGeometry width="50" height="50" relative="1" as="geometry">
            <mxPoint x="660" y="680" as="sourcePoint" />
            <mxPoint x="720" y="490" as="targetPoint" />
            <Array as="points">
              <mxPoint x="470" y="550" />
              <mxPoint x="440" y="550" />
            </Array>
          </mxGeometry>
        </mxCell>
        <mxCell id="BMt3PszbjwvvriYihtri-4" value="" style="endArrow=classic;html=1;rounded=0;fontSize=12;startSize=8;endSize=8;fillColor=#eeeeee;strokeColor=#36393d;exitX=0.5;exitY=1;exitDx=0;exitDy=0;entryX=0.5;entryY=0;entryDx=0;entryDy=0;edgeStyle=orthogonalEdgeStyle;movable=1;resizable=1;rotatable=1;deletable=1;editable=1;locked=0;connectable=1;" edge="1" parent="1" source="UlSqUWzPyONHGCnLybs_-4" target="Ah4pRlupZZ68qkv0p_8Z-4">
          <mxGeometry width="50" height="50" relative="1" as="geometry">
            <mxPoint x="660" y="680" as="sourcePoint" />
            <mxPoint x="720" y="490" as="targetPoint" />
            <Array as="points">
              <mxPoint x="530" y="550" />
              <mxPoint x="440" y="550" />
            </Array>
          </mxGeometry>
        </mxCell>
        <mxCell id="Ah4pRlupZZ68qkv0p_8Z-1" value="" style="shape=sumEllipse;perimeter=ellipsePerimeter;whiteSpace=wrap;html=1;backgroundOutline=1;" vertex="1" parent="1">
          <mxGeometry x="370" y="540" width="20" height="20" as="geometry" />
        </mxCell>
        <mxCell id="Ah4pRlupZZ68qkv0p_8Z-2" value="" style="shape=sumEllipse;perimeter=ellipsePerimeter;whiteSpace=wrap;html=1;backgroundOutline=1;" vertex="1" parent="1">
          <mxGeometry x="430" y="540" width="20" height="20" as="geometry" />
        </mxCell>
        <mxCell id="Ah4pRlupZZ68qkv0p_8Z-3" value="" style="shape=sumEllipse;perimeter=ellipsePerimeter;whiteSpace=wrap;html=1;backgroundOutline=1;" vertex="1" parent="1">
          <mxGeometry x="490" y="540" width="20" height="20" as="geometry" />
        </mxCell>
        <mxCell id="BMt3PszbjwvvriYihtri-5" value="" style="whiteSpace=wrap;html=1;aspect=fixed;fillColor=#ffcc99;strokeColor=#36393d;" vertex="1" parent="1">
          <mxGeometry x="330" y="680" width="40" height="40" as="geometry" />
        </mxCell>
        <mxCell id="BMt3PszbjwvvriYihtri-6" value="" style="whiteSpace=wrap;html=1;aspect=fixed;fillColor=#cce5ff;strokeColor=#36393d;" vertex="1" parent="1">
          <mxGeometry x="390" y="680" width="40" height="40" as="geometry" />
        </mxCell>
        <mxCell id="BMt3PszbjwvvriYihtri-7" value="" style="whiteSpace=wrap;html=1;aspect=fixed;fillColor=#cdeb8b;strokeColor=#36393d;" vertex="1" parent="1">
          <mxGeometry x="450" y="680" width="40" height="40" as="geometry" />
        </mxCell>
        <mxCell id="BMt3PszbjwvvriYihtri-8" value="" style="whiteSpace=wrap;html=1;aspect=fixed;fillColor=#ffcccc;strokeColor=#36393d;" vertex="1" parent="1">
          <mxGeometry x="510" y="680" width="40" height="40" as="geometry" />
        </mxCell>
        <mxCell id="BMt3PszbjwvvriYihtri-9" value="" style="endArrow=classic;html=1;rounded=0;fontSize=12;startSize=8;endSize=8;fillColor=#eeeeee;strokeColor=#36393d;exitX=0.5;exitY=1;exitDx=0;exitDy=0;entryX=0.5;entryY=0;entryDx=0;entryDy=0;edgeStyle=orthogonalEdgeStyle;movable=1;resizable=1;rotatable=1;deletable=1;editable=1;locked=0;connectable=1;" edge="1" parent="1" source="Ah4pRlupZZ68qkv0p_8Z-4" target="BMt3PszbjwvvriYihtri-5">
          <mxGeometry width="50" height="50" relative="1" as="geometry">
            <mxPoint x="660" y="680" as="sourcePoint" />
            <mxPoint x="720" y="490" as="targetPoint" />
            <Array as="points">
              <mxPoint x="440" y="650" />
              <mxPoint x="350" y="650" />
            </Array>
          </mxGeometry>
        </mxCell>
        <mxCell id="BMt3PszbjwvvriYihtri-10" value="" style="endArrow=classic;html=1;rounded=0;fontSize=12;startSize=8;endSize=8;fillColor=#eeeeee;strokeColor=#36393d;exitX=0.5;exitY=1;exitDx=0;exitDy=0;entryX=0.5;entryY=0;entryDx=0;entryDy=0;edgeStyle=orthogonalEdgeStyle;movable=1;resizable=1;rotatable=1;deletable=1;editable=1;locked=0;connectable=1;" edge="1" parent="1" source="Ah4pRlupZZ68qkv0p_8Z-4" target="BMt3PszbjwvvriYihtri-6">
          <mxGeometry width="50" height="50" relative="1" as="geometry">
            <mxPoint x="660" y="680" as="sourcePoint" />
            <mxPoint x="720" y="490" as="targetPoint" />
            <Array as="points">
              <mxPoint x="440" y="650" />
              <mxPoint x="410" y="650" />
            </Array>
          </mxGeometry>
        </mxCell>
        <mxCell id="BMt3PszbjwvvriYihtri-11" value="" style="endArrow=classic;html=1;rounded=0;fontSize=12;startSize=8;endSize=8;fillColor=#eeeeee;strokeColor=#36393d;exitX=0.5;exitY=1;exitDx=0;exitDy=0;entryX=0.5;entryY=0;entryDx=0;entryDy=0;edgeStyle=orthogonalEdgeStyle;movable=1;resizable=1;rotatable=1;deletable=1;editable=1;locked=0;connectable=1;" edge="1" parent="1" source="Ah4pRlupZZ68qkv0p_8Z-4" target="BMt3PszbjwvvriYihtri-7">
          <mxGeometry width="50" height="50" relative="1" as="geometry">
            <mxPoint x="660" y="680" as="sourcePoint" />
            <mxPoint x="720" y="490" as="targetPoint" />
            <Array as="points">
              <mxPoint x="440" y="650" />
              <mxPoint x="470" y="650" />
            </Array>
          </mxGeometry>
        </mxCell>
        <mxCell id="BMt3PszbjwvvriYihtri-12" value="" style="endArrow=classic;html=1;rounded=0;fontSize=12;startSize=8;endSize=8;fillColor=#eeeeee;strokeColor=#36393d;exitX=0.5;exitY=1;exitDx=0;exitDy=0;entryX=0.5;entryY=0;entryDx=0;entryDy=0;edgeStyle=orthogonalEdgeStyle;movable=1;resizable=1;rotatable=1;deletable=1;editable=1;locked=0;connectable=1;" edge="1" parent="1" source="Ah4pRlupZZ68qkv0p_8Z-4" target="BMt3PszbjwvvriYihtri-8">
          <mxGeometry width="50" height="50" relative="1" as="geometry">
            <mxPoint x="660" y="680" as="sourcePoint" />
            <mxPoint x="720" y="490" as="targetPoint" />
            <Array as="points">
              <mxPoint x="440" y="650" />
              <mxPoint x="530" y="650" />
            </Array>
          </mxGeometry>
        </mxCell>
        <mxCell id="Ah4pRlupZZ68qkv0p_8Z-5" value="" style="shape=sumEllipse;perimeter=ellipsePerimeter;whiteSpace=wrap;html=1;backgroundOutline=1;" vertex="1" parent="1">
          <mxGeometry x="430" y="640" width="20" height="20" as="geometry" />
        </mxCell>
        <mxCell id="BMt3PszbjwvvriYihtri-13" value="\( W_Q \)" style="text;html=1;align=center;verticalAlign=middle;whiteSpace=wrap;rounded=0;" vertex="1" parent="1">
          <mxGeometry x="360" y="520" width="40" height="20" as="geometry" />
        </mxCell>
        <mxCell id="BMt3PszbjwvvriYihtri-14" value="\( W_K \)" style="text;html=1;align=center;verticalAlign=middle;whiteSpace=wrap;rounded=0;" vertex="1" parent="1">
          <mxGeometry x="420" y="520" width="40" height="20" as="geometry" />
        </mxCell>
        <mxCell id="BMt3PszbjwvvriYihtri-15" value="\( W_V \)" style="text;html=1;align=center;verticalAlign=middle;whiteSpace=wrap;rounded=0;" vertex="1" parent="1">
          <mxGeometry x="480" y="520" width="40" height="20" as="geometry" />
        </mxCell>
        <mxCell id="BMt3PszbjwvvriYihtri-16" value="\( W_O \)" style="text;html=1;align=center;verticalAlign=middle;whiteSpace=wrap;rounded=0;" vertex="1" parent="1">
          <mxGeometry x="420" y="660" width="40" height="20" as="geometry" />
        </mxCell>
      </root>
    </mxGraphModel>
  </diagram>
  <diagram name="第 1 页" id="G26iMW6dKMD8QZ_cxd-V">
    <mxGraphModel dx="1042" dy="678" grid="1" gridSize="10" guides="1" tooltips="1" connect="1" arrows="1" fold="1" page="0" pageScale="1" pageWidth="1654" pageHeight="1169" math="1" shadow="0">
      <root>
        <mxCell id="oZDI20Qsb8vbS57gJCE_-0" />
        <mxCell id="oZDI20Qsb8vbS57gJCE_-1" parent="oZDI20Qsb8vbS57gJCE_-0" />
        <mxCell id="z8ihybA3Uce63LQdLFtW-0" value="" style="rounded=0;whiteSpace=wrap;html=1;strokeColor=none;" vertex="1" parent="oZDI20Qsb8vbS57gJCE_-1">
          <mxGeometry x="350" y="40" width="490" height="410" as="geometry" />
        </mxCell>
        <mxCell id="NojfsJ2RveVVlyeROoXI-16" value="" style="rounded=1;whiteSpace=wrap;html=1;fillColor=#eeeeee;strokeColor=#36393d;movable=1;resizable=1;rotatable=1;deletable=1;editable=1;locked=0;connectable=1;" parent="oZDI20Qsb8vbS57gJCE_-1" vertex="1">
          <mxGeometry x="380" y="260" width="200" height="160" as="geometry" />
        </mxCell>
        <mxCell id="NojfsJ2RveVVlyeROoXI-15" value="" style="rounded=1;whiteSpace=wrap;html=1;fillColor=#eeeeee;strokeColor=#36393d;movable=1;resizable=1;rotatable=1;deletable=1;editable=1;locked=0;connectable=1;" parent="oZDI20Qsb8vbS57gJCE_-1" vertex="1">
          <mxGeometry x="610" y="260" width="200" height="160" as="geometry" />
        </mxCell>
        <mxCell id="NojfsJ2RveVVlyeROoXI-14" value="" style="rounded=1;whiteSpace=wrap;html=1;fillColor=#eeeeee;strokeColor=#36393d;movable=1;resizable=1;rotatable=1;deletable=1;editable=1;locked=0;connectable=1;" parent="oZDI20Qsb8vbS57gJCE_-1" vertex="1">
          <mxGeometry x="610" y="70" width="200" height="160" as="geometry" />
        </mxCell>
        <mxCell id="NojfsJ2RveVVlyeROoXI-13" value="" style="rounded=1;whiteSpace=wrap;html=1;fillColor=#eeeeee;strokeColor=#36393d;movable=1;resizable=1;rotatable=1;deletable=1;editable=1;locked=0;connectable=1;" parent="oZDI20Qsb8vbS57gJCE_-1" vertex="1">
          <mxGeometry x="380" y="70" width="200" height="160" as="geometry" />
        </mxCell>
        <mxCell id="oZDI20Qsb8vbS57gJCE_-2" value="\( Q_0 \)" style="rounded=0;whiteSpace=wrap;html=1;fillColor=#ffcc99;strokeColor=#36393d;movable=1;resizable=1;rotatable=1;deletable=1;editable=1;locked=0;connectable=1;" parent="oZDI20Qsb8vbS57gJCE_-1" vertex="1">
          <mxGeometry x="400" y="170" width="40" height="40" as="geometry" />
        </mxCell>
        <mxCell id="oZDI20Qsb8vbS57gJCE_-3" value="\( Q_1 \)" style="rounded=0;whiteSpace=wrap;html=1;fillColor=#cce5ff;strokeColor=#36393d;movable=1;resizable=1;rotatable=1;deletable=1;editable=1;locked=0;connectable=1;" parent="oZDI20Qsb8vbS57gJCE_-1" vertex="1">
          <mxGeometry x="630" y="170" width="40" height="40" as="geometry" />
        </mxCell>
        <mxCell id="oZDI20Qsb8vbS57gJCE_-4" value="\( Q_3 \)" style="rounded=0;whiteSpace=wrap;html=1;fillColor=#ffcccc;strokeColor=#36393d;movable=1;resizable=1;rotatable=1;deletable=1;editable=1;locked=0;connectable=1;" parent="oZDI20Qsb8vbS57gJCE_-1" vertex="1">
          <mxGeometry x="400" y="280" width="40" height="40" as="geometry" />
        </mxCell>
        <mxCell id="oZDI20Qsb8vbS57gJCE_-5" value="\( Q_2 \)" style="rounded=0;whiteSpace=wrap;html=1;fillColor=#cdeb8b;strokeColor=#36393d;movable=1;resizable=1;rotatable=1;deletable=1;editable=1;locked=0;connectable=1;" parent="oZDI20Qsb8vbS57gJCE_-1" vertex="1">
          <mxGeometry x="630" y="280" width="40" height="40" as="geometry" />
        </mxCell>
        <mxCell id="oZDI20Qsb8vbS57gJCE_-13" value="\( K_0 \)" style="rounded=0;whiteSpace=wrap;html=1;fillColor=#ffcc99;strokeColor=#36393d;movable=1;resizable=1;rotatable=1;deletable=1;editable=1;locked=0;connectable=1;" parent="oZDI20Qsb8vbS57gJCE_-1" vertex="1">
          <mxGeometry x="460" y="170" width="40" height="40" as="geometry" />
        </mxCell>
        <mxCell id="oZDI20Qsb8vbS57gJCE_-14" value="\( V_0 \)" style="rounded=0;whiteSpace=wrap;html=1;fillColor=#ffcc99;strokeColor=#36393d;movable=1;resizable=1;rotatable=1;deletable=1;editable=1;locked=0;connectable=1;" parent="oZDI20Qsb8vbS57gJCE_-1" vertex="1">
          <mxGeometry x="520" y="170" width="40" height="40" as="geometry" />
        </mxCell>
        <mxCell id="oZDI20Qsb8vbS57gJCE_-15" value="\( K_3 \)" style="rounded=0;whiteSpace=wrap;html=1;fillColor=#ffcccc;strokeColor=#36393d;movable=1;resizable=1;rotatable=1;deletable=1;editable=1;locked=0;connectable=1;" parent="oZDI20Qsb8vbS57gJCE_-1" vertex="1">
          <mxGeometry x="460" y="280" width="40" height="40" as="geometry" />
        </mxCell>
        <mxCell id="oZDI20Qsb8vbS57gJCE_-16" value="\( V_3 \)" style="rounded=0;whiteSpace=wrap;html=1;fillColor=#ffcccc;strokeColor=#36393d;movable=1;resizable=1;rotatable=1;deletable=1;editable=1;locked=0;connectable=1;" parent="oZDI20Qsb8vbS57gJCE_-1" vertex="1">
          <mxGeometry x="520" y="280" width="40" height="40" as="geometry" />
        </mxCell>
        <mxCell id="oZDI20Qsb8vbS57gJCE_-17" value="\( K_1 \)" style="rounded=0;whiteSpace=wrap;html=1;fillColor=#cce5ff;strokeColor=#36393d;movable=1;resizable=1;rotatable=1;deletable=1;editable=1;locked=0;connectable=1;" parent="oZDI20Qsb8vbS57gJCE_-1" vertex="1">
          <mxGeometry x="690" y="170" width="40" height="40" as="geometry" />
        </mxCell>
        <mxCell id="oZDI20Qsb8vbS57gJCE_-18" value="\( V_1 \)" style="rounded=0;whiteSpace=wrap;html=1;fillColor=#cce5ff;strokeColor=#36393d;movable=1;resizable=1;rotatable=1;deletable=1;editable=1;locked=0;connectable=1;" parent="oZDI20Qsb8vbS57gJCE_-1" vertex="1">
          <mxGeometry x="750" y="170" width="40" height="40" as="geometry" />
        </mxCell>
        <mxCell id="oZDI20Qsb8vbS57gJCE_-19" value="\( K_2 \)" style="rounded=0;whiteSpace=wrap;html=1;fillColor=#cdeb8b;strokeColor=#36393d;movable=1;resizable=1;rotatable=1;deletable=1;editable=1;locked=0;connectable=1;" parent="oZDI20Qsb8vbS57gJCE_-1" vertex="1">
          <mxGeometry x="690" y="280" width="40" height="40" as="geometry" />
        </mxCell>
        <mxCell id="oZDI20Qsb8vbS57gJCE_-20" value="\( V_2 \)" style="rounded=0;whiteSpace=wrap;html=1;fillColor=#cdeb8b;strokeColor=#36393d;movable=1;resizable=1;rotatable=1;deletable=1;editable=1;locked=0;connectable=1;" parent="oZDI20Qsb8vbS57gJCE_-1" vertex="1">
          <mxGeometry x="750" y="280" width="40" height="40" as="geometry" />
        </mxCell>
        <mxCell id="oZDI20Qsb8vbS57gJCE_-21" value="\( Q_0 K_0^{\top} \)" style="whiteSpace=wrap;html=1;aspect=fixed;fillColor=#ffcc99;strokeColor=#36393d;movable=1;resizable=1;rotatable=1;deletable=1;editable=1;locked=0;connectable=1;" parent="oZDI20Qsb8vbS57gJCE_-1" vertex="1">
          <mxGeometry x="400" y="90" width="40" height="40" as="geometry" />
        </mxCell>
        <mxCell id="oZDI20Qsb8vbS57gJCE_-22" value="\( Q_1 K_1^{\top} \)" style="whiteSpace=wrap;html=1;aspect=fixed;fillColor=#cce5ff;strokeColor=#36393d;movable=1;resizable=1;rotatable=1;deletable=1;editable=1;locked=0;connectable=1;" parent="oZDI20Qsb8vbS57gJCE_-1" vertex="1">
          <mxGeometry x="670" y="90" width="40" height="40" as="geometry" />
        </mxCell>
        <mxCell id="oZDI20Qsb8vbS57gJCE_-23" value="\( Q_2 K_2^{\top} \)" style="whiteSpace=wrap;html=1;aspect=fixed;fillColor=#cdeb8b;strokeColor=#36393d;movable=1;resizable=1;rotatable=1;deletable=1;editable=1;locked=0;connectable=1;" parent="oZDI20Qsb8vbS57gJCE_-1" vertex="1">
          <mxGeometry x="710" y="360" width="40" height="40" as="geometry" />
        </mxCell>
        <mxCell id="oZDI20Qsb8vbS57gJCE_-24" value="\( Q_3 K_3^{\top} \)" style="whiteSpace=wrap;html=1;aspect=fixed;fillColor=#ffcccc;strokeColor=#36393d;movable=1;resizable=1;rotatable=1;deletable=1;editable=1;locked=0;connectable=1;" parent="oZDI20Qsb8vbS57gJCE_-1" vertex="1">
          <mxGeometry x="520" y="360" width="40" height="40" as="geometry" />
        </mxCell>
        <mxCell id="74PqBUMdY29_4b7tvF54-0" value="\( K_3 \)" style="whiteSpace=wrap;html=1;aspect=fixed;fillColor=#ffcccc;strokeColor=#36393d;movable=1;resizable=1;rotatable=1;deletable=1;editable=1;locked=0;connectable=1;" parent="oZDI20Qsb8vbS57gJCE_-1" vertex="1">
          <mxGeometry x="520" y="90" width="40" height="40" as="geometry" />
        </mxCell>
        <mxCell id="74PqBUMdY29_4b7tvF54-1" value="" style="whiteSpace=wrap;html=1;aspect=fixed;movable=1;resizable=1;rotatable=1;deletable=1;editable=1;locked=0;connectable=1;" parent="oZDI20Qsb8vbS57gJCE_-1" vertex="1">
          <mxGeometry x="440" y="90" width="40" height="40" as="geometry" />
        </mxCell>
        <mxCell id="74PqBUMdY29_4b7tvF54-2" value="" style="whiteSpace=wrap;html=1;aspect=fixed;movable=1;resizable=1;rotatable=1;deletable=1;editable=1;locked=0;connectable=1;" parent="oZDI20Qsb8vbS57gJCE_-1" vertex="1">
          <mxGeometry x="480" y="90" width="40" height="40" as="geometry" />
        </mxCell>
        <mxCell id="74PqBUMdY29_4b7tvF54-3" value="" style="whiteSpace=wrap;html=1;aspect=fixed;movable=1;resizable=1;rotatable=1;deletable=1;editable=1;locked=0;connectable=1;" parent="oZDI20Qsb8vbS57gJCE_-1" vertex="1">
          <mxGeometry x="710" y="90" width="40" height="40" as="geometry" />
        </mxCell>
        <mxCell id="74PqBUMdY29_4b7tvF54-4" value="" style="whiteSpace=wrap;html=1;aspect=fixed;movable=1;resizable=1;rotatable=1;deletable=1;editable=1;locked=0;connectable=1;" parent="oZDI20Qsb8vbS57gJCE_-1" vertex="1">
          <mxGeometry x="750" y="90" width="40" height="40" as="geometry" />
        </mxCell>
        <mxCell id="74PqBUMdY29_4b7tvF54-5" value="\( K_0 \)" style="rounded=0;whiteSpace=wrap;html=1;fillColor=#ffcc99;strokeColor=#36393d;movable=1;resizable=1;rotatable=1;deletable=1;editable=1;locked=0;connectable=1;" parent="oZDI20Qsb8vbS57gJCE_-1" vertex="1">
          <mxGeometry x="630" y="90" width="40" height="40" as="geometry" />
        </mxCell>
        <mxCell id="74PqBUMdY29_4b7tvF54-6" value="\( K_1 \)" style="rounded=0;whiteSpace=wrap;html=1;fillColor=#cce5ff;strokeColor=#36393d;movable=1;resizable=1;rotatable=1;deletable=1;editable=1;locked=0;connectable=1;" parent="oZDI20Qsb8vbS57gJCE_-1" vertex="1">
          <mxGeometry x="670" y="360" width="40" height="40" as="geometry" />
        </mxCell>
        <mxCell id="74PqBUMdY29_4b7tvF54-7" value="" style="whiteSpace=wrap;html=1;aspect=fixed;movable=1;resizable=1;rotatable=1;deletable=1;editable=1;locked=0;connectable=1;" parent="oZDI20Qsb8vbS57gJCE_-1" vertex="1">
          <mxGeometry x="630" y="360" width="40" height="40" as="geometry" />
        </mxCell>
        <mxCell id="74PqBUMdY29_4b7tvF54-8" value="" style="whiteSpace=wrap;html=1;aspect=fixed;movable=1;resizable=1;rotatable=1;deletable=1;editable=1;locked=0;connectable=1;" parent="oZDI20Qsb8vbS57gJCE_-1" vertex="1">
          <mxGeometry x="750" y="360" width="40" height="40" as="geometry" />
        </mxCell>
        <mxCell id="74PqBUMdY29_4b7tvF54-9" value="\( K_2 \)" style="rounded=0;whiteSpace=wrap;html=1;fillColor=#cdeb8b;strokeColor=#36393d;movable=1;resizable=1;rotatable=1;deletable=1;editable=1;locked=0;connectable=1;" parent="oZDI20Qsb8vbS57gJCE_-1" vertex="1">
          <mxGeometry x="480" y="360" width="40" height="40" as="geometry" />
        </mxCell>
        <mxCell id="74PqBUMdY29_4b7tvF54-10" value="" style="whiteSpace=wrap;html=1;aspect=fixed;movable=1;resizable=1;rotatable=1;deletable=1;editable=1;locked=0;connectable=1;" parent="oZDI20Qsb8vbS57gJCE_-1" vertex="1">
          <mxGeometry x="400" y="360" width="40" height="40" as="geometry" />
        </mxCell>
        <mxCell id="74PqBUMdY29_4b7tvF54-11" value="" style="whiteSpace=wrap;html=1;aspect=fixed;movable=1;resizable=1;rotatable=1;deletable=1;editable=1;locked=0;connectable=1;" parent="oZDI20Qsb8vbS57gJCE_-1" vertex="1">
          <mxGeometry x="440" y="360" width="40" height="40" as="geometry" />
        </mxCell>
        <mxCell id="NojfsJ2RveVVlyeROoXI-0" value="" style="endArrow=classic;html=1;rounded=0;fontSize=12;startSize=8;endSize=8;curved=1;fillColor=#eeeeee;strokeColor=#36393d;entryX=0.5;entryY=1;entryDx=0;entryDy=0;movable=1;resizable=1;rotatable=1;deletable=1;editable=1;locked=0;connectable=1;" parent="oZDI20Qsb8vbS57gJCE_-1" target="oZDI20Qsb8vbS57gJCE_-21" edge="1">
          <mxGeometry width="50" height="50" relative="1" as="geometry">
            <mxPoint x="420" y="170" as="sourcePoint" />
            <mxPoint x="420" y="150" as="targetPoint" />
          </mxGeometry>
        </mxCell>
        <mxCell id="NojfsJ2RveVVlyeROoXI-2" value="" style="endArrow=classic;html=1;rounded=0;fontSize=12;startSize=8;endSize=8;fillColor=#eeeeee;strokeColor=#36393d;exitX=0.5;exitY=0;exitDx=0;exitDy=0;entryX=0.5;entryY=1;entryDx=0;entryDy=0;edgeStyle=orthogonalEdgeStyle;movable=1;resizable=1;rotatable=1;deletable=1;editable=1;locked=0;connectable=1;" parent="oZDI20Qsb8vbS57gJCE_-1" source="oZDI20Qsb8vbS57gJCE_-13" target="oZDI20Qsb8vbS57gJCE_-21" edge="1">
          <mxGeometry width="50" height="50" relative="1" as="geometry">
            <mxPoint x="600" y="400" as="sourcePoint" />
            <mxPoint x="650" y="350" as="targetPoint" />
          </mxGeometry>
        </mxCell>
        <mxCell id="NojfsJ2RveVVlyeROoXI-3" value="" style="endArrow=classic;html=1;rounded=0;fontSize=12;startSize=8;endSize=8;fillColor=#eeeeee;strokeColor=#36393d;exitX=0.5;exitY=1;exitDx=0;exitDy=0;entryX=0.5;entryY=0;entryDx=0;entryDy=0;edgeStyle=orthogonalEdgeStyle;movable=1;resizable=1;rotatable=1;deletable=1;editable=1;locked=0;connectable=1;" parent="oZDI20Qsb8vbS57gJCE_-1" source="oZDI20Qsb8vbS57gJCE_-13" target="74PqBUMdY29_4b7tvF54-5" edge="1">
          <mxGeometry width="50" height="50" relative="1" as="geometry">
            <mxPoint x="600" y="390" as="sourcePoint" />
            <mxPoint x="650" y="340" as="targetPoint" />
            <Array as="points">
              <mxPoint x="480" y="240" />
              <mxPoint x="590" y="240" />
              <mxPoint x="590" y="60" />
              <mxPoint x="650" y="60" />
            </Array>
          </mxGeometry>
        </mxCell>
        <mxCell id="NojfsJ2RveVVlyeROoXI-4" value="" style="endArrow=classic;html=1;rounded=0;fontSize=12;startSize=8;endSize=8;fillColor=#eeeeee;strokeColor=#36393d;exitX=0.5;exitY=0;exitDx=0;exitDy=0;entryX=0.5;entryY=1;entryDx=0;entryDy=0;edgeStyle=orthogonalEdgeStyle;movable=1;resizable=1;rotatable=1;deletable=1;editable=1;locked=0;connectable=1;" parent="oZDI20Qsb8vbS57gJCE_-1" source="oZDI20Qsb8vbS57gJCE_-17" target="oZDI20Qsb8vbS57gJCE_-22" edge="1">
          <mxGeometry width="50" height="50" relative="1" as="geometry">
            <mxPoint x="470" y="400" as="sourcePoint" />
            <mxPoint x="520" y="350" as="targetPoint" />
          </mxGeometry>
        </mxCell>
        <mxCell id="NojfsJ2RveVVlyeROoXI-5" value="" style="endArrow=classic;html=1;rounded=0;fontSize=12;startSize=8;endSize=8;fillColor=#eeeeee;strokeColor=#36393d;exitX=0.5;exitY=0;exitDx=0;exitDy=0;entryX=0.5;entryY=1;entryDx=0;entryDy=0;edgeStyle=orthogonalEdgeStyle;movable=1;resizable=1;rotatable=1;deletable=1;editable=1;locked=0;connectable=1;" parent="oZDI20Qsb8vbS57gJCE_-1" source="oZDI20Qsb8vbS57gJCE_-3" target="oZDI20Qsb8vbS57gJCE_-22" edge="1">
          <mxGeometry width="50" height="50" relative="1" as="geometry">
            <mxPoint x="470" y="400" as="sourcePoint" />
            <mxPoint x="520" y="350" as="targetPoint" />
          </mxGeometry>
        </mxCell>
        <mxCell id="NojfsJ2RveVVlyeROoXI-6" value="" style="endArrow=classic;html=1;rounded=0;fontSize=12;startSize=8;endSize=8;fillColor=#eeeeee;strokeColor=#36393d;exitX=0.5;exitY=1;exitDx=0;exitDy=0;entryX=0.5;entryY=1;entryDx=0;entryDy=0;edgeStyle=orthogonalEdgeStyle;movable=1;resizable=1;rotatable=1;deletable=1;editable=1;locked=0;connectable=1;" parent="oZDI20Qsb8vbS57gJCE_-1" source="oZDI20Qsb8vbS57gJCE_-17" target="74PqBUMdY29_4b7tvF54-6" edge="1">
          <mxGeometry width="50" height="50" relative="1" as="geometry">
            <mxPoint x="600" y="390" as="sourcePoint" />
            <mxPoint x="650" y="340" as="targetPoint" />
            <Array as="points">
              <mxPoint x="710" y="240" />
              <mxPoint x="820" y="240" />
              <mxPoint x="820" y="430" />
              <mxPoint x="690" y="430" />
            </Array>
          </mxGeometry>
        </mxCell>
        <mxCell id="NojfsJ2RveVVlyeROoXI-7" value="" style="endArrow=classic;html=1;rounded=0;fontSize=12;startSize=8;endSize=8;fillColor=#eeeeee;strokeColor=#36393d;exitX=0.5;exitY=1;exitDx=0;exitDy=0;entryX=0.5;entryY=0;entryDx=0;entryDy=0;edgeStyle=orthogonalEdgeStyle;movable=1;resizable=1;rotatable=1;deletable=1;editable=1;locked=0;connectable=1;" parent="oZDI20Qsb8vbS57gJCE_-1" source="oZDI20Qsb8vbS57gJCE_-19" target="oZDI20Qsb8vbS57gJCE_-23" edge="1">
          <mxGeometry width="50" height="50" relative="1" as="geometry">
            <mxPoint x="700" y="230" as="sourcePoint" />
            <mxPoint x="640" y="190" as="targetPoint" />
          </mxGeometry>
        </mxCell>
        <mxCell id="NojfsJ2RveVVlyeROoXI-8" value="" style="endArrow=classic;html=1;rounded=0;fontSize=12;startSize=8;endSize=8;fillColor=#eeeeee;strokeColor=#36393d;exitX=0.5;exitY=1;exitDx=0;exitDy=0;entryX=0.5;entryY=0;entryDx=0;entryDy=0;edgeStyle=orthogonalEdgeStyle;movable=1;resizable=1;rotatable=1;deletable=1;editable=1;locked=0;connectable=1;" parent="oZDI20Qsb8vbS57gJCE_-1" source="oZDI20Qsb8vbS57gJCE_-5" target="oZDI20Qsb8vbS57gJCE_-23" edge="1">
          <mxGeometry width="50" height="50" relative="1" as="geometry">
            <mxPoint x="700" y="230" as="sourcePoint" />
            <mxPoint x="640" y="190" as="targetPoint" />
          </mxGeometry>
        </mxCell>
        <mxCell id="NojfsJ2RveVVlyeROoXI-9" value="" style="endArrow=classic;html=1;rounded=0;fontSize=12;startSize=8;endSize=8;fillColor=#eeeeee;strokeColor=#36393d;exitX=0.5;exitY=0;exitDx=0;exitDy=0;edgeStyle=orthogonalEdgeStyle;entryX=0.5;entryY=1;entryDx=0;entryDy=0;movable=1;resizable=1;rotatable=1;deletable=1;editable=1;locked=0;connectable=1;" parent="oZDI20Qsb8vbS57gJCE_-1" source="oZDI20Qsb8vbS57gJCE_-19" target="74PqBUMdY29_4b7tvF54-9" edge="1">
          <mxGeometry width="50" height="50" relative="1" as="geometry">
            <mxPoint x="840" y="440" as="sourcePoint" />
            <mxPoint x="570" y="340" as="targetPoint" />
            <Array as="points">
              <mxPoint x="710" y="250" />
              <mxPoint x="600" y="250" />
              <mxPoint x="600" y="430" />
              <mxPoint x="500" y="430" />
            </Array>
          </mxGeometry>
        </mxCell>
        <mxCell id="NojfsJ2RveVVlyeROoXI-10" value="" style="endArrow=classic;html=1;rounded=0;fontSize=12;startSize=8;endSize=8;fillColor=#eeeeee;strokeColor=#36393d;exitX=0.5;exitY=1;exitDx=0;exitDy=0;entryX=0.5;entryY=0;entryDx=0;entryDy=0;edgeStyle=orthogonalEdgeStyle;movable=1;resizable=1;rotatable=1;deletable=1;editable=1;locked=0;connectable=1;" parent="oZDI20Qsb8vbS57gJCE_-1" source="oZDI20Qsb8vbS57gJCE_-15" target="oZDI20Qsb8vbS57gJCE_-24" edge="1">
          <mxGeometry width="50" height="50" relative="1" as="geometry">
            <mxPoint x="569.97" y="310" as="sourcePoint" />
            <mxPoint x="649.97" y="350" as="targetPoint" />
          </mxGeometry>
        </mxCell>
        <mxCell id="NojfsJ2RveVVlyeROoXI-11" value="" style="endArrow=classic;html=1;rounded=0;fontSize=12;startSize=8;endSize=8;fillColor=#eeeeee;strokeColor=#36393d;exitX=0.5;exitY=1;exitDx=0;exitDy=0;entryX=0.5;entryY=0;entryDx=0;entryDy=0;edgeStyle=orthogonalEdgeStyle;movable=1;resizable=1;rotatable=1;deletable=1;editable=1;locked=0;connectable=1;" parent="oZDI20Qsb8vbS57gJCE_-1" source="oZDI20Qsb8vbS57gJCE_-4" target="oZDI20Qsb8vbS57gJCE_-24" edge="1">
          <mxGeometry width="50" height="50" relative="1" as="geometry">
            <mxPoint x="569.97" y="310" as="sourcePoint" />
            <mxPoint x="649.97" y="350" as="targetPoint" />
          </mxGeometry>
        </mxCell>
        <mxCell id="NojfsJ2RveVVlyeROoXI-12" value="" style="endArrow=classic;html=1;rounded=0;fontSize=12;startSize=8;endSize=8;fillColor=#eeeeee;strokeColor=#36393d;exitX=0.5;exitY=0;exitDx=0;exitDy=0;entryX=0.5;entryY=0;entryDx=0;entryDy=0;edgeStyle=orthogonalEdgeStyle;movable=1;resizable=1;rotatable=1;deletable=1;editable=1;locked=0;connectable=1;" parent="oZDI20Qsb8vbS57gJCE_-1" source="oZDI20Qsb8vbS57gJCE_-15" target="74PqBUMdY29_4b7tvF54-0" edge="1">
          <mxGeometry width="50" height="50" relative="1" as="geometry">
            <mxPoint x="569.97" y="430" as="sourcePoint" />
            <mxPoint x="649.97" y="470" as="targetPoint" />
            <Array as="points">
              <mxPoint x="480" y="250" />
              <mxPoint x="370" y="250" />
              <mxPoint x="370" y="60" />
              <mxPoint x="540" y="60" />
            </Array>
          </mxGeometry>
        </mxCell>
      </root>
    </mxGraphModel>
  </diagram>
  <diagram name="第 2 页" id="yDmYyMYehFAq6OrWz7vV">
    <mxGraphModel dx="1042" dy="678" grid="1" gridSize="10" guides="1" tooltips="1" connect="1" arrows="1" fold="1" page="0" pageScale="1" pageWidth="1654" pageHeight="1169" math="1" shadow="0">
      <root>
        <mxCell id="5qYox0b0TBN5t0hTpPMe-0" />
        <mxCell id="5qYox0b0TBN5t0hTpPMe-1" parent="5qYox0b0TBN5t0hTpPMe-0" />
        <mxCell id="8PVVgGuzfwkNzGy5nz_L-0" value="" style="rounded=0;whiteSpace=wrap;html=1;strokeColor=none;" vertex="1" parent="5qYox0b0TBN5t0hTpPMe-1">
          <mxGeometry x="350" y="40" width="490" height="410" as="geometry" />
        </mxCell>
        <mxCell id="5qYox0b0TBN5t0hTpPMe-2" value="" style="rounded=1;whiteSpace=wrap;html=1;fillColor=#eeeeee;strokeColor=#36393d;movable=1;resizable=1;rotatable=1;deletable=1;editable=1;locked=0;connectable=1;" parent="5qYox0b0TBN5t0hTpPMe-1" vertex="1">
          <mxGeometry x="380" y="260" width="200" height="160" as="geometry" />
        </mxCell>
        <mxCell id="5qYox0b0TBN5t0hTpPMe-3" value="" style="rounded=1;whiteSpace=wrap;html=1;fillColor=#eeeeee;strokeColor=#36393d;movable=1;resizable=1;rotatable=1;deletable=1;editable=1;locked=0;connectable=1;" parent="5qYox0b0TBN5t0hTpPMe-1" vertex="1">
          <mxGeometry x="610" y="260" width="200" height="160" as="geometry" />
        </mxCell>
        <mxCell id="5qYox0b0TBN5t0hTpPMe-4" value="" style="rounded=1;whiteSpace=wrap;html=1;fillColor=#eeeeee;strokeColor=#36393d;movable=1;resizable=1;rotatable=1;deletable=1;editable=1;locked=0;connectable=1;" parent="5qYox0b0TBN5t0hTpPMe-1" vertex="1">
          <mxGeometry x="610" y="70" width="200" height="160" as="geometry" />
        </mxCell>
        <mxCell id="5qYox0b0TBN5t0hTpPMe-5" value="" style="rounded=1;whiteSpace=wrap;html=1;fillColor=#eeeeee;strokeColor=#36393d;movable=1;resizable=1;rotatable=1;deletable=1;editable=1;locked=0;connectable=1;" parent="5qYox0b0TBN5t0hTpPMe-1" vertex="1">
          <mxGeometry x="380" y="70" width="200" height="160" as="geometry" />
        </mxCell>
        <mxCell id="5qYox0b0TBN5t0hTpPMe-6" value="\( Q_0 \)" style="rounded=0;whiteSpace=wrap;html=1;fillColor=#ffcc99;strokeColor=#36393d;movable=1;resizable=1;rotatable=1;deletable=1;editable=1;locked=0;connectable=1;" parent="5qYox0b0TBN5t0hTpPMe-1" vertex="1">
          <mxGeometry x="400" y="170" width="40" height="40" as="geometry" />
        </mxCell>
        <mxCell id="5qYox0b0TBN5t0hTpPMe-7" value="\( Q_1 \)" style="rounded=0;whiteSpace=wrap;html=1;fillColor=#cce5ff;strokeColor=#36393d;movable=1;resizable=1;rotatable=1;deletable=1;editable=1;locked=0;connectable=1;" parent="5qYox0b0TBN5t0hTpPMe-1" vertex="1">
          <mxGeometry x="630" y="170" width="40" height="40" as="geometry" />
        </mxCell>
        <mxCell id="5qYox0b0TBN5t0hTpPMe-8" value="\( Q_3 \)" style="rounded=0;whiteSpace=wrap;html=1;fillColor=#ffcccc;strokeColor=#36393d;movable=1;resizable=1;rotatable=1;deletable=1;editable=1;locked=0;connectable=1;" parent="5qYox0b0TBN5t0hTpPMe-1" vertex="1">
          <mxGeometry x="400" y="280" width="40" height="40" as="geometry" />
        </mxCell>
        <mxCell id="5qYox0b0TBN5t0hTpPMe-9" value="\( Q_2 \)" style="rounded=0;whiteSpace=wrap;html=1;fillColor=#cdeb8b;strokeColor=#36393d;movable=1;resizable=1;rotatable=1;deletable=1;editable=1;locked=0;connectable=1;" parent="5qYox0b0TBN5t0hTpPMe-1" vertex="1">
          <mxGeometry x="630" y="280" width="40" height="40" as="geometry" />
        </mxCell>
        <mxCell id="5qYox0b0TBN5t0hTpPMe-17" value="\( K_3 \)" style="rounded=0;whiteSpace=wrap;html=1;fillColor=#ffcccc;strokeColor=#36393d;movable=1;resizable=1;rotatable=1;deletable=1;editable=1;locked=0;connectable=1;" parent="5qYox0b0TBN5t0hTpPMe-1" vertex="1">
          <mxGeometry x="460" y="170" width="40" height="40" as="geometry" />
        </mxCell>
        <mxCell id="5qYox0b0TBN5t0hTpPMe-18" value="\( V_0 \)" style="rounded=0;whiteSpace=wrap;html=1;fillColor=#ffcc99;strokeColor=#36393d;movable=1;resizable=1;rotatable=1;deletable=1;editable=1;locked=0;connectable=1;" parent="5qYox0b0TBN5t0hTpPMe-1" vertex="1">
          <mxGeometry x="520" y="170" width="40" height="40" as="geometry" />
        </mxCell>
        <mxCell id="5qYox0b0TBN5t0hTpPMe-19" value="\( K_2 \)" style="rounded=0;whiteSpace=wrap;html=1;fillColor=#cdeb8b;strokeColor=#36393d;movable=1;resizable=1;rotatable=1;deletable=1;editable=1;locked=0;connectable=1;" parent="5qYox0b0TBN5t0hTpPMe-1" vertex="1">
          <mxGeometry x="460" y="280" width="40" height="40" as="geometry" />
        </mxCell>
        <mxCell id="5qYox0b0TBN5t0hTpPMe-20" value="\( V_3 \)" style="rounded=0;whiteSpace=wrap;html=1;fillColor=#ffcccc;strokeColor=#36393d;movable=1;resizable=1;rotatable=1;deletable=1;editable=1;locked=0;connectable=1;" parent="5qYox0b0TBN5t0hTpPMe-1" vertex="1">
          <mxGeometry x="520" y="280" width="40" height="40" as="geometry" />
        </mxCell>
        <mxCell id="5qYox0b0TBN5t0hTpPMe-21" value="\( K_0 \)" style="rounded=0;whiteSpace=wrap;html=1;fillColor=#ffcc99;strokeColor=#36393d;movable=1;resizable=1;rotatable=1;deletable=1;editable=1;locked=0;connectable=1;" parent="5qYox0b0TBN5t0hTpPMe-1" vertex="1">
          <mxGeometry x="690" y="170" width="40" height="40" as="geometry" />
        </mxCell>
        <mxCell id="5qYox0b0TBN5t0hTpPMe-22" value="\( V_1 \)" style="rounded=0;whiteSpace=wrap;html=1;fillColor=#cce5ff;strokeColor=#36393d;movable=1;resizable=1;rotatable=1;deletable=1;editable=1;locked=0;connectable=1;" parent="5qYox0b0TBN5t0hTpPMe-1" vertex="1">
          <mxGeometry x="750" y="170" width="40" height="40" as="geometry" />
        </mxCell>
        <mxCell id="5qYox0b0TBN5t0hTpPMe-23" value="\( K_1 \)" style="rounded=0;whiteSpace=wrap;html=1;fillColor=#cce5ff;strokeColor=#36393d;movable=1;resizable=1;rotatable=1;deletable=1;editable=1;locked=0;connectable=1;" parent="5qYox0b0TBN5t0hTpPMe-1" vertex="1">
          <mxGeometry x="690" y="280" width="40" height="40" as="geometry" />
        </mxCell>
        <mxCell id="5qYox0b0TBN5t0hTpPMe-24" value="\( V_2 \)" style="rounded=0;whiteSpace=wrap;html=1;fillColor=#cdeb8b;strokeColor=#36393d;movable=1;resizable=1;rotatable=1;deletable=1;editable=1;locked=0;connectable=1;" parent="5qYox0b0TBN5t0hTpPMe-1" vertex="1">
          <mxGeometry x="750" y="280" width="40" height="40" as="geometry" />
        </mxCell>
        <mxCell id="5qYox0b0TBN5t0hTpPMe-25" value="\( Q_0 K_0^{\top} \)" style="whiteSpace=wrap;html=1;aspect=fixed;fillColor=#ffcc99;strokeColor=#36393d;movable=1;resizable=1;rotatable=1;deletable=1;editable=1;locked=0;connectable=1;" parent="5qYox0b0TBN5t0hTpPMe-1" vertex="1">
          <mxGeometry x="400" y="90" width="40" height="40" as="geometry" />
        </mxCell>
        <mxCell id="5qYox0b0TBN5t0hTpPMe-26" value="\( Q_1 K_1^{\top} \)" style="whiteSpace=wrap;html=1;aspect=fixed;fillColor=#cce5ff;strokeColor=#36393d;movable=1;resizable=1;rotatable=1;deletable=1;editable=1;locked=0;connectable=1;" parent="5qYox0b0TBN5t0hTpPMe-1" vertex="1">
          <mxGeometry x="670" y="90" width="40" height="40" as="geometry" />
        </mxCell>
        <mxCell id="5qYox0b0TBN5t0hTpPMe-27" value="\( Q_2 K_2^{\top} \)" style="whiteSpace=wrap;html=1;aspect=fixed;fillColor=#cdeb8b;strokeColor=#36393d;movable=1;resizable=1;rotatable=1;deletable=1;editable=1;locked=0;connectable=1;" parent="5qYox0b0TBN5t0hTpPMe-1" vertex="1">
          <mxGeometry x="710" y="360" width="40" height="40" as="geometry" />
        </mxCell>
        <mxCell id="5qYox0b0TBN5t0hTpPMe-28" value="\( Q_3 K_3^{\top} \)" style="whiteSpace=wrap;html=1;aspect=fixed;fillColor=#ffcccc;strokeColor=#36393d;movable=1;resizable=1;rotatable=1;deletable=1;editable=1;locked=0;connectable=1;" parent="5qYox0b0TBN5t0hTpPMe-1" vertex="1">
          <mxGeometry x="520" y="360" width="40" height="40" as="geometry" />
        </mxCell>
        <mxCell id="5qYox0b0TBN5t0hTpPMe-29" value="\( Q_0 K_3^{\top} \)" style="whiteSpace=wrap;html=1;aspect=fixed;fillColor=#ffcc99;strokeColor=#36393d;movable=1;resizable=1;rotatable=1;deletable=1;editable=1;locked=0;connectable=1;" parent="5qYox0b0TBN5t0hTpPMe-1" vertex="1">
          <mxGeometry x="520" y="90" width="40" height="40" as="geometry" />
        </mxCell>
        <mxCell id="5qYox0b0TBN5t0hTpPMe-30" value="" style="whiteSpace=wrap;html=1;aspect=fixed;movable=1;resizable=1;rotatable=1;deletable=1;editable=1;locked=0;connectable=1;" parent="5qYox0b0TBN5t0hTpPMe-1" vertex="1">
          <mxGeometry x="440" y="90" width="40" height="40" as="geometry" />
        </mxCell>
        <mxCell id="5qYox0b0TBN5t0hTpPMe-31" value="\( K_2 \)" style="whiteSpace=wrap;html=1;aspect=fixed;movable=1;resizable=1;rotatable=1;deletable=1;editable=1;locked=0;connectable=1;fillColor=#cdeb8b;strokeColor=#36393d;" parent="5qYox0b0TBN5t0hTpPMe-1" vertex="1">
          <mxGeometry x="480" y="90" width="40" height="40" as="geometry" />
        </mxCell>
        <mxCell id="5qYox0b0TBN5t0hTpPMe-32" value="" style="whiteSpace=wrap;html=1;aspect=fixed;movable=1;resizable=1;rotatable=1;deletable=1;editable=1;locked=0;connectable=1;" parent="5qYox0b0TBN5t0hTpPMe-1" vertex="1">
          <mxGeometry x="710" y="90" width="40" height="40" as="geometry" />
        </mxCell>
        <mxCell id="5qYox0b0TBN5t0hTpPMe-33" value="\( K_3 \)" style="whiteSpace=wrap;html=1;aspect=fixed;movable=1;resizable=1;rotatable=1;deletable=1;editable=1;locked=0;connectable=1;fillColor=#ffcccc;strokeColor=#36393d;" parent="5qYox0b0TBN5t0hTpPMe-1" vertex="1">
          <mxGeometry x="750" y="90" width="40" height="40" as="geometry" />
        </mxCell>
        <mxCell id="5qYox0b0TBN5t0hTpPMe-34" value="\( Q_1 K_0^{\top} \)" style="rounded=0;whiteSpace=wrap;html=1;fillColor=#cce5ff;strokeColor=#36393d;movable=1;resizable=1;rotatable=1;deletable=1;editable=1;locked=0;connectable=1;" parent="5qYox0b0TBN5t0hTpPMe-1" vertex="1">
          <mxGeometry x="630" y="90" width="40" height="40" as="geometry" />
        </mxCell>
        <mxCell id="5qYox0b0TBN5t0hTpPMe-35" value="\( Q_2 K_1^{\top} \)" style="rounded=0;whiteSpace=wrap;html=1;fillColor=#cdeb8b;strokeColor=#36393d;movable=1;resizable=1;rotatable=1;deletable=1;editable=1;locked=0;connectable=1;" parent="5qYox0b0TBN5t0hTpPMe-1" vertex="1">
          <mxGeometry x="670" y="360" width="40" height="40" as="geometry" />
        </mxCell>
        <mxCell id="5qYox0b0TBN5t0hTpPMe-36" value="\( K_0 \)" style="whiteSpace=wrap;html=1;aspect=fixed;movable=1;resizable=1;rotatable=1;deletable=1;editable=1;locked=0;connectable=1;fillColor=#ffcc99;strokeColor=#36393d;" parent="5qYox0b0TBN5t0hTpPMe-1" vertex="1">
          <mxGeometry x="630" y="360" width="40" height="40" as="geometry" />
        </mxCell>
        <mxCell id="5qYox0b0TBN5t0hTpPMe-37" value="" style="whiteSpace=wrap;html=1;aspect=fixed;movable=1;resizable=1;rotatable=1;deletable=1;editable=1;locked=0;connectable=1;" parent="5qYox0b0TBN5t0hTpPMe-1" vertex="1">
          <mxGeometry x="750" y="360" width="40" height="40" as="geometry" />
        </mxCell>
        <mxCell id="5qYox0b0TBN5t0hTpPMe-38" value="\( Q_3 K_2^{\top} \)" style="rounded=0;whiteSpace=wrap;html=1;fillColor=#ffcccc;strokeColor=#36393d;movable=1;resizable=1;rotatable=1;deletable=1;editable=1;locked=0;connectable=1;" parent="5qYox0b0TBN5t0hTpPMe-1" vertex="1">
          <mxGeometry x="480" y="360" width="40" height="40" as="geometry" />
        </mxCell>
        <mxCell id="5qYox0b0TBN5t0hTpPMe-39" value="" style="whiteSpace=wrap;html=1;aspect=fixed;movable=1;resizable=1;rotatable=1;deletable=1;editable=1;locked=0;connectable=1;" parent="5qYox0b0TBN5t0hTpPMe-1" vertex="1">
          <mxGeometry x="400" y="360" width="40" height="40" as="geometry" />
        </mxCell>
        <mxCell id="5qYox0b0TBN5t0hTpPMe-40" value="\( K_1 \)" style="whiteSpace=wrap;html=1;aspect=fixed;movable=1;resizable=1;rotatable=1;deletable=1;editable=1;locked=0;connectable=1;fillColor=#cce5ff;strokeColor=#36393d;" parent="5qYox0b0TBN5t0hTpPMe-1" vertex="1">
          <mxGeometry x="440" y="360" width="40" height="40" as="geometry" />
        </mxCell>
        <mxCell id="5qYox0b0TBN5t0hTpPMe-42" value="" style="endArrow=classic;html=1;rounded=0;fontSize=12;startSize=8;endSize=8;fillColor=#eeeeee;strokeColor=#36393d;exitX=0.5;exitY=0;exitDx=0;exitDy=0;entryX=0.5;entryY=1;entryDx=0;entryDy=0;edgeStyle=orthogonalEdgeStyle;movable=1;resizable=1;rotatable=1;deletable=1;editable=1;locked=0;connectable=1;" parent="5qYox0b0TBN5t0hTpPMe-1" source="5qYox0b0TBN5t0hTpPMe-17" target="5qYox0b0TBN5t0hTpPMe-29" edge="1">
          <mxGeometry width="50" height="50" relative="1" as="geometry">
            <mxPoint x="600" y="400" as="sourcePoint" />
            <mxPoint x="650" y="350" as="targetPoint" />
          </mxGeometry>
        </mxCell>
        <mxCell id="5qYox0b0TBN5t0hTpPMe-43" value="" style="endArrow=classic;html=1;rounded=0;fontSize=12;startSize=8;endSize=8;fillColor=#eeeeee;strokeColor=#36393d;exitX=0.5;exitY=1;exitDx=0;exitDy=0;entryX=0.5;entryY=0;entryDx=0;entryDy=0;edgeStyle=orthogonalEdgeStyle;movable=1;resizable=1;rotatable=1;deletable=1;editable=1;locked=0;connectable=1;" parent="5qYox0b0TBN5t0hTpPMe-1" source="5qYox0b0TBN5t0hTpPMe-17" target="5qYox0b0TBN5t0hTpPMe-33" edge="1">
          <mxGeometry width="50" height="50" relative="1" as="geometry">
            <mxPoint x="600" y="390" as="sourcePoint" />
            <mxPoint x="650" y="340" as="targetPoint" />
            <Array as="points">
              <mxPoint x="480" y="240" />
              <mxPoint x="590" y="240" />
              <mxPoint x="590" y="60" />
              <mxPoint x="770" y="60" />
            </Array>
          </mxGeometry>
        </mxCell>
        <mxCell id="5qYox0b0TBN5t0hTpPMe-44" value="" style="endArrow=classic;html=1;rounded=0;fontSize=12;startSize=8;endSize=8;fillColor=#eeeeee;strokeColor=#36393d;exitX=0.5;exitY=0;exitDx=0;exitDy=0;entryX=0.5;entryY=1;entryDx=0;entryDy=0;edgeStyle=orthogonalEdgeStyle;movable=1;resizable=1;rotatable=1;deletable=1;editable=1;locked=0;connectable=1;" parent="5qYox0b0TBN5t0hTpPMe-1" source="5qYox0b0TBN5t0hTpPMe-21" target="5qYox0b0TBN5t0hTpPMe-34" edge="1">
          <mxGeometry width="50" height="50" relative="1" as="geometry">
            <mxPoint x="470" y="400" as="sourcePoint" />
            <mxPoint x="520" y="350" as="targetPoint" />
          </mxGeometry>
        </mxCell>
        <mxCell id="5qYox0b0TBN5t0hTpPMe-45" value="" style="endArrow=classic;html=1;rounded=0;fontSize=12;startSize=8;endSize=8;fillColor=#eeeeee;strokeColor=#36393d;exitX=0.5;exitY=0;exitDx=0;exitDy=0;entryX=0.5;entryY=1;entryDx=0;entryDy=0;edgeStyle=orthogonalEdgeStyle;movable=1;resizable=1;rotatable=1;deletable=1;editable=1;locked=0;connectable=1;" parent="5qYox0b0TBN5t0hTpPMe-1" source="5qYox0b0TBN5t0hTpPMe-7" target="5qYox0b0TBN5t0hTpPMe-34" edge="1">
          <mxGeometry width="50" height="50" relative="1" as="geometry">
            <mxPoint x="470" y="400" as="sourcePoint" />
            <mxPoint x="520" y="350" as="targetPoint" />
          </mxGeometry>
        </mxCell>
        <mxCell id="5qYox0b0TBN5t0hTpPMe-46" value="" style="endArrow=classic;html=1;rounded=0;fontSize=12;startSize=8;endSize=8;fillColor=#eeeeee;strokeColor=#36393d;exitX=0.5;exitY=1;exitDx=0;exitDy=0;entryX=0.5;entryY=1;entryDx=0;entryDy=0;edgeStyle=orthogonalEdgeStyle;movable=1;resizable=1;rotatable=1;deletable=1;editable=1;locked=0;connectable=1;" parent="5qYox0b0TBN5t0hTpPMe-1" source="5qYox0b0TBN5t0hTpPMe-21" target="5qYox0b0TBN5t0hTpPMe-36" edge="1">
          <mxGeometry width="50" height="50" relative="1" as="geometry">
            <mxPoint x="600" y="390" as="sourcePoint" />
            <mxPoint x="650" y="340" as="targetPoint" />
            <Array as="points">
              <mxPoint x="710" y="240" />
              <mxPoint x="820" y="240" />
              <mxPoint x="820" y="430" />
              <mxPoint x="650" y="430" />
            </Array>
          </mxGeometry>
        </mxCell>
        <mxCell id="5qYox0b0TBN5t0hTpPMe-47" value="" style="endArrow=classic;html=1;rounded=0;fontSize=12;startSize=8;endSize=8;fillColor=#eeeeee;strokeColor=#36393d;exitX=0.5;exitY=1;exitDx=0;exitDy=0;entryX=0.5;entryY=0;entryDx=0;entryDy=0;edgeStyle=orthogonalEdgeStyle;movable=1;resizable=1;rotatable=1;deletable=1;editable=1;locked=0;connectable=1;" parent="5qYox0b0TBN5t0hTpPMe-1" source="5qYox0b0TBN5t0hTpPMe-23" target="5qYox0b0TBN5t0hTpPMe-35" edge="1">
          <mxGeometry width="50" height="50" relative="1" as="geometry">
            <mxPoint x="700" y="230" as="sourcePoint" />
            <mxPoint x="640" y="190" as="targetPoint" />
          </mxGeometry>
        </mxCell>
        <mxCell id="5qYox0b0TBN5t0hTpPMe-48" value="" style="endArrow=classic;html=1;rounded=0;fontSize=12;startSize=8;endSize=8;fillColor=#eeeeee;strokeColor=#36393d;exitX=0.5;exitY=1;exitDx=0;exitDy=0;entryX=0.5;entryY=0;entryDx=0;entryDy=0;edgeStyle=orthogonalEdgeStyle;movable=1;resizable=1;rotatable=1;deletable=1;editable=1;locked=0;connectable=1;" parent="5qYox0b0TBN5t0hTpPMe-1" source="5qYox0b0TBN5t0hTpPMe-9" target="5qYox0b0TBN5t0hTpPMe-35" edge="1">
          <mxGeometry width="50" height="50" relative="1" as="geometry">
            <mxPoint x="700" y="230" as="sourcePoint" />
            <mxPoint x="640" y="190" as="targetPoint" />
          </mxGeometry>
        </mxCell>
        <mxCell id="5qYox0b0TBN5t0hTpPMe-49" value="" style="endArrow=classic;html=1;rounded=0;fontSize=12;startSize=8;endSize=8;fillColor=#eeeeee;strokeColor=#36393d;exitX=0.5;exitY=0;exitDx=0;exitDy=0;edgeStyle=orthogonalEdgeStyle;entryX=0.5;entryY=1;entryDx=0;entryDy=0;movable=1;resizable=1;rotatable=1;deletable=1;editable=1;locked=0;connectable=1;" parent="5qYox0b0TBN5t0hTpPMe-1" source="5qYox0b0TBN5t0hTpPMe-23" target="5qYox0b0TBN5t0hTpPMe-40" edge="1">
          <mxGeometry width="50" height="50" relative="1" as="geometry">
            <mxPoint x="840" y="440" as="sourcePoint" />
            <mxPoint x="570" y="340" as="targetPoint" />
            <Array as="points">
              <mxPoint x="710" y="250" />
              <mxPoint x="600" y="250" />
              <mxPoint x="600" y="430" />
              <mxPoint x="460" y="430" />
            </Array>
          </mxGeometry>
        </mxCell>
        <mxCell id="5qYox0b0TBN5t0hTpPMe-50" value="" style="endArrow=classic;html=1;rounded=0;fontSize=12;startSize=8;endSize=8;fillColor=#eeeeee;strokeColor=#36393d;exitX=0.5;exitY=1;exitDx=0;exitDy=0;entryX=0.5;entryY=0;entryDx=0;entryDy=0;edgeStyle=orthogonalEdgeStyle;movable=1;resizable=1;rotatable=1;deletable=1;editable=1;locked=0;connectable=1;" parent="5qYox0b0TBN5t0hTpPMe-1" source="5qYox0b0TBN5t0hTpPMe-19" target="5qYox0b0TBN5t0hTpPMe-38" edge="1">
          <mxGeometry width="50" height="50" relative="1" as="geometry">
            <mxPoint x="569.97" y="310" as="sourcePoint" />
            <mxPoint x="649.97" y="350" as="targetPoint" />
          </mxGeometry>
        </mxCell>
        <mxCell id="5qYox0b0TBN5t0hTpPMe-51" value="" style="endArrow=classic;html=1;rounded=0;fontSize=12;startSize=8;endSize=8;fillColor=#eeeeee;strokeColor=#36393d;exitX=0.5;exitY=1;exitDx=0;exitDy=0;entryX=0.5;entryY=0;entryDx=0;entryDy=0;edgeStyle=orthogonalEdgeStyle;movable=1;resizable=1;rotatable=1;deletable=1;editable=1;locked=0;connectable=1;" parent="5qYox0b0TBN5t0hTpPMe-1" source="5qYox0b0TBN5t0hTpPMe-8" target="5qYox0b0TBN5t0hTpPMe-38" edge="1">
          <mxGeometry width="50" height="50" relative="1" as="geometry">
            <mxPoint x="569.97" y="310" as="sourcePoint" />
            <mxPoint x="649.97" y="350" as="targetPoint" />
          </mxGeometry>
        </mxCell>
        <mxCell id="5qYox0b0TBN5t0hTpPMe-52" value="" style="endArrow=classic;html=1;rounded=0;fontSize=12;startSize=8;endSize=8;fillColor=#eeeeee;strokeColor=#36393d;exitX=0.5;exitY=0;exitDx=0;exitDy=0;entryX=0.5;entryY=0;entryDx=0;entryDy=0;edgeStyle=orthogonalEdgeStyle;movable=1;resizable=1;rotatable=1;deletable=1;editable=1;locked=0;connectable=1;" parent="5qYox0b0TBN5t0hTpPMe-1" source="5qYox0b0TBN5t0hTpPMe-19" target="5qYox0b0TBN5t0hTpPMe-31" edge="1">
          <mxGeometry width="50" height="50" relative="1" as="geometry">
            <mxPoint x="569.97" y="430" as="sourcePoint" />
            <mxPoint x="649.97" y="470" as="targetPoint" />
            <Array as="points">
              <mxPoint x="480" y="250" />
              <mxPoint x="370" y="250" />
              <mxPoint x="370" y="60" />
              <mxPoint x="500" y="60" />
            </Array>
          </mxGeometry>
        </mxCell>
        <mxCell id="IWLwK9hLTfVGF52K_5lz-0" value="" style="endArrow=classic;html=1;rounded=0;fontSize=12;startSize=8;endSize=8;fillColor=#eeeeee;strokeColor=#36393d;exitX=0.5;exitY=0;exitDx=0;exitDy=0;entryX=0.5;entryY=1;entryDx=0;entryDy=0;edgeStyle=orthogonalEdgeStyle;movable=1;resizable=1;rotatable=1;deletable=1;editable=1;locked=0;connectable=1;" parent="5qYox0b0TBN5t0hTpPMe-1" source="5qYox0b0TBN5t0hTpPMe-6" target="5qYox0b0TBN5t0hTpPMe-29" edge="1">
          <mxGeometry width="50" height="50" relative="1" as="geometry">
            <mxPoint x="600" y="400" as="sourcePoint" />
            <mxPoint x="650" y="350" as="targetPoint" />
          </mxGeometry>
        </mxCell>
      </root>
    </mxGraphModel>
  </diagram>
  <diagram name="第 3 页" id="wSNPiXX9AfqqS9v58Dwd">
    <mxGraphModel dx="1042" dy="678" grid="1" gridSize="10" guides="1" tooltips="1" connect="1" arrows="1" fold="1" page="0" pageScale="1" pageWidth="1654" pageHeight="1169" math="1" shadow="0">
      <root>
        <mxCell id="9sCrBlL3gSD1TK4o8zXA-0" />
        <mxCell id="9sCrBlL3gSD1TK4o8zXA-1" parent="9sCrBlL3gSD1TK4o8zXA-0" />
        <mxCell id="hELKIWNuPCPH2TahAuos-0" value="" style="rounded=0;whiteSpace=wrap;html=1;strokeColor=none;" vertex="1" parent="9sCrBlL3gSD1TK4o8zXA-1">
          <mxGeometry x="350" y="40" width="490" height="410" as="geometry" />
        </mxCell>
        <mxCell id="9sCrBlL3gSD1TK4o8zXA-2" value="" style="rounded=1;whiteSpace=wrap;html=1;fillColor=#eeeeee;strokeColor=#36393d;movable=1;resizable=1;rotatable=1;deletable=1;editable=1;locked=0;connectable=1;" parent="9sCrBlL3gSD1TK4o8zXA-1" vertex="1">
          <mxGeometry x="380" y="260" width="200" height="160" as="geometry" />
        </mxCell>
        <mxCell id="9sCrBlL3gSD1TK4o8zXA-3" value="" style="rounded=1;whiteSpace=wrap;html=1;fillColor=#eeeeee;strokeColor=#36393d;movable=1;resizable=1;rotatable=1;deletable=1;editable=1;locked=0;connectable=1;" parent="9sCrBlL3gSD1TK4o8zXA-1" vertex="1">
          <mxGeometry x="610" y="260" width="200" height="160" as="geometry" />
        </mxCell>
        <mxCell id="9sCrBlL3gSD1TK4o8zXA-4" value="" style="rounded=1;whiteSpace=wrap;html=1;fillColor=#eeeeee;strokeColor=#36393d;movable=1;resizable=1;rotatable=1;deletable=1;editable=1;locked=0;connectable=1;" parent="9sCrBlL3gSD1TK4o8zXA-1" vertex="1">
          <mxGeometry x="610" y="70" width="200" height="160" as="geometry" />
        </mxCell>
        <mxCell id="9sCrBlL3gSD1TK4o8zXA-5" value="" style="rounded=1;whiteSpace=wrap;html=1;fillColor=#eeeeee;strokeColor=#36393d;movable=1;resizable=1;rotatable=1;deletable=1;editable=1;locked=0;connectable=1;" parent="9sCrBlL3gSD1TK4o8zXA-1" vertex="1">
          <mxGeometry x="380" y="70" width="200" height="160" as="geometry" />
        </mxCell>
        <mxCell id="9sCrBlL3gSD1TK4o8zXA-6" value="\( Q_0 \)" style="rounded=0;whiteSpace=wrap;html=1;fillColor=#ffcc99;strokeColor=#36393d;movable=1;resizable=1;rotatable=1;deletable=1;editable=1;locked=0;connectable=1;" parent="9sCrBlL3gSD1TK4o8zXA-1" vertex="1">
          <mxGeometry x="400" y="170" width="40" height="40" as="geometry" />
        </mxCell>
        <mxCell id="9sCrBlL3gSD1TK4o8zXA-7" value="\( Q_1 \)" style="rounded=0;whiteSpace=wrap;html=1;fillColor=#cce5ff;strokeColor=#36393d;movable=1;resizable=1;rotatable=1;deletable=1;editable=1;locked=0;connectable=1;" parent="9sCrBlL3gSD1TK4o8zXA-1" vertex="1">
          <mxGeometry x="630" y="170" width="40" height="40" as="geometry" />
        </mxCell>
        <mxCell id="9sCrBlL3gSD1TK4o8zXA-8" value="\( Q_3 \)" style="rounded=0;whiteSpace=wrap;html=1;fillColor=#ffcccc;strokeColor=#36393d;movable=1;resizable=1;rotatable=1;deletable=1;editable=1;locked=0;connectable=1;" parent="9sCrBlL3gSD1TK4o8zXA-1" vertex="1">
          <mxGeometry x="400" y="280" width="40" height="40" as="geometry" />
        </mxCell>
        <mxCell id="9sCrBlL3gSD1TK4o8zXA-9" value="\( Q_2 \)" style="rounded=0;whiteSpace=wrap;html=1;fillColor=#cdeb8b;strokeColor=#36393d;movable=1;resizable=1;rotatable=1;deletable=1;editable=1;locked=0;connectable=1;" parent="9sCrBlL3gSD1TK4o8zXA-1" vertex="1">
          <mxGeometry x="630" y="280" width="40" height="40" as="geometry" />
        </mxCell>
        <mxCell id="9sCrBlL3gSD1TK4o8zXA-17" value="\( K_2 \)" style="rounded=0;whiteSpace=wrap;html=1;fillColor=#cdeb8b;strokeColor=#36393d;movable=1;resizable=1;rotatable=1;deletable=1;editable=1;locked=0;connectable=1;" parent="9sCrBlL3gSD1TK4o8zXA-1" vertex="1">
          <mxGeometry x="460" y="170" width="40" height="40" as="geometry" />
        </mxCell>
        <mxCell id="9sCrBlL3gSD1TK4o8zXA-18" value="\( V_0 \)" style="rounded=0;whiteSpace=wrap;html=1;fillColor=#ffcc99;strokeColor=#36393d;movable=1;resizable=1;rotatable=1;deletable=1;editable=1;locked=0;connectable=1;" parent="9sCrBlL3gSD1TK4o8zXA-1" vertex="1">
          <mxGeometry x="520" y="170" width="40" height="40" as="geometry" />
        </mxCell>
        <mxCell id="9sCrBlL3gSD1TK4o8zXA-19" value="\( K_1 \)" style="rounded=0;whiteSpace=wrap;html=1;fillColor=#cce5ff;strokeColor=#36393d;movable=1;resizable=1;rotatable=1;deletable=1;editable=1;locked=0;connectable=1;" parent="9sCrBlL3gSD1TK4o8zXA-1" vertex="1">
          <mxGeometry x="460" y="280" width="40" height="40" as="geometry" />
        </mxCell>
        <mxCell id="9sCrBlL3gSD1TK4o8zXA-20" value="\( V_3 \)" style="rounded=0;whiteSpace=wrap;html=1;fillColor=#ffcccc;strokeColor=#36393d;movable=1;resizable=1;rotatable=1;deletable=1;editable=1;locked=0;connectable=1;" parent="9sCrBlL3gSD1TK4o8zXA-1" vertex="1">
          <mxGeometry x="520" y="280" width="40" height="40" as="geometry" />
        </mxCell>
        <mxCell id="9sCrBlL3gSD1TK4o8zXA-21" value="\( K_3 \)" style="rounded=0;whiteSpace=wrap;html=1;fillColor=#ffcccc;strokeColor=#36393d;movable=1;resizable=1;rotatable=1;deletable=1;editable=1;locked=0;connectable=1;" parent="9sCrBlL3gSD1TK4o8zXA-1" vertex="1">
          <mxGeometry x="690" y="170" width="40" height="40" as="geometry" />
        </mxCell>
        <mxCell id="9sCrBlL3gSD1TK4o8zXA-22" value="\( V_1 \)" style="rounded=0;whiteSpace=wrap;html=1;fillColor=#cce5ff;strokeColor=#36393d;movable=1;resizable=1;rotatable=1;deletable=1;editable=1;locked=0;connectable=1;" parent="9sCrBlL3gSD1TK4o8zXA-1" vertex="1">
          <mxGeometry x="750" y="170" width="40" height="40" as="geometry" />
        </mxCell>
        <mxCell id="9sCrBlL3gSD1TK4o8zXA-23" value="\( K_0 \)" style="rounded=0;whiteSpace=wrap;html=1;fillColor=#ffcc99;strokeColor=#36393d;movable=1;resizable=1;rotatable=1;deletable=1;editable=1;locked=0;connectable=1;" parent="9sCrBlL3gSD1TK4o8zXA-1" vertex="1">
          <mxGeometry x="690" y="280" width="40" height="40" as="geometry" />
        </mxCell>
        <mxCell id="9sCrBlL3gSD1TK4o8zXA-24" value="\( V_2 \)" style="rounded=0;whiteSpace=wrap;html=1;fillColor=#cdeb8b;strokeColor=#36393d;movable=1;resizable=1;rotatable=1;deletable=1;editable=1;locked=0;connectable=1;" parent="9sCrBlL3gSD1TK4o8zXA-1" vertex="1">
          <mxGeometry x="750" y="280" width="40" height="40" as="geometry" />
        </mxCell>
        <mxCell id="9sCrBlL3gSD1TK4o8zXA-25" value="\( Q_0 K_0^{\top} \)" style="whiteSpace=wrap;html=1;aspect=fixed;fillColor=#ffcc99;strokeColor=#36393d;movable=1;resizable=1;rotatable=1;deletable=1;editable=1;locked=0;connectable=1;" parent="9sCrBlL3gSD1TK4o8zXA-1" vertex="1">
          <mxGeometry x="400" y="90" width="40" height="40" as="geometry" />
        </mxCell>
        <mxCell id="9sCrBlL3gSD1TK4o8zXA-26" value="\( Q_1 K_1^{\top} \)" style="whiteSpace=wrap;html=1;aspect=fixed;fillColor=#cce5ff;strokeColor=#36393d;movable=1;resizable=1;rotatable=1;deletable=1;editable=1;locked=0;connectable=1;" parent="9sCrBlL3gSD1TK4o8zXA-1" vertex="1">
          <mxGeometry x="670" y="90" width="40" height="40" as="geometry" />
        </mxCell>
        <mxCell id="9sCrBlL3gSD1TK4o8zXA-27" value="\( Q_2 K_2^{\top} \)" style="whiteSpace=wrap;html=1;aspect=fixed;fillColor=#cdeb8b;strokeColor=#36393d;movable=1;resizable=1;rotatable=1;deletable=1;editable=1;locked=0;connectable=1;" parent="9sCrBlL3gSD1TK4o8zXA-1" vertex="1">
          <mxGeometry x="710" y="360" width="40" height="40" as="geometry" />
        </mxCell>
        <mxCell id="9sCrBlL3gSD1TK4o8zXA-28" value="\( Q_3 K_3^{\top} \)" style="whiteSpace=wrap;html=1;aspect=fixed;fillColor=#ffcccc;strokeColor=#36393d;movable=1;resizable=1;rotatable=1;deletable=1;editable=1;locked=0;connectable=1;" parent="9sCrBlL3gSD1TK4o8zXA-1" vertex="1">
          <mxGeometry x="520" y="360" width="40" height="40" as="geometry" />
        </mxCell>
        <mxCell id="9sCrBlL3gSD1TK4o8zXA-29" value="\( Q_0 K_3^{\top} \)" style="whiteSpace=wrap;html=1;aspect=fixed;fillColor=#ffcc99;strokeColor=#36393d;movable=1;resizable=1;rotatable=1;deletable=1;editable=1;locked=0;connectable=1;" parent="9sCrBlL3gSD1TK4o8zXA-1" vertex="1">
          <mxGeometry x="520" y="90" width="40" height="40" as="geometry" />
        </mxCell>
        <mxCell id="9sCrBlL3gSD1TK4o8zXA-30" value="\( K_1 \)" style="whiteSpace=wrap;html=1;aspect=fixed;movable=1;resizable=1;rotatable=1;deletable=1;editable=1;locked=0;connectable=1;fillColor=#cce5ff;strokeColor=#36393d;" parent="9sCrBlL3gSD1TK4o8zXA-1" vertex="1">
          <mxGeometry x="440" y="90" width="40" height="40" as="geometry" />
        </mxCell>
        <mxCell id="9sCrBlL3gSD1TK4o8zXA-31" value="\( Q_0 K_2^{\top} \)" style="whiteSpace=wrap;html=1;aspect=fixed;movable=1;resizable=1;rotatable=1;deletable=1;editable=1;locked=0;connectable=1;fillColor=#ffcc99;strokeColor=#36393d;" parent="9sCrBlL3gSD1TK4o8zXA-1" vertex="1">
          <mxGeometry x="480" y="90" width="40" height="40" as="geometry" />
        </mxCell>
        <mxCell id="9sCrBlL3gSD1TK4o8zXA-32" value="\( K_2 \)" style="whiteSpace=wrap;html=1;aspect=fixed;movable=1;resizable=1;rotatable=1;deletable=1;editable=1;locked=0;connectable=1;fillColor=#cdeb8b;strokeColor=#36393d;" parent="9sCrBlL3gSD1TK4o8zXA-1" vertex="1">
          <mxGeometry x="710" y="90" width="40" height="40" as="geometry" />
        </mxCell>
        <mxCell id="9sCrBlL3gSD1TK4o8zXA-33" value="\( Q_1 K_3^{\top} \)" style="whiteSpace=wrap;html=1;aspect=fixed;movable=1;resizable=1;rotatable=1;deletable=1;editable=1;locked=0;connectable=1;fillColor=#cce5ff;strokeColor=#36393d;" parent="9sCrBlL3gSD1TK4o8zXA-1" vertex="1">
          <mxGeometry x="750" y="90" width="40" height="40" as="geometry" />
        </mxCell>
        <mxCell id="9sCrBlL3gSD1TK4o8zXA-34" value="\( Q_1 K_0^{\top} \)" style="rounded=0;whiteSpace=wrap;html=1;fillColor=#cce5ff;strokeColor=#36393d;movable=1;resizable=1;rotatable=1;deletable=1;editable=1;locked=0;connectable=1;" parent="9sCrBlL3gSD1TK4o8zXA-1" vertex="1">
          <mxGeometry x="630" y="90" width="40" height="40" as="geometry" />
        </mxCell>
        <mxCell id="9sCrBlL3gSD1TK4o8zXA-35" value="\( Q_2 K_1^{\top} \)" style="rounded=0;whiteSpace=wrap;html=1;fillColor=#cdeb8b;strokeColor=#36393d;movable=1;resizable=1;rotatable=1;deletable=1;editable=1;locked=0;connectable=1;" parent="9sCrBlL3gSD1TK4o8zXA-1" vertex="1">
          <mxGeometry x="670" y="360" width="40" height="40" as="geometry" />
        </mxCell>
        <mxCell id="9sCrBlL3gSD1TK4o8zXA-36" value="\( Q_2 K_0^{\top} \)" style="whiteSpace=wrap;html=1;aspect=fixed;movable=1;resizable=1;rotatable=1;deletable=1;editable=1;locked=0;connectable=1;fillColor=#cdeb8b;strokeColor=#36393d;" parent="9sCrBlL3gSD1TK4o8zXA-1" vertex="1">
          <mxGeometry x="630" y="360" width="40" height="40" as="geometry" />
        </mxCell>
        <mxCell id="9sCrBlL3gSD1TK4o8zXA-37" value="\( K_3 \)" style="whiteSpace=wrap;html=1;aspect=fixed;movable=1;resizable=1;rotatable=1;deletable=1;editable=1;locked=0;connectable=1;fillColor=#ffcccc;strokeColor=#36393d;" parent="9sCrBlL3gSD1TK4o8zXA-1" vertex="1">
          <mxGeometry x="750" y="360" width="40" height="40" as="geometry" />
        </mxCell>
        <mxCell id="9sCrBlL3gSD1TK4o8zXA-38" value="\( Q_3 K_2^{\top} \)" style="rounded=0;whiteSpace=wrap;html=1;fillColor=#ffcccc;strokeColor=#36393d;movable=1;resizable=1;rotatable=1;deletable=1;editable=1;locked=0;connectable=1;" parent="9sCrBlL3gSD1TK4o8zXA-1" vertex="1">
          <mxGeometry x="480" y="360" width="40" height="40" as="geometry" />
        </mxCell>
        <mxCell id="9sCrBlL3gSD1TK4o8zXA-39" value="\( K_0 \)" style="whiteSpace=wrap;html=1;aspect=fixed;movable=1;resizable=1;rotatable=1;deletable=1;editable=1;locked=0;connectable=1;fillColor=#ffcc99;strokeColor=#36393d;" parent="9sCrBlL3gSD1TK4o8zXA-1" vertex="1">
          <mxGeometry x="400" y="360" width="40" height="40" as="geometry" />
        </mxCell>
        <mxCell id="9sCrBlL3gSD1TK4o8zXA-40" value="\( Q_3 K_1^{\top} \)" style="whiteSpace=wrap;html=1;aspect=fixed;movable=1;resizable=1;rotatable=1;deletable=1;editable=1;locked=0;connectable=1;fillColor=#ffcccc;strokeColor=#36393d;" parent="9sCrBlL3gSD1TK4o8zXA-1" vertex="1">
          <mxGeometry x="440" y="360" width="40" height="40" as="geometry" />
        </mxCell>
        <mxCell id="9sCrBlL3gSD1TK4o8zXA-41" value="" style="endArrow=classic;html=1;rounded=0;fontSize=12;startSize=8;endSize=8;fillColor=#eeeeee;strokeColor=#36393d;exitX=0.5;exitY=0;exitDx=0;exitDy=0;entryX=0.5;entryY=1;entryDx=0;entryDy=0;edgeStyle=orthogonalEdgeStyle;movable=1;resizable=1;rotatable=1;deletable=1;editable=1;locked=0;connectable=1;" parent="9sCrBlL3gSD1TK4o8zXA-1" source="9sCrBlL3gSD1TK4o8zXA-17" target="9sCrBlL3gSD1TK4o8zXA-31" edge="1">
          <mxGeometry width="50" height="50" relative="1" as="geometry">
            <mxPoint x="600" y="400" as="sourcePoint" />
            <mxPoint x="650" y="350" as="targetPoint" />
          </mxGeometry>
        </mxCell>
        <mxCell id="9sCrBlL3gSD1TK4o8zXA-42" value="" style="endArrow=classic;html=1;rounded=0;fontSize=12;startSize=8;endSize=8;fillColor=#eeeeee;strokeColor=#36393d;exitX=0.5;exitY=1;exitDx=0;exitDy=0;entryX=0.5;entryY=0;entryDx=0;entryDy=0;edgeStyle=orthogonalEdgeStyle;movable=1;resizable=1;rotatable=1;deletable=1;editable=1;locked=0;connectable=1;" parent="9sCrBlL3gSD1TK4o8zXA-1" source="9sCrBlL3gSD1TK4o8zXA-17" target="9sCrBlL3gSD1TK4o8zXA-32" edge="1">
          <mxGeometry width="50" height="50" relative="1" as="geometry">
            <mxPoint x="600" y="390" as="sourcePoint" />
            <mxPoint x="650" y="340" as="targetPoint" />
            <Array as="points">
              <mxPoint x="480" y="240" />
              <mxPoint x="590" y="240" />
              <mxPoint x="590" y="60" />
              <mxPoint x="730" y="60" />
            </Array>
          </mxGeometry>
        </mxCell>
        <mxCell id="9sCrBlL3gSD1TK4o8zXA-43" value="" style="endArrow=classic;html=1;rounded=0;fontSize=12;startSize=8;endSize=8;fillColor=#eeeeee;strokeColor=#36393d;exitX=0.5;exitY=0;exitDx=0;exitDy=0;entryX=0.5;entryY=1;entryDx=0;entryDy=0;edgeStyle=orthogonalEdgeStyle;movable=1;resizable=1;rotatable=1;deletable=1;editable=1;locked=0;connectable=1;" parent="9sCrBlL3gSD1TK4o8zXA-1" source="9sCrBlL3gSD1TK4o8zXA-21" target="9sCrBlL3gSD1TK4o8zXA-33" edge="1">
          <mxGeometry width="50" height="50" relative="1" as="geometry">
            <mxPoint x="470" y="400" as="sourcePoint" />
            <mxPoint x="520" y="350" as="targetPoint" />
          </mxGeometry>
        </mxCell>
        <mxCell id="9sCrBlL3gSD1TK4o8zXA-44" value="" style="endArrow=classic;html=1;rounded=0;fontSize=12;startSize=8;endSize=8;fillColor=#eeeeee;strokeColor=#36393d;exitX=0.5;exitY=0;exitDx=0;exitDy=0;entryX=0.5;entryY=1;entryDx=0;entryDy=0;edgeStyle=orthogonalEdgeStyle;movable=1;resizable=1;rotatable=1;deletable=1;editable=1;locked=0;connectable=1;" parent="9sCrBlL3gSD1TK4o8zXA-1" source="9sCrBlL3gSD1TK4o8zXA-7" target="9sCrBlL3gSD1TK4o8zXA-33" edge="1">
          <mxGeometry width="50" height="50" relative="1" as="geometry">
            <mxPoint x="470" y="400" as="sourcePoint" />
            <mxPoint x="520" y="350" as="targetPoint" />
          </mxGeometry>
        </mxCell>
        <mxCell id="9sCrBlL3gSD1TK4o8zXA-45" value="" style="endArrow=classic;html=1;rounded=0;fontSize=12;startSize=8;endSize=8;fillColor=#eeeeee;strokeColor=#36393d;exitX=0.5;exitY=1;exitDx=0;exitDy=0;entryX=0.5;entryY=1;entryDx=0;entryDy=0;edgeStyle=orthogonalEdgeStyle;movable=1;resizable=1;rotatable=1;deletable=1;editable=1;locked=0;connectable=1;" parent="9sCrBlL3gSD1TK4o8zXA-1" source="9sCrBlL3gSD1TK4o8zXA-21" target="9sCrBlL3gSD1TK4o8zXA-37" edge="1">
          <mxGeometry width="50" height="50" relative="1" as="geometry">
            <mxPoint x="600" y="390" as="sourcePoint" />
            <mxPoint x="650" y="340" as="targetPoint" />
            <Array as="points">
              <mxPoint x="710" y="240" />
              <mxPoint x="820" y="240" />
              <mxPoint x="820" y="430" />
              <mxPoint x="770" y="430" />
            </Array>
          </mxGeometry>
        </mxCell>
        <mxCell id="9sCrBlL3gSD1TK4o8zXA-46" value="" style="endArrow=classic;html=1;rounded=0;fontSize=12;startSize=8;endSize=8;fillColor=#eeeeee;strokeColor=#36393d;exitX=0.5;exitY=1;exitDx=0;exitDy=0;entryX=0.5;entryY=0;entryDx=0;entryDy=0;edgeStyle=orthogonalEdgeStyle;movable=1;resizable=1;rotatable=1;deletable=1;editable=1;locked=0;connectable=1;" parent="9sCrBlL3gSD1TK4o8zXA-1" source="9sCrBlL3gSD1TK4o8zXA-23" target="9sCrBlL3gSD1TK4o8zXA-36" edge="1">
          <mxGeometry width="50" height="50" relative="1" as="geometry">
            <mxPoint x="700" y="230" as="sourcePoint" />
            <mxPoint x="640" y="190" as="targetPoint" />
          </mxGeometry>
        </mxCell>
        <mxCell id="9sCrBlL3gSD1TK4o8zXA-47" value="" style="endArrow=classic;html=1;rounded=0;fontSize=12;startSize=8;endSize=8;fillColor=#eeeeee;strokeColor=#36393d;exitX=0.5;exitY=1;exitDx=0;exitDy=0;entryX=0.5;entryY=0;entryDx=0;entryDy=0;edgeStyle=orthogonalEdgeStyle;movable=1;resizable=1;rotatable=1;deletable=1;editable=1;locked=0;connectable=1;" parent="9sCrBlL3gSD1TK4o8zXA-1" source="9sCrBlL3gSD1TK4o8zXA-9" target="9sCrBlL3gSD1TK4o8zXA-36" edge="1">
          <mxGeometry width="50" height="50" relative="1" as="geometry">
            <mxPoint x="700" y="230" as="sourcePoint" />
            <mxPoint x="640" y="190" as="targetPoint" />
          </mxGeometry>
        </mxCell>
        <mxCell id="9sCrBlL3gSD1TK4o8zXA-48" value="" style="endArrow=classic;html=1;rounded=0;fontSize=12;startSize=8;endSize=8;fillColor=#eeeeee;strokeColor=#36393d;exitX=0.5;exitY=0;exitDx=0;exitDy=0;edgeStyle=orthogonalEdgeStyle;entryX=0.5;entryY=1;entryDx=0;entryDy=0;movable=1;resizable=1;rotatable=1;deletable=1;editable=1;locked=0;connectable=1;" parent="9sCrBlL3gSD1TK4o8zXA-1" source="9sCrBlL3gSD1TK4o8zXA-23" target="9sCrBlL3gSD1TK4o8zXA-39" edge="1">
          <mxGeometry width="50" height="50" relative="1" as="geometry">
            <mxPoint x="840" y="440" as="sourcePoint" />
            <mxPoint x="570" y="340" as="targetPoint" />
            <Array as="points">
              <mxPoint x="710" y="250" />
              <mxPoint x="600" y="250" />
              <mxPoint x="600" y="430" />
              <mxPoint x="420" y="430" />
            </Array>
          </mxGeometry>
        </mxCell>
        <mxCell id="9sCrBlL3gSD1TK4o8zXA-49" value="" style="endArrow=classic;html=1;rounded=0;fontSize=12;startSize=8;endSize=8;fillColor=#eeeeee;strokeColor=#36393d;exitX=0.5;exitY=1;exitDx=0;exitDy=0;entryX=0.5;entryY=0;entryDx=0;entryDy=0;edgeStyle=orthogonalEdgeStyle;movable=1;resizable=1;rotatable=1;deletable=1;editable=1;locked=0;connectable=1;" parent="9sCrBlL3gSD1TK4o8zXA-1" source="9sCrBlL3gSD1TK4o8zXA-19" target="9sCrBlL3gSD1TK4o8zXA-40" edge="1">
          <mxGeometry width="50" height="50" relative="1" as="geometry">
            <mxPoint x="569.97" y="310" as="sourcePoint" />
            <mxPoint x="649.97" y="350" as="targetPoint" />
          </mxGeometry>
        </mxCell>
        <mxCell id="9sCrBlL3gSD1TK4o8zXA-50" value="" style="endArrow=classic;html=1;rounded=0;fontSize=12;startSize=8;endSize=8;fillColor=#eeeeee;strokeColor=#36393d;exitX=0.5;exitY=1;exitDx=0;exitDy=0;entryX=0.5;entryY=0;entryDx=0;entryDy=0;edgeStyle=orthogonalEdgeStyle;movable=1;resizable=1;rotatable=1;deletable=1;editable=1;locked=0;connectable=1;" parent="9sCrBlL3gSD1TK4o8zXA-1" source="9sCrBlL3gSD1TK4o8zXA-8" target="9sCrBlL3gSD1TK4o8zXA-40" edge="1">
          <mxGeometry width="50" height="50" relative="1" as="geometry">
            <mxPoint x="569.97" y="310" as="sourcePoint" />
            <mxPoint x="649.97" y="350" as="targetPoint" />
          </mxGeometry>
        </mxCell>
        <mxCell id="9sCrBlL3gSD1TK4o8zXA-51" value="" style="endArrow=classic;html=1;rounded=0;fontSize=12;startSize=8;endSize=8;fillColor=#eeeeee;strokeColor=#36393d;exitX=0.5;exitY=0;exitDx=0;exitDy=0;entryX=0.5;entryY=0;entryDx=0;entryDy=0;edgeStyle=orthogonalEdgeStyle;movable=1;resizable=1;rotatable=1;deletable=1;editable=1;locked=0;connectable=1;" parent="9sCrBlL3gSD1TK4o8zXA-1" source="9sCrBlL3gSD1TK4o8zXA-19" target="9sCrBlL3gSD1TK4o8zXA-30" edge="1">
          <mxGeometry width="50" height="50" relative="1" as="geometry">
            <mxPoint x="569.97" y="430" as="sourcePoint" />
            <mxPoint x="649.97" y="470" as="targetPoint" />
            <Array as="points">
              <mxPoint x="480" y="250" />
              <mxPoint x="370" y="250" />
              <mxPoint x="370" y="60" />
              <mxPoint x="460" y="60" />
            </Array>
          </mxGeometry>
        </mxCell>
        <mxCell id="9sCrBlL3gSD1TK4o8zXA-52" value="" style="endArrow=classic;html=1;rounded=0;fontSize=12;startSize=8;endSize=8;fillColor=#eeeeee;strokeColor=#36393d;exitX=0.5;exitY=0;exitDx=0;exitDy=0;entryX=0.5;entryY=1;entryDx=0;entryDy=0;edgeStyle=orthogonalEdgeStyle;movable=1;resizable=1;rotatable=1;deletable=1;editable=1;locked=0;connectable=1;" parent="9sCrBlL3gSD1TK4o8zXA-1" source="9sCrBlL3gSD1TK4o8zXA-6" target="9sCrBlL3gSD1TK4o8zXA-31" edge="1">
          <mxGeometry width="50" height="50" relative="1" as="geometry">
            <mxPoint x="600" y="400" as="sourcePoint" />
            <mxPoint x="650" y="350" as="targetPoint" />
          </mxGeometry>
        </mxCell>
      </root>
    </mxGraphModel>
  </diagram>
  <diagram name="第 4 页" id="FeOZcw-4VMPaItUG6iWj">
    <mxGraphModel dx="1042" dy="678" grid="1" gridSize="10" guides="1" tooltips="1" connect="1" arrows="1" fold="1" page="0" pageScale="1" pageWidth="1654" pageHeight="1169" math="1" shadow="0">
      <root>
        <mxCell id="J7giPwpc2K3FUEKiY6fm-0" />
        <mxCell id="J7giPwpc2K3FUEKiY6fm-1" parent="J7giPwpc2K3FUEKiY6fm-0" />
        <mxCell id="h8HtoyLkeQIVHQ0p2-RR-0" value="" style="rounded=0;whiteSpace=wrap;html=1;strokeColor=none;" vertex="1" parent="J7giPwpc2K3FUEKiY6fm-1">
          <mxGeometry x="350" y="40" width="490" height="410" as="geometry" />
        </mxCell>
        <mxCell id="J7giPwpc2K3FUEKiY6fm-2" value="" style="rounded=1;whiteSpace=wrap;html=1;fillColor=#eeeeee;strokeColor=#36393d;movable=1;resizable=1;rotatable=1;deletable=1;editable=1;locked=0;connectable=1;" parent="J7giPwpc2K3FUEKiY6fm-1" vertex="1">
          <mxGeometry x="380" y="260" width="200" height="160" as="geometry" />
        </mxCell>
        <mxCell id="J7giPwpc2K3FUEKiY6fm-3" value="" style="rounded=1;whiteSpace=wrap;html=1;fillColor=#eeeeee;strokeColor=#36393d;movable=1;resizable=1;rotatable=1;deletable=1;editable=1;locked=0;connectable=1;" parent="J7giPwpc2K3FUEKiY6fm-1" vertex="1">
          <mxGeometry x="610" y="260" width="200" height="160" as="geometry" />
        </mxCell>
        <mxCell id="J7giPwpc2K3FUEKiY6fm-4" value="" style="rounded=1;whiteSpace=wrap;html=1;fillColor=#eeeeee;strokeColor=#36393d;movable=1;resizable=1;rotatable=1;deletable=1;editable=1;locked=0;connectable=1;" parent="J7giPwpc2K3FUEKiY6fm-1" vertex="1">
          <mxGeometry x="610" y="70" width="200" height="160" as="geometry" />
        </mxCell>
        <mxCell id="J7giPwpc2K3FUEKiY6fm-5" value="" style="rounded=1;whiteSpace=wrap;html=1;fillColor=#eeeeee;strokeColor=#36393d;movable=1;resizable=1;rotatable=1;deletable=1;editable=1;locked=0;connectable=1;" parent="J7giPwpc2K3FUEKiY6fm-1" vertex="1">
          <mxGeometry x="380" y="70" width="200" height="160" as="geometry" />
        </mxCell>
        <mxCell id="J7giPwpc2K3FUEKiY6fm-6" value="\( Q_0 \)" style="rounded=0;whiteSpace=wrap;html=1;fillColor=#ffcc99;strokeColor=#36393d;movable=1;resizable=1;rotatable=1;deletable=1;editable=1;locked=0;connectable=1;" parent="J7giPwpc2K3FUEKiY6fm-1" vertex="1">
          <mxGeometry x="400" y="170" width="40" height="40" as="geometry" />
        </mxCell>
        <mxCell id="J7giPwpc2K3FUEKiY6fm-7" value="\( Q_1 \)" style="rounded=0;whiteSpace=wrap;html=1;fillColor=#cce5ff;strokeColor=#36393d;movable=1;resizable=1;rotatable=1;deletable=1;editable=1;locked=0;connectable=1;" parent="J7giPwpc2K3FUEKiY6fm-1" vertex="1">
          <mxGeometry x="630" y="170" width="40" height="40" as="geometry" />
        </mxCell>
        <mxCell id="J7giPwpc2K3FUEKiY6fm-8" value="\( Q_3 \)" style="rounded=0;whiteSpace=wrap;html=1;fillColor=#ffcccc;strokeColor=#36393d;movable=1;resizable=1;rotatable=1;deletable=1;editable=1;locked=0;connectable=1;" parent="J7giPwpc2K3FUEKiY6fm-1" vertex="1">
          <mxGeometry x="400" y="280" width="40" height="40" as="geometry" />
        </mxCell>
        <mxCell id="J7giPwpc2K3FUEKiY6fm-9" value="\( Q_2 \)" style="rounded=0;whiteSpace=wrap;html=1;fillColor=#cdeb8b;strokeColor=#36393d;movable=1;resizable=1;rotatable=1;deletable=1;editable=1;locked=0;connectable=1;" parent="J7giPwpc2K3FUEKiY6fm-1" vertex="1">
          <mxGeometry x="630" y="280" width="40" height="40" as="geometry" />
        </mxCell>
        <mxCell id="J7giPwpc2K3FUEKiY6fm-17" value="\( K_1 \)" style="rounded=0;whiteSpace=wrap;html=1;fillColor=#cce5ff;strokeColor=#36393d;movable=1;resizable=1;rotatable=1;deletable=1;editable=1;locked=0;connectable=1;" parent="J7giPwpc2K3FUEKiY6fm-1" vertex="1">
          <mxGeometry x="460" y="170" width="40" height="40" as="geometry" />
        </mxCell>
        <mxCell id="J7giPwpc2K3FUEKiY6fm-18" value="\( V_0 \)" style="rounded=0;whiteSpace=wrap;html=1;fillColor=#ffcc99;strokeColor=#36393d;movable=1;resizable=1;rotatable=1;deletable=1;editable=1;locked=0;connectable=1;" parent="J7giPwpc2K3FUEKiY6fm-1" vertex="1">
          <mxGeometry x="520" y="170" width="40" height="40" as="geometry" />
        </mxCell>
        <mxCell id="J7giPwpc2K3FUEKiY6fm-19" value="\( K_0 \)" style="rounded=0;whiteSpace=wrap;html=1;fillColor=#ffcc99;strokeColor=#36393d;movable=1;resizable=1;rotatable=1;deletable=1;editable=1;locked=0;connectable=1;" parent="J7giPwpc2K3FUEKiY6fm-1" vertex="1">
          <mxGeometry x="460" y="280" width="40" height="40" as="geometry" />
        </mxCell>
        <mxCell id="J7giPwpc2K3FUEKiY6fm-20" value="\( V_3 \)" style="rounded=0;whiteSpace=wrap;html=1;fillColor=#ffcccc;strokeColor=#36393d;movable=1;resizable=1;rotatable=1;deletable=1;editable=1;locked=0;connectable=1;" parent="J7giPwpc2K3FUEKiY6fm-1" vertex="1">
          <mxGeometry x="520" y="280" width="40" height="40" as="geometry" />
        </mxCell>
        <mxCell id="J7giPwpc2K3FUEKiY6fm-21" value="\( K_2 \)" style="rounded=0;whiteSpace=wrap;html=1;fillColor=#cdeb8b;strokeColor=#36393d;movable=1;resizable=1;rotatable=1;deletable=1;editable=1;locked=0;connectable=1;" parent="J7giPwpc2K3FUEKiY6fm-1" vertex="1">
          <mxGeometry x="690" y="170" width="40" height="40" as="geometry" />
        </mxCell>
        <mxCell id="J7giPwpc2K3FUEKiY6fm-22" value="\( V_1 \)" style="rounded=0;whiteSpace=wrap;html=1;fillColor=#cce5ff;strokeColor=#36393d;movable=1;resizable=1;rotatable=1;deletable=1;editable=1;locked=0;connectable=1;" parent="J7giPwpc2K3FUEKiY6fm-1" vertex="1">
          <mxGeometry x="750" y="170" width="40" height="40" as="geometry" />
        </mxCell>
        <mxCell id="J7giPwpc2K3FUEKiY6fm-23" value="\( K_3 \)" style="rounded=0;whiteSpace=wrap;html=1;fillColor=#ffcccc;strokeColor=#36393d;movable=1;resizable=1;rotatable=1;deletable=1;editable=1;locked=0;connectable=1;" parent="J7giPwpc2K3FUEKiY6fm-1" vertex="1">
          <mxGeometry x="690" y="280" width="40" height="40" as="geometry" />
        </mxCell>
        <mxCell id="J7giPwpc2K3FUEKiY6fm-24" value="\( V_2 \)" style="rounded=0;whiteSpace=wrap;html=1;fillColor=#cdeb8b;strokeColor=#36393d;movable=1;resizable=1;rotatable=1;deletable=1;editable=1;locked=0;connectable=1;" parent="J7giPwpc2K3FUEKiY6fm-1" vertex="1">
          <mxGeometry x="750" y="280" width="40" height="40" as="geometry" />
        </mxCell>
        <mxCell id="J7giPwpc2K3FUEKiY6fm-25" value="\( Q_0 K_0^{\top} \)" style="whiteSpace=wrap;html=1;aspect=fixed;fillColor=#ffcc99;strokeColor=#36393d;movable=1;resizable=1;rotatable=1;deletable=1;editable=1;locked=0;connectable=1;" parent="J7giPwpc2K3FUEKiY6fm-1" vertex="1">
          <mxGeometry x="400" y="90" width="40" height="40" as="geometry" />
        </mxCell>
        <mxCell id="J7giPwpc2K3FUEKiY6fm-26" value="\( Q_1 K_1^{\top} \)" style="whiteSpace=wrap;html=1;aspect=fixed;fillColor=#cce5ff;strokeColor=#36393d;movable=1;resizable=1;rotatable=1;deletable=1;editable=1;locked=0;connectable=1;" parent="J7giPwpc2K3FUEKiY6fm-1" vertex="1">
          <mxGeometry x="670" y="90" width="40" height="40" as="geometry" />
        </mxCell>
        <mxCell id="J7giPwpc2K3FUEKiY6fm-27" value="\( Q_2 K_2^{\top} \)" style="whiteSpace=wrap;html=1;aspect=fixed;fillColor=#cdeb8b;strokeColor=#36393d;movable=1;resizable=1;rotatable=1;deletable=1;editable=1;locked=0;connectable=1;" parent="J7giPwpc2K3FUEKiY6fm-1" vertex="1">
          <mxGeometry x="710" y="360" width="40" height="40" as="geometry" />
        </mxCell>
        <mxCell id="J7giPwpc2K3FUEKiY6fm-28" value="\( Q_3 K_3^{\top} \)" style="whiteSpace=wrap;html=1;aspect=fixed;fillColor=#ffcccc;strokeColor=#36393d;movable=1;resizable=1;rotatable=1;deletable=1;editable=1;locked=0;connectable=1;" parent="J7giPwpc2K3FUEKiY6fm-1" vertex="1">
          <mxGeometry x="520" y="360" width="40" height="40" as="geometry" />
        </mxCell>
        <mxCell id="J7giPwpc2K3FUEKiY6fm-29" value="\( Q_0 K_3^{\top} \)" style="whiteSpace=wrap;html=1;aspect=fixed;fillColor=#ffcc99;strokeColor=#36393d;movable=1;resizable=1;rotatable=1;deletable=1;editable=1;locked=0;connectable=1;" parent="J7giPwpc2K3FUEKiY6fm-1" vertex="1">
          <mxGeometry x="520" y="90" width="40" height="40" as="geometry" />
        </mxCell>
        <mxCell id="J7giPwpc2K3FUEKiY6fm-30" value="\( Q_0 K_1^{\top} \)" style="whiteSpace=wrap;html=1;aspect=fixed;movable=1;resizable=1;rotatable=1;deletable=1;editable=1;locked=0;connectable=1;fillColor=#ffcc99;strokeColor=#36393d;" parent="J7giPwpc2K3FUEKiY6fm-1" vertex="1">
          <mxGeometry x="440" y="90" width="40" height="40" as="geometry" />
        </mxCell>
        <mxCell id="J7giPwpc2K3FUEKiY6fm-31" value="\( Q_0 K_2^{\top} \)" style="whiteSpace=wrap;html=1;aspect=fixed;movable=1;resizable=1;rotatable=1;deletable=1;editable=1;locked=0;connectable=1;fillColor=#ffcc99;strokeColor=#36393d;" parent="J7giPwpc2K3FUEKiY6fm-1" vertex="1">
          <mxGeometry x="480" y="90" width="40" height="40" as="geometry" />
        </mxCell>
        <mxCell id="J7giPwpc2K3FUEKiY6fm-32" value="\( Q_1 K_2^{\top} \)" style="whiteSpace=wrap;html=1;aspect=fixed;movable=1;resizable=1;rotatable=1;deletable=1;editable=1;locked=0;connectable=1;fillColor=#cce5ff;strokeColor=#36393d;" parent="J7giPwpc2K3FUEKiY6fm-1" vertex="1">
          <mxGeometry x="710" y="90" width="40" height="40" as="geometry" />
        </mxCell>
        <mxCell id="J7giPwpc2K3FUEKiY6fm-33" value="\( Q_1 K_3^{\top} \)" style="whiteSpace=wrap;html=1;aspect=fixed;movable=1;resizable=1;rotatable=1;deletable=1;editable=1;locked=0;connectable=1;fillColor=#cce5ff;strokeColor=#36393d;" parent="J7giPwpc2K3FUEKiY6fm-1" vertex="1">
          <mxGeometry x="750" y="90" width="40" height="40" as="geometry" />
        </mxCell>
        <mxCell id="J7giPwpc2K3FUEKiY6fm-34" value="\( Q_1 K_0^{\top} \)" style="rounded=0;whiteSpace=wrap;html=1;fillColor=#cce5ff;strokeColor=#36393d;movable=1;resizable=1;rotatable=1;deletable=1;editable=1;locked=0;connectable=1;" parent="J7giPwpc2K3FUEKiY6fm-1" vertex="1">
          <mxGeometry x="630" y="90" width="40" height="40" as="geometry" />
        </mxCell>
        <mxCell id="J7giPwpc2K3FUEKiY6fm-35" value="\( Q_2 K_1^{\top} \)" style="rounded=0;whiteSpace=wrap;html=1;fillColor=#cdeb8b;strokeColor=#36393d;movable=1;resizable=1;rotatable=1;deletable=1;editable=1;locked=0;connectable=1;" parent="J7giPwpc2K3FUEKiY6fm-1" vertex="1">
          <mxGeometry x="670" y="360" width="40" height="40" as="geometry" />
        </mxCell>
        <mxCell id="J7giPwpc2K3FUEKiY6fm-36" value="\( Q_2 K_0^{\top} \)" style="whiteSpace=wrap;html=1;aspect=fixed;movable=1;resizable=1;rotatable=1;deletable=1;editable=1;locked=0;connectable=1;fillColor=#cdeb8b;strokeColor=#36393d;" parent="J7giPwpc2K3FUEKiY6fm-1" vertex="1">
          <mxGeometry x="630" y="360" width="40" height="40" as="geometry" />
        </mxCell>
        <mxCell id="J7giPwpc2K3FUEKiY6fm-37" value="\( Q_2 K_3^{\top} \)" style="whiteSpace=wrap;html=1;aspect=fixed;movable=1;resizable=1;rotatable=1;deletable=1;editable=1;locked=0;connectable=1;fillColor=#cdeb8b;strokeColor=#36393d;" parent="J7giPwpc2K3FUEKiY6fm-1" vertex="1">
          <mxGeometry x="750" y="360" width="40" height="40" as="geometry" />
        </mxCell>
        <mxCell id="J7giPwpc2K3FUEKiY6fm-38" value="\( Q_3 K_2^{\top} \)" style="rounded=0;whiteSpace=wrap;html=1;fillColor=#ffcccc;strokeColor=#36393d;movable=1;resizable=1;rotatable=1;deletable=1;editable=1;locked=0;connectable=1;" parent="J7giPwpc2K3FUEKiY6fm-1" vertex="1">
          <mxGeometry x="480" y="360" width="40" height="40" as="geometry" />
        </mxCell>
        <mxCell id="J7giPwpc2K3FUEKiY6fm-39" value="\( Q_3 K_0^{\top} \)" style="whiteSpace=wrap;html=1;aspect=fixed;movable=1;resizable=1;rotatable=1;deletable=1;editable=1;locked=0;connectable=1;fillColor=#ffcccc;strokeColor=#36393d;" parent="J7giPwpc2K3FUEKiY6fm-1" vertex="1">
          <mxGeometry x="400" y="360" width="40" height="40" as="geometry" />
        </mxCell>
        <mxCell id="J7giPwpc2K3FUEKiY6fm-40" value="\( Q_3 K_1^{\top} \)" style="whiteSpace=wrap;html=1;aspect=fixed;movable=1;resizable=1;rotatable=1;deletable=1;editable=1;locked=0;connectable=1;fillColor=#ffcccc;strokeColor=#36393d;" parent="J7giPwpc2K3FUEKiY6fm-1" vertex="1">
          <mxGeometry x="440" y="360" width="40" height="40" as="geometry" />
        </mxCell>
        <mxCell id="J7giPwpc2K3FUEKiY6fm-41" value="" style="endArrow=classic;html=1;rounded=0;fontSize=12;startSize=8;endSize=8;fillColor=#eeeeee;strokeColor=#36393d;exitX=0.5;exitY=0;exitDx=0;exitDy=0;entryX=0.5;entryY=1;entryDx=0;entryDy=0;edgeStyle=orthogonalEdgeStyle;movable=1;resizable=1;rotatable=1;deletable=1;editable=1;locked=0;connectable=1;" parent="J7giPwpc2K3FUEKiY6fm-1" source="J7giPwpc2K3FUEKiY6fm-17" target="J7giPwpc2K3FUEKiY6fm-30" edge="1">
          <mxGeometry width="50" height="50" relative="1" as="geometry">
            <mxPoint x="600" y="400" as="sourcePoint" />
            <mxPoint x="650" y="350" as="targetPoint" />
          </mxGeometry>
        </mxCell>
        <mxCell id="J7giPwpc2K3FUEKiY6fm-43" value="" style="endArrow=classic;html=1;rounded=0;fontSize=12;startSize=8;endSize=8;fillColor=#eeeeee;strokeColor=#36393d;exitX=0.5;exitY=0;exitDx=0;exitDy=0;entryX=0.5;entryY=1;entryDx=0;entryDy=0;edgeStyle=orthogonalEdgeStyle;movable=1;resizable=1;rotatable=1;deletable=1;editable=1;locked=0;connectable=1;" parent="J7giPwpc2K3FUEKiY6fm-1" source="J7giPwpc2K3FUEKiY6fm-21" target="J7giPwpc2K3FUEKiY6fm-32" edge="1">
          <mxGeometry width="50" height="50" relative="1" as="geometry">
            <mxPoint x="470" y="400" as="sourcePoint" />
            <mxPoint x="520" y="350" as="targetPoint" />
          </mxGeometry>
        </mxCell>
        <mxCell id="J7giPwpc2K3FUEKiY6fm-44" value="" style="endArrow=classic;html=1;rounded=0;fontSize=12;startSize=8;endSize=8;fillColor=#eeeeee;strokeColor=#36393d;exitX=0.5;exitY=0;exitDx=0;exitDy=0;entryX=0.5;entryY=1;entryDx=0;entryDy=0;edgeStyle=orthogonalEdgeStyle;movable=1;resizable=1;rotatable=1;deletable=1;editable=1;locked=0;connectable=1;" parent="J7giPwpc2K3FUEKiY6fm-1" source="J7giPwpc2K3FUEKiY6fm-7" target="J7giPwpc2K3FUEKiY6fm-32" edge="1">
          <mxGeometry width="50" height="50" relative="1" as="geometry">
            <mxPoint x="470" y="400" as="sourcePoint" />
            <mxPoint x="520" y="350" as="targetPoint" />
          </mxGeometry>
        </mxCell>
        <mxCell id="J7giPwpc2K3FUEKiY6fm-46" value="" style="endArrow=classic;html=1;rounded=0;fontSize=12;startSize=8;endSize=8;fillColor=#eeeeee;strokeColor=#36393d;exitX=0.5;exitY=1;exitDx=0;exitDy=0;entryX=0.5;entryY=0;entryDx=0;entryDy=0;edgeStyle=orthogonalEdgeStyle;movable=1;resizable=1;rotatable=1;deletable=1;editable=1;locked=0;connectable=1;" parent="J7giPwpc2K3FUEKiY6fm-1" source="J7giPwpc2K3FUEKiY6fm-23" target="J7giPwpc2K3FUEKiY6fm-37" edge="1">
          <mxGeometry width="50" height="50" relative="1" as="geometry">
            <mxPoint x="700" y="230" as="sourcePoint" />
            <mxPoint x="640" y="190" as="targetPoint" />
          </mxGeometry>
        </mxCell>
        <mxCell id="J7giPwpc2K3FUEKiY6fm-47" value="" style="endArrow=classic;html=1;rounded=0;fontSize=12;startSize=8;endSize=8;fillColor=#eeeeee;strokeColor=#36393d;exitX=0.5;exitY=1;exitDx=0;exitDy=0;entryX=0.5;entryY=0;entryDx=0;entryDy=0;edgeStyle=orthogonalEdgeStyle;movable=1;resizable=1;rotatable=1;deletable=1;editable=1;locked=0;connectable=1;" parent="J7giPwpc2K3FUEKiY6fm-1" source="J7giPwpc2K3FUEKiY6fm-9" target="J7giPwpc2K3FUEKiY6fm-37" edge="1">
          <mxGeometry width="50" height="50" relative="1" as="geometry">
            <mxPoint x="700" y="230" as="sourcePoint" />
            <mxPoint x="640" y="190" as="targetPoint" />
          </mxGeometry>
        </mxCell>
        <mxCell id="J7giPwpc2K3FUEKiY6fm-49" value="" style="endArrow=classic;html=1;rounded=0;fontSize=12;startSize=8;endSize=8;fillColor=#eeeeee;strokeColor=#36393d;exitX=0.5;exitY=1;exitDx=0;exitDy=0;entryX=0.5;entryY=0;entryDx=0;entryDy=0;edgeStyle=orthogonalEdgeStyle;movable=1;resizable=1;rotatable=1;deletable=1;editable=1;locked=0;connectable=1;" parent="J7giPwpc2K3FUEKiY6fm-1" source="J7giPwpc2K3FUEKiY6fm-19" target="J7giPwpc2K3FUEKiY6fm-39" edge="1">
          <mxGeometry width="50" height="50" relative="1" as="geometry">
            <mxPoint x="569.97" y="310" as="sourcePoint" />
            <mxPoint x="649.97" y="350" as="targetPoint" />
          </mxGeometry>
        </mxCell>
        <mxCell id="J7giPwpc2K3FUEKiY6fm-50" value="" style="endArrow=classic;html=1;rounded=0;fontSize=12;startSize=8;endSize=8;fillColor=#eeeeee;strokeColor=#36393d;exitX=0.5;exitY=1;exitDx=0;exitDy=0;entryX=0.5;entryY=0;entryDx=0;entryDy=0;edgeStyle=orthogonalEdgeStyle;movable=1;resizable=1;rotatable=1;deletable=1;editable=1;locked=0;connectable=1;" parent="J7giPwpc2K3FUEKiY6fm-1" source="J7giPwpc2K3FUEKiY6fm-8" target="J7giPwpc2K3FUEKiY6fm-39" edge="1">
          <mxGeometry width="50" height="50" relative="1" as="geometry">
            <mxPoint x="569.97" y="310" as="sourcePoint" />
            <mxPoint x="649.97" y="350" as="targetPoint" />
          </mxGeometry>
        </mxCell>
        <mxCell id="J7giPwpc2K3FUEKiY6fm-52" value="" style="endArrow=classic;html=1;rounded=0;fontSize=12;startSize=8;endSize=8;fillColor=#eeeeee;strokeColor=#36393d;exitX=0.5;exitY=0;exitDx=0;exitDy=0;entryX=0.5;entryY=1;entryDx=0;entryDy=0;edgeStyle=orthogonalEdgeStyle;movable=1;resizable=1;rotatable=1;deletable=1;editable=1;locked=0;connectable=1;" parent="J7giPwpc2K3FUEKiY6fm-1" source="J7giPwpc2K3FUEKiY6fm-6" target="J7giPwpc2K3FUEKiY6fm-30" edge="1">
          <mxGeometry width="50" height="50" relative="1" as="geometry">
            <mxPoint x="600" y="400" as="sourcePoint" />
            <mxPoint x="650" y="350" as="targetPoint" />
          </mxGeometry>
        </mxCell>
      </root>
    </mxGraphModel>
  </diagram>
  <diagram name="第 5 页" id="Y_I6I50VOn5DRTNNLOoe">
    <mxGraphModel dx="1042" dy="678" grid="1" gridSize="10" guides="1" tooltips="1" connect="1" arrows="1" fold="1" page="0" pageScale="1" pageWidth="1654" pageHeight="1169" math="1" shadow="0">
      <root>
        <mxCell id="j-SuUQY0s0xPuzts3Icx-0" />
        <mxCell id="j-SuUQY0s0xPuzts3Icx-1" parent="j-SuUQY0s0xPuzts3Icx-0" />
        <mxCell id="wXi_g0CcmpNaK67JP-_7-0" value="" style="rounded=0;whiteSpace=wrap;html=1;strokeColor=none;" vertex="1" parent="j-SuUQY0s0xPuzts3Icx-1">
          <mxGeometry x="350" y="40" width="490" height="410" as="geometry" />
        </mxCell>
        <mxCell id="j-SuUQY0s0xPuzts3Icx-2" value="" style="rounded=1;whiteSpace=wrap;html=1;fillColor=#eeeeee;strokeColor=#36393d;movable=1;resizable=1;rotatable=1;deletable=1;editable=1;locked=0;connectable=1;" parent="j-SuUQY0s0xPuzts3Icx-1" vertex="1">
          <mxGeometry x="380" y="260" width="200" height="160" as="geometry" />
        </mxCell>
        <mxCell id="j-SuUQY0s0xPuzts3Icx-3" value="" style="rounded=1;whiteSpace=wrap;html=1;fillColor=#eeeeee;strokeColor=#36393d;movable=1;resizable=1;rotatable=1;deletable=1;editable=1;locked=0;connectable=1;" parent="j-SuUQY0s0xPuzts3Icx-1" vertex="1">
          <mxGeometry x="610" y="260" width="200" height="160" as="geometry" />
        </mxCell>
        <mxCell id="j-SuUQY0s0xPuzts3Icx-4" value="" style="rounded=1;whiteSpace=wrap;html=1;fillColor=#eeeeee;strokeColor=#36393d;movable=1;resizable=1;rotatable=1;deletable=1;editable=1;locked=0;connectable=1;" parent="j-SuUQY0s0xPuzts3Icx-1" vertex="1">
          <mxGeometry x="610" y="70" width="200" height="160" as="geometry" />
        </mxCell>
        <mxCell id="j-SuUQY0s0xPuzts3Icx-5" value="" style="rounded=1;whiteSpace=wrap;html=1;fillColor=#eeeeee;strokeColor=#36393d;movable=1;resizable=1;rotatable=1;deletable=1;editable=1;locked=0;connectable=1;" parent="j-SuUQY0s0xPuzts3Icx-1" vertex="1">
          <mxGeometry x="380" y="70" width="200" height="160" as="geometry" />
        </mxCell>
        <mxCell id="j-SuUQY0s0xPuzts3Icx-6" value="\( \operatorname{Softmax} (\dfrac{Q_0 K^{\top}}{\sqrt{d}}) \)" style="rounded=0;whiteSpace=wrap;html=1;fillColor=#ffcc99;strokeColor=#36393d;movable=1;resizable=1;rotatable=1;deletable=1;editable=1;locked=0;connectable=1;" parent="j-SuUQY0s0xPuzts3Icx-1" vertex="1">
          <mxGeometry x="400" y="90" width="160" height="40" as="geometry" />
        </mxCell>
        <mxCell id="j-SuUQY0s0xPuzts3Icx-8" value="\( S_3 \)" style="rounded=0;whiteSpace=wrap;html=1;fillColor=#ffcccc;strokeColor=#36393d;movable=1;resizable=1;rotatable=1;deletable=1;editable=1;locked=0;connectable=1;" parent="j-SuUQY0s0xPuzts3Icx-1" vertex="1">
          <mxGeometry x="400" y="280" width="40" height="40" as="geometry" />
        </mxCell>
        <mxCell id="j-SuUQY0s0xPuzts3Icx-9" value="\( S_2 \)" style="rounded=0;whiteSpace=wrap;html=1;fillColor=#cdeb8b;strokeColor=#36393d;movable=1;resizable=1;rotatable=1;deletable=1;editable=1;locked=0;connectable=1;" parent="j-SuUQY0s0xPuzts3Icx-1" vertex="1">
          <mxGeometry x="630" y="280" width="40" height="40" as="geometry" />
        </mxCell>
        <mxCell id="j-SuUQY0s0xPuzts3Icx-18" value="\( V_0 \)" style="rounded=0;whiteSpace=wrap;html=1;fillColor=#ffcc99;strokeColor=#36393d;movable=1;resizable=1;rotatable=1;deletable=1;editable=1;locked=0;connectable=1;" parent="j-SuUQY0s0xPuzts3Icx-1" vertex="1">
          <mxGeometry x="520" y="170" width="40" height="40" as="geometry" />
        </mxCell>
        <mxCell id="j-SuUQY0s0xPuzts3Icx-20" value="\( V_3 \)" style="rounded=0;whiteSpace=wrap;html=1;fillColor=#ffcccc;strokeColor=#36393d;movable=1;resizable=1;rotatable=1;deletable=1;editable=1;locked=0;connectable=1;" parent="j-SuUQY0s0xPuzts3Icx-1" vertex="1">
          <mxGeometry x="520" y="280" width="40" height="40" as="geometry" />
        </mxCell>
        <mxCell id="j-SuUQY0s0xPuzts3Icx-22" value="\( V_1 \)" style="rounded=0;whiteSpace=wrap;html=1;fillColor=#cce5ff;strokeColor=#36393d;movable=1;resizable=1;rotatable=1;deletable=1;editable=1;locked=0;connectable=1;" parent="j-SuUQY0s0xPuzts3Icx-1" vertex="1">
          <mxGeometry x="750" y="170" width="40" height="40" as="geometry" />
        </mxCell>
        <mxCell id="j-SuUQY0s0xPuzts3Icx-24" value="\( V_2 \)" style="rounded=0;whiteSpace=wrap;html=1;fillColor=#cdeb8b;strokeColor=#36393d;movable=1;resizable=1;rotatable=1;deletable=1;editable=1;locked=0;connectable=1;" parent="j-SuUQY0s0xPuzts3Icx-1" vertex="1">
          <mxGeometry x="750" y="280" width="40" height="40" as="geometry" />
        </mxCell>
        <mxCell id="j-SuUQY0s0xPuzts3Icx-48" value="" style="endArrow=classic;html=1;rounded=0;fontSize=12;startSize=8;endSize=8;fillColor=#eeeeee;strokeColor=#36393d;exitX=0.5;exitY=1;exitDx=0;exitDy=0;entryX=0.5;entryY=0;entryDx=0;entryDy=0;edgeStyle=orthogonalEdgeStyle;movable=1;resizable=1;rotatable=1;deletable=1;editable=1;locked=0;connectable=1;" parent="j-SuUQY0s0xPuzts3Icx-1" source="j-SuUQY0s0xPuzts3Icx-6" target="5ykR5yMu99zMGZszkui8-0" edge="1">
          <mxGeometry width="50" height="50" relative="1" as="geometry">
            <mxPoint x="600" y="400" as="sourcePoint" />
            <mxPoint x="460" y="130" as="targetPoint" />
          </mxGeometry>
        </mxCell>
        <mxCell id="5ykR5yMu99zMGZszkui8-0" value="\( S_0 \)" style="rounded=0;whiteSpace=wrap;html=1;fillColor=#ffcc99;strokeColor=#36393d;movable=1;resizable=1;rotatable=1;deletable=1;editable=1;locked=0;connectable=1;" parent="j-SuUQY0s0xPuzts3Icx-1" vertex="1">
          <mxGeometry x="400" y="170" width="40" height="40" as="geometry" />
        </mxCell>
        <mxCell id="5ykR5yMu99zMGZszkui8-1" value="\( \operatorname{Softmax} (\dfrac{Q_1 K^{\top}}{\sqrt{d}}) \)" style="rounded=0;whiteSpace=wrap;html=1;fillColor=#cce5ff;strokeColor=#36393d;movable=1;resizable=1;rotatable=1;deletable=1;editable=1;locked=0;connectable=1;" parent="j-SuUQY0s0xPuzts3Icx-1" vertex="1">
          <mxGeometry x="630" y="90" width="160" height="40" as="geometry" />
        </mxCell>
        <mxCell id="5ykR5yMu99zMGZszkui8-2" value="\( S_1 \)" style="rounded=0;whiteSpace=wrap;html=1;fillColor=#cce5ff;strokeColor=#36393d;movable=1;resizable=1;rotatable=1;deletable=1;editable=1;locked=0;connectable=1;" parent="j-SuUQY0s0xPuzts3Icx-1" vertex="1">
          <mxGeometry x="630" y="170" width="40" height="40" as="geometry" />
        </mxCell>
        <mxCell id="5ykR5yMu99zMGZszkui8-3" value="" style="endArrow=classic;html=1;rounded=0;fontSize=12;startSize=8;endSize=8;fillColor=#cce5ff;strokeColor=#36393d;exitX=0.5;exitY=1;exitDx=0;exitDy=0;entryX=0.5;entryY=0;entryDx=0;entryDy=0;edgeStyle=orthogonalEdgeStyle;movable=1;resizable=1;rotatable=1;deletable=1;editable=1;locked=0;connectable=1;" parent="j-SuUQY0s0xPuzts3Icx-1" source="5ykR5yMu99zMGZszkui8-1" target="5ykR5yMu99zMGZszkui8-2" edge="1">
          <mxGeometry width="50" height="50" relative="1" as="geometry">
            <mxPoint x="830" y="400" as="sourcePoint" />
            <mxPoint x="690" y="130" as="targetPoint" />
          </mxGeometry>
        </mxCell>
        <mxCell id="5ykR5yMu99zMGZszkui8-5" value="\( \operatorname{Softmax} (\dfrac{Q_2 K^{\top}}{\sqrt{d}}) \)" style="rounded=0;whiteSpace=wrap;html=1;fillColor=#cdeb8b;strokeColor=#36393d;movable=1;resizable=1;rotatable=1;deletable=1;editable=1;locked=0;connectable=1;" parent="j-SuUQY0s0xPuzts3Icx-1" vertex="1">
          <mxGeometry x="630" y="360" width="160" height="40" as="geometry" />
        </mxCell>
        <mxCell id="5ykR5yMu99zMGZszkui8-6" value="" style="endArrow=classic;html=1;rounded=0;fontSize=12;startSize=8;endSize=8;fillColor=#eeeeee;strokeColor=#36393d;exitX=0.5;exitY=0;exitDx=0;exitDy=0;entryX=0.5;entryY=1;entryDx=0;entryDy=0;edgeStyle=orthogonalEdgeStyle;movable=1;resizable=1;rotatable=1;deletable=1;editable=1;locked=0;connectable=1;" parent="j-SuUQY0s0xPuzts3Icx-1" source="5ykR5yMu99zMGZszkui8-5" target="j-SuUQY0s0xPuzts3Icx-9" edge="1">
          <mxGeometry width="50" height="50" relative="1" as="geometry">
            <mxPoint x="890" y="330" as="sourcePoint" />
            <mxPoint x="830" y="370" as="targetPoint" />
          </mxGeometry>
        </mxCell>
        <mxCell id="5ykR5yMu99zMGZszkui8-7" value="\( \operatorname{Softmax} (\dfrac{Q_3 K^{\top}}{\sqrt{d}}) \)" style="rounded=0;whiteSpace=wrap;html=1;fillColor=#ffcccc;strokeColor=#36393d;movable=1;resizable=1;rotatable=1;deletable=1;editable=1;locked=0;connectable=1;" parent="j-SuUQY0s0xPuzts3Icx-1" vertex="1">
          <mxGeometry x="400" y="360" width="160" height="40" as="geometry" />
        </mxCell>
        <mxCell id="5ykR5yMu99zMGZszkui8-8" value="" style="endArrow=classic;html=1;rounded=0;fontSize=12;startSize=8;endSize=8;fillColor=#eeeeee;strokeColor=#36393d;exitX=0.5;exitY=0;exitDx=0;exitDy=0;entryX=0.5;entryY=1;entryDx=0;entryDy=0;edgeStyle=orthogonalEdgeStyle;movable=1;resizable=1;rotatable=1;deletable=1;editable=1;locked=0;connectable=1;" parent="j-SuUQY0s0xPuzts3Icx-1" source="5ykR5yMu99zMGZszkui8-7" target="j-SuUQY0s0xPuzts3Icx-8" edge="1">
          <mxGeometry width="50" height="50" relative="1" as="geometry">
            <mxPoint x="530" y="360" as="sourcePoint" />
            <mxPoint x="470" y="320" as="targetPoint" />
          </mxGeometry>
        </mxCell>
      </root>
    </mxGraphModel>
  </diagram>
  <diagram name="第 6 页" id="3K_ihHnGM4WwSCmgmkWC">
    <mxGraphModel dx="1042" dy="678" grid="1" gridSize="10" guides="1" tooltips="1" connect="1" arrows="1" fold="1" page="0" pageScale="1" pageWidth="1654" pageHeight="1169" math="1" shadow="0">
      <root>
        <mxCell id="r0rk5g-dEoWAehbLgSxW-0" />
        <mxCell id="r0rk5g-dEoWAehbLgSxW-1" parent="r0rk5g-dEoWAehbLgSxW-0" />
        <mxCell id="YgFMOmh8Z_jIN3dHgHka-0" value="" style="rounded=0;whiteSpace=wrap;html=1;strokeColor=none;" vertex="1" parent="r0rk5g-dEoWAehbLgSxW-1">
          <mxGeometry x="350" y="40" width="490" height="410" as="geometry" />
        </mxCell>
        <mxCell id="r0rk5g-dEoWAehbLgSxW-2" value="" style="rounded=1;whiteSpace=wrap;html=1;fillColor=#eeeeee;strokeColor=#36393d;movable=1;resizable=1;rotatable=1;deletable=1;editable=1;locked=0;connectable=1;" parent="r0rk5g-dEoWAehbLgSxW-1" vertex="1">
          <mxGeometry x="380" y="260" width="200" height="160" as="geometry" />
        </mxCell>
        <mxCell id="r0rk5g-dEoWAehbLgSxW-3" value="" style="rounded=1;whiteSpace=wrap;html=1;fillColor=#eeeeee;strokeColor=#36393d;movable=1;resizable=1;rotatable=1;deletable=1;editable=1;locked=0;connectable=1;" parent="r0rk5g-dEoWAehbLgSxW-1" vertex="1">
          <mxGeometry x="610" y="260" width="200" height="160" as="geometry" />
        </mxCell>
        <mxCell id="r0rk5g-dEoWAehbLgSxW-4" value="" style="rounded=1;whiteSpace=wrap;html=1;fillColor=#eeeeee;strokeColor=#36393d;movable=1;resizable=1;rotatable=1;deletable=1;editable=1;locked=0;connectable=1;" parent="r0rk5g-dEoWAehbLgSxW-1" vertex="1">
          <mxGeometry x="610" y="70" width="200" height="160" as="geometry" />
        </mxCell>
        <mxCell id="r0rk5g-dEoWAehbLgSxW-5" value="" style="rounded=1;whiteSpace=wrap;html=1;fillColor=#eeeeee;strokeColor=#36393d;movable=1;resizable=1;rotatable=1;deletable=1;editable=1;locked=0;connectable=1;" parent="r0rk5g-dEoWAehbLgSxW-1" vertex="1">
          <mxGeometry x="380" y="70" width="200" height="160" as="geometry" />
        </mxCell>
        <mxCell id="r0rk5g-dEoWAehbLgSxW-6" value="\( S_0 \)" style="rounded=0;whiteSpace=wrap;html=1;fillColor=#ffcc99;strokeColor=#36393d;movable=1;resizable=1;rotatable=1;deletable=1;editable=1;locked=0;connectable=1;" parent="r0rk5g-dEoWAehbLgSxW-1" vertex="1">
          <mxGeometry x="400" y="170" width="40" height="40" as="geometry" />
        </mxCell>
        <mxCell id="r0rk5g-dEoWAehbLgSxW-7" value="\( S_1 \)" style="rounded=0;whiteSpace=wrap;html=1;fillColor=#cce5ff;strokeColor=#36393d;movable=1;resizable=1;rotatable=1;deletable=1;editable=1;locked=0;connectable=1;" parent="r0rk5g-dEoWAehbLgSxW-1" vertex="1">
          <mxGeometry x="630" y="170" width="40" height="40" as="geometry" />
        </mxCell>
        <mxCell id="r0rk5g-dEoWAehbLgSxW-8" value="\( S_3 \)" style="rounded=0;whiteSpace=wrap;html=1;fillColor=#ffcccc;strokeColor=#36393d;movable=1;resizable=1;rotatable=1;deletable=1;editable=1;locked=0;connectable=1;" parent="r0rk5g-dEoWAehbLgSxW-1" vertex="1">
          <mxGeometry x="400" y="280" width="40" height="40" as="geometry" />
        </mxCell>
        <mxCell id="r0rk5g-dEoWAehbLgSxW-9" value="\( S_2 \)" style="rounded=0;whiteSpace=wrap;html=1;fillColor=#cdeb8b;strokeColor=#36393d;movable=1;resizable=1;rotatable=1;deletable=1;editable=1;locked=0;connectable=1;" parent="r0rk5g-dEoWAehbLgSxW-1" vertex="1">
          <mxGeometry x="630" y="280" width="40" height="40" as="geometry" />
        </mxCell>
        <mxCell id="r0rk5g-dEoWAehbLgSxW-18" value="\( V_0 \)" style="rounded=0;whiteSpace=wrap;html=1;fillColor=#ffcc99;strokeColor=#36393d;movable=1;resizable=1;rotatable=1;deletable=1;editable=1;locked=0;connectable=1;" parent="r0rk5g-dEoWAehbLgSxW-1" vertex="1">
          <mxGeometry x="520" y="170" width="40" height="40" as="geometry" />
        </mxCell>
        <mxCell id="r0rk5g-dEoWAehbLgSxW-20" value="\( V_3 \)" style="rounded=0;whiteSpace=wrap;html=1;fillColor=#ffcccc;strokeColor=#36393d;movable=1;resizable=1;rotatable=1;deletable=1;editable=1;locked=0;connectable=1;" parent="r0rk5g-dEoWAehbLgSxW-1" vertex="1">
          <mxGeometry x="520" y="280" width="40" height="40" as="geometry" />
        </mxCell>
        <mxCell id="r0rk5g-dEoWAehbLgSxW-22" value="\( V_1 \)" style="rounded=0;whiteSpace=wrap;html=1;fillColor=#cce5ff;strokeColor=#36393d;movable=1;resizable=1;rotatable=1;deletable=1;editable=1;locked=0;connectable=1;" parent="r0rk5g-dEoWAehbLgSxW-1" vertex="1">
          <mxGeometry x="750" y="170" width="40" height="40" as="geometry" />
        </mxCell>
        <mxCell id="r0rk5g-dEoWAehbLgSxW-24" value="\( V_2 \)" style="rounded=0;whiteSpace=wrap;html=1;fillColor=#cdeb8b;strokeColor=#36393d;movable=1;resizable=1;rotatable=1;deletable=1;editable=1;locked=0;connectable=1;" parent="r0rk5g-dEoWAehbLgSxW-1" vertex="1">
          <mxGeometry x="750" y="280" width="40" height="40" as="geometry" />
        </mxCell>
        <mxCell id="r0rk5g-dEoWAehbLgSxW-25" value="\( S_0 V_0 \)" style="whiteSpace=wrap;html=1;aspect=fixed;fillColor=#ffcc99;strokeColor=#36393d;movable=1;resizable=1;rotatable=1;deletable=1;editable=1;locked=0;connectable=1;" parent="r0rk5g-dEoWAehbLgSxW-1" vertex="1">
          <mxGeometry x="400" y="90" width="40" height="40" as="geometry" />
        </mxCell>
        <mxCell id="r0rk5g-dEoWAehbLgSxW-26" value="\( S_1 V_1 \)" style="whiteSpace=wrap;html=1;aspect=fixed;fillColor=#cce5ff;strokeColor=#36393d;movable=1;resizable=1;rotatable=1;deletable=1;editable=1;locked=0;connectable=1;" parent="r0rk5g-dEoWAehbLgSxW-1" vertex="1">
          <mxGeometry x="670" y="90" width="40" height="40" as="geometry" />
        </mxCell>
        <mxCell id="r0rk5g-dEoWAehbLgSxW-27" value="\( S_2 V_2 \)" style="whiteSpace=wrap;html=1;aspect=fixed;fillColor=#cdeb8b;strokeColor=#36393d;movable=1;resizable=1;rotatable=1;deletable=1;editable=1;locked=0;connectable=1;" parent="r0rk5g-dEoWAehbLgSxW-1" vertex="1">
          <mxGeometry x="710" y="360" width="40" height="40" as="geometry" />
        </mxCell>
        <mxCell id="r0rk5g-dEoWAehbLgSxW-28" value="\( S_3 V_3 \)" style="whiteSpace=wrap;html=1;aspect=fixed;fillColor=#ffcccc;strokeColor=#36393d;movable=1;resizable=1;rotatable=1;deletable=1;editable=1;locked=0;connectable=1;" parent="r0rk5g-dEoWAehbLgSxW-1" vertex="1">
          <mxGeometry x="520" y="360" width="40" height="40" as="geometry" />
        </mxCell>
        <mxCell id="r0rk5g-dEoWAehbLgSxW-29" value="\( V_3 \)" style="whiteSpace=wrap;html=1;aspect=fixed;fillColor=#ffcccc;strokeColor=#36393d;movable=1;resizable=1;rotatable=1;deletable=1;editable=1;locked=0;connectable=1;" parent="r0rk5g-dEoWAehbLgSxW-1" vertex="1">
          <mxGeometry x="520" y="90" width="40" height="40" as="geometry" />
        </mxCell>
        <mxCell id="r0rk5g-dEoWAehbLgSxW-30" value="" style="whiteSpace=wrap;html=1;aspect=fixed;movable=1;resizable=1;rotatable=1;deletable=1;editable=1;locked=0;connectable=1;" parent="r0rk5g-dEoWAehbLgSxW-1" vertex="1">
          <mxGeometry x="440" y="90" width="40" height="40" as="geometry" />
        </mxCell>
        <mxCell id="r0rk5g-dEoWAehbLgSxW-31" value="" style="whiteSpace=wrap;html=1;aspect=fixed;movable=1;resizable=1;rotatable=1;deletable=1;editable=1;locked=0;connectable=1;" parent="r0rk5g-dEoWAehbLgSxW-1" vertex="1">
          <mxGeometry x="480" y="90" width="40" height="40" as="geometry" />
        </mxCell>
        <mxCell id="r0rk5g-dEoWAehbLgSxW-32" value="" style="whiteSpace=wrap;html=1;aspect=fixed;movable=1;resizable=1;rotatable=1;deletable=1;editable=1;locked=0;connectable=1;" parent="r0rk5g-dEoWAehbLgSxW-1" vertex="1">
          <mxGeometry x="710" y="90" width="40" height="40" as="geometry" />
        </mxCell>
        <mxCell id="r0rk5g-dEoWAehbLgSxW-33" value="" style="whiteSpace=wrap;html=1;aspect=fixed;movable=1;resizable=1;rotatable=1;deletable=1;editable=1;locked=0;connectable=1;" parent="r0rk5g-dEoWAehbLgSxW-1" vertex="1">
          <mxGeometry x="750" y="90" width="40" height="40" as="geometry" />
        </mxCell>
        <mxCell id="r0rk5g-dEoWAehbLgSxW-34" value="\( V_0 \)" style="rounded=0;whiteSpace=wrap;html=1;fillColor=#ffcc99;strokeColor=#36393d;movable=1;resizable=1;rotatable=1;deletable=1;editable=1;locked=0;connectable=1;" parent="r0rk5g-dEoWAehbLgSxW-1" vertex="1">
          <mxGeometry x="630" y="90" width="40" height="40" as="geometry" />
        </mxCell>
        <mxCell id="r0rk5g-dEoWAehbLgSxW-35" value="\( V_1 \)" style="rounded=0;whiteSpace=wrap;html=1;fillColor=#cce5ff;strokeColor=#36393d;movable=1;resizable=1;rotatable=1;deletable=1;editable=1;locked=0;connectable=1;" parent="r0rk5g-dEoWAehbLgSxW-1" vertex="1">
          <mxGeometry x="670" y="360" width="40" height="40" as="geometry" />
        </mxCell>
        <mxCell id="r0rk5g-dEoWAehbLgSxW-36" value="" style="whiteSpace=wrap;html=1;aspect=fixed;movable=1;resizable=1;rotatable=1;deletable=1;editable=1;locked=0;connectable=1;" parent="r0rk5g-dEoWAehbLgSxW-1" vertex="1">
          <mxGeometry x="630" y="360" width="40" height="40" as="geometry" />
        </mxCell>
        <mxCell id="r0rk5g-dEoWAehbLgSxW-37" value="" style="whiteSpace=wrap;html=1;aspect=fixed;movable=1;resizable=1;rotatable=1;deletable=1;editable=1;locked=0;connectable=1;" parent="r0rk5g-dEoWAehbLgSxW-1" vertex="1">
          <mxGeometry x="750" y="360" width="40" height="40" as="geometry" />
        </mxCell>
        <mxCell id="r0rk5g-dEoWAehbLgSxW-38" value="\( V_2 \)" style="rounded=0;whiteSpace=wrap;html=1;fillColor=#cdeb8b;strokeColor=#36393d;movable=1;resizable=1;rotatable=1;deletable=1;editable=1;locked=0;connectable=1;" parent="r0rk5g-dEoWAehbLgSxW-1" vertex="1">
          <mxGeometry x="480" y="360" width="40" height="40" as="geometry" />
        </mxCell>
        <mxCell id="r0rk5g-dEoWAehbLgSxW-39" value="" style="whiteSpace=wrap;html=1;aspect=fixed;movable=1;resizable=1;rotatable=1;deletable=1;editable=1;locked=0;connectable=1;" parent="r0rk5g-dEoWAehbLgSxW-1" vertex="1">
          <mxGeometry x="400" y="360" width="40" height="40" as="geometry" />
        </mxCell>
        <mxCell id="r0rk5g-dEoWAehbLgSxW-40" value="" style="whiteSpace=wrap;html=1;aspect=fixed;movable=1;resizable=1;rotatable=1;deletable=1;editable=1;locked=0;connectable=1;" parent="r0rk5g-dEoWAehbLgSxW-1" vertex="1">
          <mxGeometry x="440" y="360" width="40" height="40" as="geometry" />
        </mxCell>
        <mxCell id="r0rk5g-dEoWAehbLgSxW-43" value="" style="endArrow=classic;html=1;rounded=0;fontSize=12;startSize=8;endSize=8;fillColor=#eeeeee;strokeColor=#36393d;exitX=0.5;exitY=1;exitDx=0;exitDy=0;entryX=0.5;entryY=0;entryDx=0;entryDy=0;edgeStyle=orthogonalEdgeStyle;movable=1;resizable=1;rotatable=1;deletable=1;editable=1;locked=0;connectable=1;" parent="r0rk5g-dEoWAehbLgSxW-1" source="r0rk5g-dEoWAehbLgSxW-18" target="r0rk5g-dEoWAehbLgSxW-34" edge="1">
          <mxGeometry width="50" height="50" relative="1" as="geometry">
            <mxPoint x="480" y="210" as="sourcePoint" />
            <mxPoint x="650" y="340" as="targetPoint" />
            <Array as="points">
              <mxPoint x="540" y="240" />
              <mxPoint x="590" y="240" />
              <mxPoint x="590" y="60" />
              <mxPoint x="650" y="60" />
            </Array>
          </mxGeometry>
        </mxCell>
        <mxCell id="r0rk5g-dEoWAehbLgSxW-45" value="" style="endArrow=classic;html=1;rounded=0;fontSize=12;startSize=8;endSize=8;fillColor=#eeeeee;strokeColor=#36393d;exitX=0.5;exitY=0;exitDx=0;exitDy=0;entryX=0.5;entryY=1;entryDx=0;entryDy=0;edgeStyle=orthogonalEdgeStyle;movable=1;resizable=1;rotatable=1;deletable=1;editable=1;locked=0;connectable=1;" parent="r0rk5g-dEoWAehbLgSxW-1" source="r0rk5g-dEoWAehbLgSxW-7" target="r0rk5g-dEoWAehbLgSxW-26" edge="1">
          <mxGeometry width="50" height="50" relative="1" as="geometry">
            <mxPoint x="470" y="400" as="sourcePoint" />
            <mxPoint x="520" y="350" as="targetPoint" />
          </mxGeometry>
        </mxCell>
        <mxCell id="r0rk5g-dEoWAehbLgSxW-48" value="" style="endArrow=classic;html=1;rounded=0;fontSize=12;startSize=8;endSize=8;fillColor=#eeeeee;strokeColor=#36393d;exitX=0.5;exitY=1;exitDx=0;exitDy=0;entryX=0.5;entryY=0;entryDx=0;entryDy=0;edgeStyle=orthogonalEdgeStyle;movable=1;resizable=1;rotatable=1;deletable=1;editable=1;locked=0;connectable=1;" parent="r0rk5g-dEoWAehbLgSxW-1" source="r0rk5g-dEoWAehbLgSxW-9" target="r0rk5g-dEoWAehbLgSxW-27" edge="1">
          <mxGeometry width="50" height="50" relative="1" as="geometry">
            <mxPoint x="700" y="230" as="sourcePoint" />
            <mxPoint x="640" y="190" as="targetPoint" />
          </mxGeometry>
        </mxCell>
        <mxCell id="r0rk5g-dEoWAehbLgSxW-49" value="" style="endArrow=classic;html=1;rounded=0;fontSize=12;startSize=8;endSize=8;fillColor=#eeeeee;strokeColor=#36393d;exitX=0.5;exitY=0;exitDx=0;exitDy=0;edgeStyle=orthogonalEdgeStyle;entryX=0.5;entryY=1;entryDx=0;entryDy=0;movable=1;resizable=1;rotatable=1;deletable=1;editable=1;locked=0;connectable=1;" parent="r0rk5g-dEoWAehbLgSxW-1" source="r0rk5g-dEoWAehbLgSxW-24" target="r0rk5g-dEoWAehbLgSxW-38" edge="1">
          <mxGeometry width="50" height="50" relative="1" as="geometry">
            <mxPoint x="710" y="280" as="sourcePoint" />
            <mxPoint x="570" y="340" as="targetPoint" />
            <Array as="points">
              <mxPoint x="770" y="250" />
              <mxPoint x="600" y="250" />
              <mxPoint x="600" y="430" />
              <mxPoint x="500" y="430" />
            </Array>
          </mxGeometry>
        </mxCell>
        <mxCell id="r0rk5g-dEoWAehbLgSxW-51" value="" style="endArrow=classic;html=1;rounded=0;fontSize=12;startSize=8;endSize=8;fillColor=#eeeeee;strokeColor=#36393d;exitX=0.5;exitY=1;exitDx=0;exitDy=0;entryX=0.5;entryY=0;entryDx=0;entryDy=0;edgeStyle=orthogonalEdgeStyle;movable=1;resizable=1;rotatable=1;deletable=1;editable=1;locked=0;connectable=1;" parent="r0rk5g-dEoWAehbLgSxW-1" source="r0rk5g-dEoWAehbLgSxW-8" target="r0rk5g-dEoWAehbLgSxW-28" edge="1">
          <mxGeometry width="50" height="50" relative="1" as="geometry">
            <mxPoint x="569.97" y="310" as="sourcePoint" />
            <mxPoint x="649.97" y="350" as="targetPoint" />
          </mxGeometry>
        </mxCell>
        <mxCell id="r0rk5g-dEoWAehbLgSxW-52" value="" style="endArrow=classic;html=1;rounded=0;fontSize=12;startSize=8;endSize=8;fillColor=#eeeeee;strokeColor=#36393d;exitX=0.5;exitY=0;exitDx=0;exitDy=0;entryX=0.5;entryY=0;entryDx=0;entryDy=0;edgeStyle=orthogonalEdgeStyle;movable=1;resizable=1;rotatable=1;deletable=1;editable=1;locked=0;connectable=1;" parent="r0rk5g-dEoWAehbLgSxW-1" source="r0rk5g-dEoWAehbLgSxW-20" target="r0rk5g-dEoWAehbLgSxW-29" edge="1">
          <mxGeometry width="50" height="50" relative="1" as="geometry">
            <mxPoint x="480" y="280" as="sourcePoint" />
            <mxPoint x="649.97" y="470" as="targetPoint" />
            <Array as="points">
              <mxPoint x="540" y="250" />
              <mxPoint x="370" y="250" />
              <mxPoint x="370" y="60" />
              <mxPoint x="540" y="60" />
            </Array>
          </mxGeometry>
        </mxCell>
        <mxCell id="Kz7U84LwfqwgaS62H16Y-0" value="" style="endArrow=classic;html=1;rounded=0;fontSize=12;startSize=8;endSize=8;fillColor=#eeeeee;strokeColor=#36393d;exitX=0.5;exitY=1;exitDx=0;exitDy=0;entryX=0.5;entryY=1;entryDx=0;entryDy=0;edgeStyle=orthogonalEdgeStyle;movable=1;resizable=1;rotatable=1;deletable=1;editable=1;locked=0;connectable=1;" parent="r0rk5g-dEoWAehbLgSxW-1" source="r0rk5g-dEoWAehbLgSxW-22" target="r0rk5g-dEoWAehbLgSxW-35" edge="1">
          <mxGeometry width="50" height="50" relative="1" as="geometry">
            <mxPoint x="959.97" y="260" as="sourcePoint" />
            <mxPoint x="1019.97" y="70" as="targetPoint" />
            <Array as="points">
              <mxPoint x="770" y="240" />
              <mxPoint x="820" y="240" />
              <mxPoint x="820" y="430" />
              <mxPoint x="690" y="430" />
            </Array>
          </mxGeometry>
        </mxCell>
        <mxCell id="Kz7U84LwfqwgaS62H16Y-2" value="" style="endArrow=classic;html=1;rounded=0;fontSize=12;startSize=8;endSize=8;fillColor=#eeeeee;strokeColor=#36393d;exitX=0.5;exitY=0;exitDx=0;exitDy=0;entryX=0.5;entryY=1;entryDx=0;entryDy=0;edgeStyle=orthogonalEdgeStyle;movable=1;resizable=1;rotatable=1;deletable=1;editable=1;locked=0;connectable=1;" parent="r0rk5g-dEoWAehbLgSxW-1" source="r0rk5g-dEoWAehbLgSxW-18" target="r0rk5g-dEoWAehbLgSxW-25" edge="1">
          <mxGeometry width="50" height="50" relative="1" as="geometry">
            <mxPoint x="470" y="400" as="sourcePoint" />
            <mxPoint x="520" y="350" as="targetPoint" />
          </mxGeometry>
        </mxCell>
        <mxCell id="Kz7U84LwfqwgaS62H16Y-3" value="" style="endArrow=classic;html=1;rounded=0;fontSize=12;startSize=8;endSize=8;fillColor=#eeeeee;strokeColor=#36393d;exitX=0.5;exitY=0;exitDx=0;exitDy=0;entryX=0.5;entryY=1;entryDx=0;entryDy=0;edgeStyle=orthogonalEdgeStyle;movable=1;resizable=1;rotatable=1;deletable=1;editable=1;locked=0;connectable=1;" parent="r0rk5g-dEoWAehbLgSxW-1" source="r0rk5g-dEoWAehbLgSxW-22" target="r0rk5g-dEoWAehbLgSxW-26" edge="1">
          <mxGeometry width="50" height="50" relative="1" as="geometry">
            <mxPoint x="470" y="400" as="sourcePoint" />
            <mxPoint x="520" y="350" as="targetPoint" />
          </mxGeometry>
        </mxCell>
        <mxCell id="Kz7U84LwfqwgaS62H16Y-4" value="" style="endArrow=classic;html=1;rounded=0;fontSize=12;startSize=8;endSize=8;fillColor=#eeeeee;strokeColor=#36393d;exitX=0.5;exitY=1;exitDx=0;exitDy=0;entryX=0.5;entryY=0;entryDx=0;entryDy=0;edgeStyle=orthogonalEdgeStyle;movable=1;resizable=1;rotatable=1;deletable=1;editable=1;locked=0;connectable=1;" parent="r0rk5g-dEoWAehbLgSxW-1" source="r0rk5g-dEoWAehbLgSxW-24" target="r0rk5g-dEoWAehbLgSxW-27" edge="1">
          <mxGeometry width="50" height="50" relative="1" as="geometry">
            <mxPoint x="700" y="230" as="sourcePoint" />
            <mxPoint x="640" y="190" as="targetPoint" />
          </mxGeometry>
        </mxCell>
        <mxCell id="Kz7U84LwfqwgaS62H16Y-5" value="" style="endArrow=classic;html=1;rounded=0;fontSize=12;startSize=8;endSize=8;fillColor=#eeeeee;strokeColor=#36393d;exitX=0.5;exitY=1;exitDx=0;exitDy=0;entryX=0.5;entryY=0;entryDx=0;entryDy=0;edgeStyle=orthogonalEdgeStyle;movable=1;resizable=1;rotatable=1;deletable=1;editable=1;locked=0;connectable=1;" parent="r0rk5g-dEoWAehbLgSxW-1" source="r0rk5g-dEoWAehbLgSxW-20" target="r0rk5g-dEoWAehbLgSxW-28" edge="1">
          <mxGeometry width="50" height="50" relative="1" as="geometry">
            <mxPoint x="569.97" y="310" as="sourcePoint" />
            <mxPoint x="649.97" y="350" as="targetPoint" />
          </mxGeometry>
        </mxCell>
        <mxCell id="Kz7U84LwfqwgaS62H16Y-6" value="" style="endArrow=classic;html=1;rounded=0;fontSize=12;startSize=8;endSize=8;fillColor=#eeeeee;strokeColor=#36393d;exitX=0.5;exitY=0;exitDx=0;exitDy=0;entryX=0.5;entryY=1;entryDx=0;entryDy=0;edgeStyle=orthogonalEdgeStyle;movable=1;resizable=1;rotatable=1;deletable=1;editable=1;locked=0;connectable=1;" parent="r0rk5g-dEoWAehbLgSxW-1" source="r0rk5g-dEoWAehbLgSxW-6" target="r0rk5g-dEoWAehbLgSxW-25" edge="1">
          <mxGeometry width="50" height="50" relative="1" as="geometry">
            <mxPoint x="470" y="400" as="sourcePoint" />
            <mxPoint x="520" y="350" as="targetPoint" />
          </mxGeometry>
        </mxCell>
      </root>
    </mxGraphModel>
  </diagram>
  <diagram name="第 7 页" id="peg3v1s7panQHS7BO4cl">
    <mxGraphModel dx="1042" dy="678" grid="1" gridSize="10" guides="1" tooltips="1" connect="1" arrows="1" fold="1" page="0" pageScale="1" pageWidth="1654" pageHeight="1169" math="1" shadow="0">
      <root>
        <mxCell id="xNhNf67x6lEAOFMmlPMR-0" />
        <mxCell id="xNhNf67x6lEAOFMmlPMR-1" parent="xNhNf67x6lEAOFMmlPMR-0" />
        <mxCell id="j4oqj4iAUqJhoiWLpdpA-0" value="" style="rounded=0;whiteSpace=wrap;html=1;strokeColor=none;" vertex="1" parent="xNhNf67x6lEAOFMmlPMR-1">
          <mxGeometry x="350" y="40" width="490" height="410" as="geometry" />
        </mxCell>
        <mxCell id="xNhNf67x6lEAOFMmlPMR-2" value="" style="rounded=1;whiteSpace=wrap;html=1;fillColor=#eeeeee;strokeColor=#36393d;movable=1;resizable=1;rotatable=1;deletable=1;editable=1;locked=0;connectable=1;" parent="xNhNf67x6lEAOFMmlPMR-1" vertex="1">
          <mxGeometry x="380" y="260" width="200" height="160" as="geometry" />
        </mxCell>
        <mxCell id="xNhNf67x6lEAOFMmlPMR-3" value="" style="rounded=1;whiteSpace=wrap;html=1;fillColor=#eeeeee;strokeColor=#36393d;movable=1;resizable=1;rotatable=1;deletable=1;editable=1;locked=0;connectable=1;" parent="xNhNf67x6lEAOFMmlPMR-1" vertex="1">
          <mxGeometry x="610" y="260" width="200" height="160" as="geometry" />
        </mxCell>
        <mxCell id="xNhNf67x6lEAOFMmlPMR-4" value="" style="rounded=1;whiteSpace=wrap;html=1;fillColor=#eeeeee;strokeColor=#36393d;movable=1;resizable=1;rotatable=1;deletable=1;editable=1;locked=0;connectable=1;" parent="xNhNf67x6lEAOFMmlPMR-1" vertex="1">
          <mxGeometry x="610" y="70" width="200" height="160" as="geometry" />
        </mxCell>
        <mxCell id="xNhNf67x6lEAOFMmlPMR-5" value="" style="rounded=1;whiteSpace=wrap;html=1;fillColor=#eeeeee;strokeColor=#36393d;movable=1;resizable=1;rotatable=1;deletable=1;editable=1;locked=0;connectable=1;" parent="xNhNf67x6lEAOFMmlPMR-1" vertex="1">
          <mxGeometry x="380" y="70" width="200" height="160" as="geometry" />
        </mxCell>
        <mxCell id="xNhNf67x6lEAOFMmlPMR-6" value="\( S_0 \)" style="rounded=0;whiteSpace=wrap;html=1;fillColor=#ffcc99;strokeColor=#36393d;movable=1;resizable=1;rotatable=1;deletable=1;editable=1;locked=0;connectable=1;" parent="xNhNf67x6lEAOFMmlPMR-1" vertex="1">
          <mxGeometry x="400" y="170" width="40" height="40" as="geometry" />
        </mxCell>
        <mxCell id="xNhNf67x6lEAOFMmlPMR-7" value="\( S_1 \)" style="rounded=0;whiteSpace=wrap;html=1;fillColor=#cce5ff;strokeColor=#36393d;movable=1;resizable=1;rotatable=1;deletable=1;editable=1;locked=0;connectable=1;" parent="xNhNf67x6lEAOFMmlPMR-1" vertex="1">
          <mxGeometry x="630" y="170" width="40" height="40" as="geometry" />
        </mxCell>
        <mxCell id="xNhNf67x6lEAOFMmlPMR-8" value="\( S_3 \)" style="rounded=0;whiteSpace=wrap;html=1;fillColor=#ffcccc;strokeColor=#36393d;movable=1;resizable=1;rotatable=1;deletable=1;editable=1;locked=0;connectable=1;" parent="xNhNf67x6lEAOFMmlPMR-1" vertex="1">
          <mxGeometry x="400" y="280" width="40" height="40" as="geometry" />
        </mxCell>
        <mxCell id="xNhNf67x6lEAOFMmlPMR-9" value="\( S_2 \)" style="rounded=0;whiteSpace=wrap;html=1;fillColor=#cdeb8b;strokeColor=#36393d;movable=1;resizable=1;rotatable=1;deletable=1;editable=1;locked=0;connectable=1;" parent="xNhNf67x6lEAOFMmlPMR-1" vertex="1">
          <mxGeometry x="630" y="280" width="40" height="40" as="geometry" />
        </mxCell>
        <mxCell id="xNhNf67x6lEAOFMmlPMR-17" value="\( V_3 \)" style="rounded=0;whiteSpace=wrap;html=1;fillColor=#ffcccc;strokeColor=#36393d;movable=1;resizable=1;rotatable=1;deletable=1;editable=1;locked=0;connectable=1;" parent="xNhNf67x6lEAOFMmlPMR-1" vertex="1">
          <mxGeometry x="520" y="170" width="40" height="40" as="geometry" />
        </mxCell>
        <mxCell id="xNhNf67x6lEAOFMmlPMR-18" value="\( V_2 \)" style="rounded=0;whiteSpace=wrap;html=1;fillColor=#cdeb8b;strokeColor=#36393d;movable=1;resizable=1;rotatable=1;deletable=1;editable=1;locked=0;connectable=1;" parent="xNhNf67x6lEAOFMmlPMR-1" vertex="1">
          <mxGeometry x="520" y="280" width="40" height="40" as="geometry" />
        </mxCell>
        <mxCell id="xNhNf67x6lEAOFMmlPMR-19" value="\( V_0 \)" style="rounded=0;whiteSpace=wrap;html=1;fillColor=#ffcc99;strokeColor=#36393d;movable=1;resizable=1;rotatable=1;deletable=1;editable=1;locked=0;connectable=1;" parent="xNhNf67x6lEAOFMmlPMR-1" vertex="1">
          <mxGeometry x="750" y="170" width="40" height="40" as="geometry" />
        </mxCell>
        <mxCell id="xNhNf67x6lEAOFMmlPMR-20" value="\( V_1 \)" style="rounded=0;whiteSpace=wrap;html=1;fillColor=#cce5ff;strokeColor=#36393d;movable=1;resizable=1;rotatable=1;deletable=1;editable=1;locked=0;connectable=1;" parent="xNhNf67x6lEAOFMmlPMR-1" vertex="1">
          <mxGeometry x="750" y="280" width="40" height="40" as="geometry" />
        </mxCell>
        <mxCell id="xNhNf67x6lEAOFMmlPMR-21" value="\( S_0 V_0 \)" style="whiteSpace=wrap;html=1;aspect=fixed;fillColor=#ffcc99;strokeColor=#36393d;movable=1;resizable=1;rotatable=1;deletable=1;editable=1;locked=0;connectable=1;" parent="xNhNf67x6lEAOFMmlPMR-1" vertex="1">
          <mxGeometry x="400" y="90" width="40" height="40" as="geometry" />
        </mxCell>
        <mxCell id="xNhNf67x6lEAOFMmlPMR-22" value="\( S_1 V_1 \)" style="whiteSpace=wrap;html=1;aspect=fixed;fillColor=#cce5ff;strokeColor=#36393d;movable=1;resizable=1;rotatable=1;deletable=1;editable=1;locked=0;connectable=1;" parent="xNhNf67x6lEAOFMmlPMR-1" vertex="1">
          <mxGeometry x="670" y="90" width="40" height="40" as="geometry" />
        </mxCell>
        <mxCell id="xNhNf67x6lEAOFMmlPMR-23" value="\( S_2 V_2 \)" style="whiteSpace=wrap;html=1;aspect=fixed;fillColor=#cdeb8b;strokeColor=#36393d;movable=1;resizable=1;rotatable=1;deletable=1;editable=1;locked=0;connectable=1;" parent="xNhNf67x6lEAOFMmlPMR-1" vertex="1">
          <mxGeometry x="710" y="360" width="40" height="40" as="geometry" />
        </mxCell>
        <mxCell id="xNhNf67x6lEAOFMmlPMR-24" value="\( S_3 V_3 \)" style="whiteSpace=wrap;html=1;aspect=fixed;fillColor=#ffcccc;strokeColor=#36393d;movable=1;resizable=1;rotatable=1;deletable=1;editable=1;locked=0;connectable=1;" parent="xNhNf67x6lEAOFMmlPMR-1" vertex="1">
          <mxGeometry x="520" y="360" width="40" height="40" as="geometry" />
        </mxCell>
        <mxCell id="xNhNf67x6lEAOFMmlPMR-25" value="\( S_0 V_3 \)" style="whiteSpace=wrap;html=1;aspect=fixed;fillColor=#ffcc99;strokeColor=#36393d;movable=1;resizable=1;rotatable=1;deletable=1;editable=1;locked=0;connectable=1;" parent="xNhNf67x6lEAOFMmlPMR-1" vertex="1">
          <mxGeometry x="520" y="90" width="40" height="40" as="geometry" />
        </mxCell>
        <mxCell id="xNhNf67x6lEAOFMmlPMR-26" value="" style="whiteSpace=wrap;html=1;aspect=fixed;movable=1;resizable=1;rotatable=1;deletable=1;editable=1;locked=0;connectable=1;" parent="xNhNf67x6lEAOFMmlPMR-1" vertex="1">
          <mxGeometry x="440" y="90" width="40" height="40" as="geometry" />
        </mxCell>
        <mxCell id="xNhNf67x6lEAOFMmlPMR-27" value="\( V_2 \)" style="whiteSpace=wrap;html=1;aspect=fixed;movable=1;resizable=1;rotatable=1;deletable=1;editable=1;locked=0;connectable=1;fillColor=#cdeb8b;strokeColor=#36393d;" parent="xNhNf67x6lEAOFMmlPMR-1" vertex="1">
          <mxGeometry x="480" y="90" width="40" height="40" as="geometry" />
        </mxCell>
        <mxCell id="xNhNf67x6lEAOFMmlPMR-28" value="" style="whiteSpace=wrap;html=1;aspect=fixed;movable=1;resizable=1;rotatable=1;deletable=1;editable=1;locked=0;connectable=1;" parent="xNhNf67x6lEAOFMmlPMR-1" vertex="1">
          <mxGeometry x="710" y="90" width="40" height="40" as="geometry" />
        </mxCell>
        <mxCell id="xNhNf67x6lEAOFMmlPMR-29" value="\( V_3 \)" style="whiteSpace=wrap;html=1;aspect=fixed;movable=1;resizable=1;rotatable=1;deletable=1;editable=1;locked=0;connectable=1;fillColor=#ffcccc;strokeColor=#36393d;" parent="xNhNf67x6lEAOFMmlPMR-1" vertex="1">
          <mxGeometry x="750" y="90" width="40" height="40" as="geometry" />
        </mxCell>
        <mxCell id="xNhNf67x6lEAOFMmlPMR-30" value="\( S_1 V_0 \)" style="rounded=0;whiteSpace=wrap;html=1;fillColor=#cce5ff;strokeColor=#36393d;movable=1;resizable=1;rotatable=1;deletable=1;editable=1;locked=0;connectable=1;" parent="xNhNf67x6lEAOFMmlPMR-1" vertex="1">
          <mxGeometry x="630" y="90" width="40" height="40" as="geometry" />
        </mxCell>
        <mxCell id="xNhNf67x6lEAOFMmlPMR-31" value="\( S_2 V_1 \)" style="rounded=0;whiteSpace=wrap;html=1;fillColor=#cdeb8b;strokeColor=#36393d;movable=1;resizable=1;rotatable=1;deletable=1;editable=1;locked=0;connectable=1;" parent="xNhNf67x6lEAOFMmlPMR-1" vertex="1">
          <mxGeometry x="670" y="360" width="40" height="40" as="geometry" />
        </mxCell>
        <mxCell id="xNhNf67x6lEAOFMmlPMR-32" value="\( V_0 \)" style="whiteSpace=wrap;html=1;aspect=fixed;movable=1;resizable=1;rotatable=1;deletable=1;editable=1;locked=0;connectable=1;fillColor=#ffcc99;strokeColor=#36393d;" parent="xNhNf67x6lEAOFMmlPMR-1" vertex="1">
          <mxGeometry x="630" y="360" width="40" height="40" as="geometry" />
        </mxCell>
        <mxCell id="xNhNf67x6lEAOFMmlPMR-33" value="" style="whiteSpace=wrap;html=1;aspect=fixed;movable=1;resizable=1;rotatable=1;deletable=1;editable=1;locked=0;connectable=1;" parent="xNhNf67x6lEAOFMmlPMR-1" vertex="1">
          <mxGeometry x="750" y="360" width="40" height="40" as="geometry" />
        </mxCell>
        <mxCell id="xNhNf67x6lEAOFMmlPMR-34" value="\( S_3 V_2 \)" style="rounded=0;whiteSpace=wrap;html=1;fillColor=#ffcccc;strokeColor=#36393d;movable=1;resizable=1;rotatable=1;deletable=1;editable=1;locked=0;connectable=1;" parent="xNhNf67x6lEAOFMmlPMR-1" vertex="1">
          <mxGeometry x="480" y="360" width="40" height="40" as="geometry" />
        </mxCell>
        <mxCell id="xNhNf67x6lEAOFMmlPMR-35" value="" style="whiteSpace=wrap;html=1;aspect=fixed;movable=1;resizable=1;rotatable=1;deletable=1;editable=1;locked=0;connectable=1;" parent="xNhNf67x6lEAOFMmlPMR-1" vertex="1">
          <mxGeometry x="400" y="360" width="40" height="40" as="geometry" />
        </mxCell>
        <mxCell id="xNhNf67x6lEAOFMmlPMR-36" value="\( V_1 \)" style="whiteSpace=wrap;html=1;aspect=fixed;movable=1;resizable=1;rotatable=1;deletable=1;editable=1;locked=0;connectable=1;fillColor=#cce5ff;strokeColor=#36393d;" parent="xNhNf67x6lEAOFMmlPMR-1" vertex="1">
          <mxGeometry x="440" y="360" width="40" height="40" as="geometry" />
        </mxCell>
        <mxCell id="xNhNf67x6lEAOFMmlPMR-37" value="" style="endArrow=classic;html=1;rounded=0;fontSize=12;startSize=8;endSize=8;fillColor=#eeeeee;strokeColor=#36393d;exitX=0.5;exitY=1;exitDx=0;exitDy=0;entryX=0.5;entryY=0;entryDx=0;entryDy=0;edgeStyle=orthogonalEdgeStyle;movable=1;resizable=1;rotatable=1;deletable=1;editable=1;locked=0;connectable=1;" parent="xNhNf67x6lEAOFMmlPMR-1" source="xNhNf67x6lEAOFMmlPMR-17" target="xNhNf67x6lEAOFMmlPMR-29" edge="1">
          <mxGeometry width="50" height="50" relative="1" as="geometry">
            <mxPoint x="480" y="210" as="sourcePoint" />
            <mxPoint x="650" y="340" as="targetPoint" />
            <Array as="points">
              <mxPoint x="540" y="240" />
              <mxPoint x="590" y="240" />
              <mxPoint x="590" y="60" />
              <mxPoint x="770" y="60" />
            </Array>
          </mxGeometry>
        </mxCell>
        <mxCell id="xNhNf67x6lEAOFMmlPMR-38" value="" style="endArrow=classic;html=1;rounded=0;fontSize=12;startSize=8;endSize=8;fillColor=#eeeeee;strokeColor=#36393d;exitX=0.5;exitY=0;exitDx=0;exitDy=0;entryX=0.5;entryY=1;entryDx=0;entryDy=0;edgeStyle=orthogonalEdgeStyle;movable=1;resizable=1;rotatable=1;deletable=1;editable=1;locked=0;connectable=1;" parent="xNhNf67x6lEAOFMmlPMR-1" source="xNhNf67x6lEAOFMmlPMR-7" target="xNhNf67x6lEAOFMmlPMR-30" edge="1">
          <mxGeometry width="50" height="50" relative="1" as="geometry">
            <mxPoint x="470" y="400" as="sourcePoint" />
            <mxPoint x="520" y="350" as="targetPoint" />
          </mxGeometry>
        </mxCell>
        <mxCell id="xNhNf67x6lEAOFMmlPMR-39" value="" style="endArrow=classic;html=1;rounded=0;fontSize=12;startSize=8;endSize=8;fillColor=#eeeeee;strokeColor=#36393d;exitX=0.5;exitY=1;exitDx=0;exitDy=0;entryX=0.5;entryY=0;entryDx=0;entryDy=0;edgeStyle=orthogonalEdgeStyle;movable=1;resizable=1;rotatable=1;deletable=1;editable=1;locked=0;connectable=1;" parent="xNhNf67x6lEAOFMmlPMR-1" source="xNhNf67x6lEAOFMmlPMR-9" target="xNhNf67x6lEAOFMmlPMR-31" edge="1">
          <mxGeometry width="50" height="50" relative="1" as="geometry">
            <mxPoint x="700" y="230" as="sourcePoint" />
            <mxPoint x="640" y="190" as="targetPoint" />
          </mxGeometry>
        </mxCell>
        <mxCell id="xNhNf67x6lEAOFMmlPMR-40" value="" style="endArrow=classic;html=1;rounded=0;fontSize=12;startSize=8;endSize=8;fillColor=#eeeeee;strokeColor=#36393d;exitX=0.5;exitY=0;exitDx=0;exitDy=0;edgeStyle=orthogonalEdgeStyle;entryX=0.5;entryY=1;entryDx=0;entryDy=0;movable=1;resizable=1;rotatable=1;deletable=1;editable=1;locked=0;connectable=1;" parent="xNhNf67x6lEAOFMmlPMR-1" source="xNhNf67x6lEAOFMmlPMR-20" target="xNhNf67x6lEAOFMmlPMR-36" edge="1">
          <mxGeometry width="50" height="50" relative="1" as="geometry">
            <mxPoint x="710" y="280" as="sourcePoint" />
            <mxPoint x="570" y="340" as="targetPoint" />
            <Array as="points">
              <mxPoint x="770" y="250" />
              <mxPoint x="600" y="250" />
              <mxPoint x="600" y="430" />
              <mxPoint x="460" y="430" />
            </Array>
          </mxGeometry>
        </mxCell>
        <mxCell id="xNhNf67x6lEAOFMmlPMR-41" value="" style="endArrow=classic;html=1;rounded=0;fontSize=12;startSize=8;endSize=8;fillColor=#eeeeee;strokeColor=#36393d;exitX=0.5;exitY=1;exitDx=0;exitDy=0;entryX=0.5;entryY=0;entryDx=0;entryDy=0;edgeStyle=orthogonalEdgeStyle;movable=1;resizable=1;rotatable=1;deletable=1;editable=1;locked=0;connectable=1;" parent="xNhNf67x6lEAOFMmlPMR-1" source="xNhNf67x6lEAOFMmlPMR-8" target="xNhNf67x6lEAOFMmlPMR-34" edge="1">
          <mxGeometry width="50" height="50" relative="1" as="geometry">
            <mxPoint x="569.97" y="310" as="sourcePoint" />
            <mxPoint x="649.97" y="350" as="targetPoint" />
          </mxGeometry>
        </mxCell>
        <mxCell id="xNhNf67x6lEAOFMmlPMR-42" value="" style="endArrow=classic;html=1;rounded=0;fontSize=12;startSize=8;endSize=8;fillColor=#eeeeee;strokeColor=#36393d;exitX=0.5;exitY=0;exitDx=0;exitDy=0;entryX=0.5;entryY=0;entryDx=0;entryDy=0;edgeStyle=orthogonalEdgeStyle;movable=1;resizable=1;rotatable=1;deletable=1;editable=1;locked=0;connectable=1;" parent="xNhNf67x6lEAOFMmlPMR-1" source="xNhNf67x6lEAOFMmlPMR-18" target="xNhNf67x6lEAOFMmlPMR-27" edge="1">
          <mxGeometry width="50" height="50" relative="1" as="geometry">
            <mxPoint x="480" y="280" as="sourcePoint" />
            <mxPoint x="649.97" y="470" as="targetPoint" />
            <Array as="points">
              <mxPoint x="540" y="250" />
              <mxPoint x="370" y="250" />
              <mxPoint x="370" y="60" />
              <mxPoint x="500" y="60" />
            </Array>
          </mxGeometry>
        </mxCell>
        <mxCell id="xNhNf67x6lEAOFMmlPMR-43" value="" style="endArrow=classic;html=1;rounded=0;fontSize=12;startSize=8;endSize=8;fillColor=#eeeeee;strokeColor=#36393d;exitX=0.5;exitY=1;exitDx=0;exitDy=0;entryX=0.5;entryY=1;entryDx=0;entryDy=0;edgeStyle=orthogonalEdgeStyle;movable=1;resizable=1;rotatable=1;deletable=1;editable=1;locked=0;connectable=1;" parent="xNhNf67x6lEAOFMmlPMR-1" source="xNhNf67x6lEAOFMmlPMR-19" target="xNhNf67x6lEAOFMmlPMR-32" edge="1">
          <mxGeometry width="50" height="50" relative="1" as="geometry">
            <mxPoint x="959.97" y="260" as="sourcePoint" />
            <mxPoint x="1019.97" y="70" as="targetPoint" />
            <Array as="points">
              <mxPoint x="770" y="240" />
              <mxPoint x="820" y="240" />
              <mxPoint x="820" y="430" />
              <mxPoint x="650" y="430" />
            </Array>
          </mxGeometry>
        </mxCell>
        <mxCell id="xNhNf67x6lEAOFMmlPMR-44" value="" style="endArrow=classic;html=1;rounded=0;fontSize=12;startSize=8;endSize=8;fillColor=#eeeeee;strokeColor=#36393d;exitX=0.5;exitY=0;exitDx=0;exitDy=0;entryX=0.5;entryY=1;entryDx=0;entryDy=0;edgeStyle=orthogonalEdgeStyle;movable=1;resizable=1;rotatable=1;deletable=1;editable=1;locked=0;connectable=1;" parent="xNhNf67x6lEAOFMmlPMR-1" source="xNhNf67x6lEAOFMmlPMR-17" target="xNhNf67x6lEAOFMmlPMR-25" edge="1">
          <mxGeometry width="50" height="50" relative="1" as="geometry">
            <mxPoint x="470" y="400" as="sourcePoint" />
            <mxPoint x="520" y="350" as="targetPoint" />
          </mxGeometry>
        </mxCell>
        <mxCell id="xNhNf67x6lEAOFMmlPMR-45" value="" style="endArrow=classic;html=1;rounded=0;fontSize=12;startSize=8;endSize=8;fillColor=#eeeeee;strokeColor=#36393d;exitX=0.5;exitY=0;exitDx=0;exitDy=0;entryX=0.5;entryY=1;entryDx=0;entryDy=0;edgeStyle=orthogonalEdgeStyle;movable=1;resizable=1;rotatable=1;deletable=1;editable=1;locked=0;connectable=1;" parent="xNhNf67x6lEAOFMmlPMR-1" source="xNhNf67x6lEAOFMmlPMR-19" target="xNhNf67x6lEAOFMmlPMR-30" edge="1">
          <mxGeometry width="50" height="50" relative="1" as="geometry">
            <mxPoint x="470" y="400" as="sourcePoint" />
            <mxPoint x="520" y="350" as="targetPoint" />
          </mxGeometry>
        </mxCell>
        <mxCell id="xNhNf67x6lEAOFMmlPMR-46" value="" style="endArrow=classic;html=1;rounded=0;fontSize=12;startSize=8;endSize=8;fillColor=#eeeeee;strokeColor=#36393d;exitX=0.5;exitY=1;exitDx=0;exitDy=0;entryX=0.5;entryY=0;entryDx=0;entryDy=0;edgeStyle=orthogonalEdgeStyle;movable=1;resizable=1;rotatable=1;deletable=1;editable=1;locked=0;connectable=1;" parent="xNhNf67x6lEAOFMmlPMR-1" source="xNhNf67x6lEAOFMmlPMR-20" target="xNhNf67x6lEAOFMmlPMR-31" edge="1">
          <mxGeometry width="50" height="50" relative="1" as="geometry">
            <mxPoint x="700" y="230" as="sourcePoint" />
            <mxPoint x="640" y="190" as="targetPoint" />
          </mxGeometry>
        </mxCell>
        <mxCell id="xNhNf67x6lEAOFMmlPMR-47" value="" style="endArrow=classic;html=1;rounded=0;fontSize=12;startSize=8;endSize=8;fillColor=#eeeeee;strokeColor=#36393d;exitX=0.5;exitY=1;exitDx=0;exitDy=0;entryX=0.5;entryY=0;entryDx=0;entryDy=0;edgeStyle=orthogonalEdgeStyle;movable=1;resizable=1;rotatable=1;deletable=1;editable=1;locked=0;connectable=1;" parent="xNhNf67x6lEAOFMmlPMR-1" source="xNhNf67x6lEAOFMmlPMR-18" target="xNhNf67x6lEAOFMmlPMR-34" edge="1">
          <mxGeometry width="50" height="50" relative="1" as="geometry">
            <mxPoint x="569.97" y="310" as="sourcePoint" />
            <mxPoint x="649.97" y="350" as="targetPoint" />
          </mxGeometry>
        </mxCell>
        <mxCell id="xNhNf67x6lEAOFMmlPMR-48" value="" style="endArrow=classic;html=1;rounded=0;fontSize=12;startSize=8;endSize=8;fillColor=#eeeeee;strokeColor=#36393d;exitX=0.5;exitY=0;exitDx=0;exitDy=0;entryX=0.5;entryY=1;entryDx=0;entryDy=0;edgeStyle=orthogonalEdgeStyle;movable=1;resizable=1;rotatable=1;deletable=1;editable=1;locked=0;connectable=1;" parent="xNhNf67x6lEAOFMmlPMR-1" source="xNhNf67x6lEAOFMmlPMR-6" target="xNhNf67x6lEAOFMmlPMR-25" edge="1">
          <mxGeometry width="50" height="50" relative="1" as="geometry">
            <mxPoint x="470" y="400" as="sourcePoint" />
            <mxPoint x="520" y="350" as="targetPoint" />
          </mxGeometry>
        </mxCell>
      </root>
    </mxGraphModel>
  </diagram>
  <diagram name="第 8 页" id="2X8vCcbN3fMmzisNPkoE">
    <mxGraphModel dx="1042" dy="678" grid="1" gridSize="10" guides="1" tooltips="1" connect="1" arrows="1" fold="1" page="0" pageScale="1" pageWidth="1654" pageHeight="1169" math="1" shadow="0">
      <root>
        <mxCell id="5efrx6tgmJ7ktwZ-VxUX-0" />
        <mxCell id="5efrx6tgmJ7ktwZ-VxUX-1" parent="5efrx6tgmJ7ktwZ-VxUX-0" />
        <mxCell id="om7XZMajcMSxmNYv_LyL-0" value="" style="rounded=0;whiteSpace=wrap;html=1;strokeColor=none;" vertex="1" parent="5efrx6tgmJ7ktwZ-VxUX-1">
          <mxGeometry x="350" y="40" width="490" height="410" as="geometry" />
        </mxCell>
        <mxCell id="5efrx6tgmJ7ktwZ-VxUX-2" value="" style="rounded=1;whiteSpace=wrap;html=1;fillColor=#eeeeee;strokeColor=#36393d;movable=1;resizable=1;rotatable=1;deletable=1;editable=1;locked=0;connectable=1;" parent="5efrx6tgmJ7ktwZ-VxUX-1" vertex="1">
          <mxGeometry x="380" y="260" width="200" height="160" as="geometry" />
        </mxCell>
        <mxCell id="5efrx6tgmJ7ktwZ-VxUX-3" value="" style="rounded=1;whiteSpace=wrap;html=1;fillColor=#eeeeee;strokeColor=#36393d;movable=1;resizable=1;rotatable=1;deletable=1;editable=1;locked=0;connectable=1;" parent="5efrx6tgmJ7ktwZ-VxUX-1" vertex="1">
          <mxGeometry x="610" y="260" width="200" height="160" as="geometry" />
        </mxCell>
        <mxCell id="5efrx6tgmJ7ktwZ-VxUX-4" value="" style="rounded=1;whiteSpace=wrap;html=1;fillColor=#eeeeee;strokeColor=#36393d;movable=1;resizable=1;rotatable=1;deletable=1;editable=1;locked=0;connectable=1;" parent="5efrx6tgmJ7ktwZ-VxUX-1" vertex="1">
          <mxGeometry x="610" y="70" width="200" height="160" as="geometry" />
        </mxCell>
        <mxCell id="5efrx6tgmJ7ktwZ-VxUX-5" value="" style="rounded=1;whiteSpace=wrap;html=1;fillColor=#eeeeee;strokeColor=#36393d;movable=1;resizable=1;rotatable=1;deletable=1;editable=1;locked=0;connectable=1;" parent="5efrx6tgmJ7ktwZ-VxUX-1" vertex="1">
          <mxGeometry x="380" y="70" width="200" height="160" as="geometry" />
        </mxCell>
        <mxCell id="5efrx6tgmJ7ktwZ-VxUX-6" value="\( S_0 \)" style="rounded=0;whiteSpace=wrap;html=1;fillColor=#ffcc99;strokeColor=#36393d;movable=1;resizable=1;rotatable=1;deletable=1;editable=1;locked=0;connectable=1;" parent="5efrx6tgmJ7ktwZ-VxUX-1" vertex="1">
          <mxGeometry x="400" y="170" width="40" height="40" as="geometry" />
        </mxCell>
        <mxCell id="5efrx6tgmJ7ktwZ-VxUX-7" value="\( S_1 \)" style="rounded=0;whiteSpace=wrap;html=1;fillColor=#cce5ff;strokeColor=#36393d;movable=1;resizable=1;rotatable=1;deletable=1;editable=1;locked=0;connectable=1;" parent="5efrx6tgmJ7ktwZ-VxUX-1" vertex="1">
          <mxGeometry x="630" y="170" width="40" height="40" as="geometry" />
        </mxCell>
        <mxCell id="5efrx6tgmJ7ktwZ-VxUX-8" value="\( S_3 \)" style="rounded=0;whiteSpace=wrap;html=1;fillColor=#ffcccc;strokeColor=#36393d;movable=1;resizable=1;rotatable=1;deletable=1;editable=1;locked=0;connectable=1;" parent="5efrx6tgmJ7ktwZ-VxUX-1" vertex="1">
          <mxGeometry x="400" y="280" width="40" height="40" as="geometry" />
        </mxCell>
        <mxCell id="5efrx6tgmJ7ktwZ-VxUX-9" value="\( S_2 \)" style="rounded=0;whiteSpace=wrap;html=1;fillColor=#cdeb8b;strokeColor=#36393d;movable=1;resizable=1;rotatable=1;deletable=1;editable=1;locked=0;connectable=1;" parent="5efrx6tgmJ7ktwZ-VxUX-1" vertex="1">
          <mxGeometry x="630" y="280" width="40" height="40" as="geometry" />
        </mxCell>
        <mxCell id="5efrx6tgmJ7ktwZ-VxUX-17" value="\( V_2 \)" style="rounded=0;whiteSpace=wrap;html=1;fillColor=#cdeb8b;strokeColor=#36393d;movable=1;resizable=1;rotatable=1;deletable=1;editable=1;locked=0;connectable=1;" parent="5efrx6tgmJ7ktwZ-VxUX-1" vertex="1">
          <mxGeometry x="520" y="170" width="40" height="40" as="geometry" />
        </mxCell>
        <mxCell id="5efrx6tgmJ7ktwZ-VxUX-18" value="\( V_1 \)" style="rounded=0;whiteSpace=wrap;html=1;fillColor=#cce5ff;strokeColor=#36393d;movable=1;resizable=1;rotatable=1;deletable=1;editable=1;locked=0;connectable=1;" parent="5efrx6tgmJ7ktwZ-VxUX-1" vertex="1">
          <mxGeometry x="520" y="280" width="40" height="40" as="geometry" />
        </mxCell>
        <mxCell id="5efrx6tgmJ7ktwZ-VxUX-19" value="\( V_3 \)" style="rounded=0;whiteSpace=wrap;html=1;fillColor=#ffcccc;strokeColor=#36393d;movable=1;resizable=1;rotatable=1;deletable=1;editable=1;locked=0;connectable=1;" parent="5efrx6tgmJ7ktwZ-VxUX-1" vertex="1">
          <mxGeometry x="750" y="170" width="40" height="40" as="geometry" />
        </mxCell>
        <mxCell id="5efrx6tgmJ7ktwZ-VxUX-20" value="\( V_0 \)" style="rounded=0;whiteSpace=wrap;html=1;fillColor=#ffcc99;strokeColor=#36393d;movable=1;resizable=1;rotatable=1;deletable=1;editable=1;locked=0;connectable=1;" parent="5efrx6tgmJ7ktwZ-VxUX-1" vertex="1">
          <mxGeometry x="750" y="280" width="40" height="40" as="geometry" />
        </mxCell>
        <mxCell id="5efrx6tgmJ7ktwZ-VxUX-21" value="\( S_0 V_0 \)" style="whiteSpace=wrap;html=1;aspect=fixed;fillColor=#ffcc99;strokeColor=#36393d;movable=1;resizable=1;rotatable=1;deletable=1;editable=1;locked=0;connectable=1;" parent="5efrx6tgmJ7ktwZ-VxUX-1" vertex="1">
          <mxGeometry x="400" y="90" width="40" height="40" as="geometry" />
        </mxCell>
        <mxCell id="5efrx6tgmJ7ktwZ-VxUX-22" value="\( S_1 V_1 \)" style="whiteSpace=wrap;html=1;aspect=fixed;fillColor=#cce5ff;strokeColor=#36393d;movable=1;resizable=1;rotatable=1;deletable=1;editable=1;locked=0;connectable=1;" parent="5efrx6tgmJ7ktwZ-VxUX-1" vertex="1">
          <mxGeometry x="670" y="90" width="40" height="40" as="geometry" />
        </mxCell>
        <mxCell id="5efrx6tgmJ7ktwZ-VxUX-23" value="\( S_2 V_2 \)" style="whiteSpace=wrap;html=1;aspect=fixed;fillColor=#cdeb8b;strokeColor=#36393d;movable=1;resizable=1;rotatable=1;deletable=1;editable=1;locked=0;connectable=1;" parent="5efrx6tgmJ7ktwZ-VxUX-1" vertex="1">
          <mxGeometry x="710" y="360" width="40" height="40" as="geometry" />
        </mxCell>
        <mxCell id="5efrx6tgmJ7ktwZ-VxUX-24" value="\( S_3 V_3 \)" style="whiteSpace=wrap;html=1;aspect=fixed;fillColor=#ffcccc;strokeColor=#36393d;movable=1;resizable=1;rotatable=1;deletable=1;editable=1;locked=0;connectable=1;" parent="5efrx6tgmJ7ktwZ-VxUX-1" vertex="1">
          <mxGeometry x="520" y="360" width="40" height="40" as="geometry" />
        </mxCell>
        <mxCell id="5efrx6tgmJ7ktwZ-VxUX-25" value="\( S_0 V_3 \)" style="whiteSpace=wrap;html=1;aspect=fixed;fillColor=#ffcc99;strokeColor=#36393d;movable=1;resizable=1;rotatable=1;deletable=1;editable=1;locked=0;connectable=1;" parent="5efrx6tgmJ7ktwZ-VxUX-1" vertex="1">
          <mxGeometry x="520" y="90" width="40" height="40" as="geometry" />
        </mxCell>
        <mxCell id="5efrx6tgmJ7ktwZ-VxUX-26" value="\( V_1 \)" style="whiteSpace=wrap;html=1;aspect=fixed;movable=1;resizable=1;rotatable=1;deletable=1;editable=1;locked=0;connectable=1;fillColor=#cce5ff;strokeColor=#36393d;" parent="5efrx6tgmJ7ktwZ-VxUX-1" vertex="1">
          <mxGeometry x="440" y="90" width="40" height="40" as="geometry" />
        </mxCell>
        <mxCell id="5efrx6tgmJ7ktwZ-VxUX-27" value="\( S_0 V_2 \)" style="whiteSpace=wrap;html=1;aspect=fixed;movable=1;resizable=1;rotatable=1;deletable=1;editable=1;locked=0;connectable=1;fillColor=#ffcc99;strokeColor=#36393d;" parent="5efrx6tgmJ7ktwZ-VxUX-1" vertex="1">
          <mxGeometry x="480" y="90" width="40" height="40" as="geometry" />
        </mxCell>
        <mxCell id="5efrx6tgmJ7ktwZ-VxUX-28" value="\( V_2 \)" style="whiteSpace=wrap;html=1;aspect=fixed;movable=1;resizable=1;rotatable=1;deletable=1;editable=1;locked=0;connectable=1;fillColor=#cdeb8b;strokeColor=#36393d;" parent="5efrx6tgmJ7ktwZ-VxUX-1" vertex="1">
          <mxGeometry x="710" y="90" width="40" height="40" as="geometry" />
        </mxCell>
        <mxCell id="5efrx6tgmJ7ktwZ-VxUX-29" value="\( S_1 V_3 \)" style="whiteSpace=wrap;html=1;aspect=fixed;movable=1;resizable=1;rotatable=1;deletable=1;editable=1;locked=0;connectable=1;fillColor=#cce5ff;strokeColor=#36393d;" parent="5efrx6tgmJ7ktwZ-VxUX-1" vertex="1">
          <mxGeometry x="750" y="90" width="40" height="40" as="geometry" />
        </mxCell>
        <mxCell id="5efrx6tgmJ7ktwZ-VxUX-30" value="\( S_1 V_0 \)" style="rounded=0;whiteSpace=wrap;html=1;fillColor=#cce5ff;strokeColor=#36393d;movable=1;resizable=1;rotatable=1;deletable=1;editable=1;locked=0;connectable=1;" parent="5efrx6tgmJ7ktwZ-VxUX-1" vertex="1">
          <mxGeometry x="630" y="90" width="40" height="40" as="geometry" />
        </mxCell>
        <mxCell id="5efrx6tgmJ7ktwZ-VxUX-31" value="\( S_2 V_1 \)" style="rounded=0;whiteSpace=wrap;html=1;fillColor=#cdeb8b;strokeColor=#36393d;movable=1;resizable=1;rotatable=1;deletable=1;editable=1;locked=0;connectable=1;" parent="5efrx6tgmJ7ktwZ-VxUX-1" vertex="1">
          <mxGeometry x="670" y="360" width="40" height="40" as="geometry" />
        </mxCell>
        <mxCell id="5efrx6tgmJ7ktwZ-VxUX-32" value="\( S_2 V_0 \)" style="whiteSpace=wrap;html=1;aspect=fixed;movable=1;resizable=1;rotatable=1;deletable=1;editable=1;locked=0;connectable=1;fillColor=#cdeb8b;strokeColor=#36393d;" parent="5efrx6tgmJ7ktwZ-VxUX-1" vertex="1">
          <mxGeometry x="630" y="360" width="40" height="40" as="geometry" />
        </mxCell>
        <mxCell id="5efrx6tgmJ7ktwZ-VxUX-33" value="\( V_3 \)" style="whiteSpace=wrap;html=1;aspect=fixed;movable=1;resizable=1;rotatable=1;deletable=1;editable=1;locked=0;connectable=1;fillColor=#ffcccc;strokeColor=#36393d;" parent="5efrx6tgmJ7ktwZ-VxUX-1" vertex="1">
          <mxGeometry x="750" y="360" width="40" height="40" as="geometry" />
        </mxCell>
        <mxCell id="5efrx6tgmJ7ktwZ-VxUX-34" value="\( S_3 V_2 \)" style="rounded=0;whiteSpace=wrap;html=1;fillColor=#ffcccc;strokeColor=#36393d;movable=1;resizable=1;rotatable=1;deletable=1;editable=1;locked=0;connectable=1;" parent="5efrx6tgmJ7ktwZ-VxUX-1" vertex="1">
          <mxGeometry x="480" y="360" width="40" height="40" as="geometry" />
        </mxCell>
        <mxCell id="5efrx6tgmJ7ktwZ-VxUX-35" value="\( V_0 \)" style="whiteSpace=wrap;html=1;aspect=fixed;movable=1;resizable=1;rotatable=1;deletable=1;editable=1;locked=0;connectable=1;fillColor=#ffcc99;strokeColor=#36393d;" parent="5efrx6tgmJ7ktwZ-VxUX-1" vertex="1">
          <mxGeometry x="400" y="360" width="40" height="40" as="geometry" />
        </mxCell>
        <mxCell id="5efrx6tgmJ7ktwZ-VxUX-36" value="\( S_3 V_1 \)" style="whiteSpace=wrap;html=1;aspect=fixed;movable=1;resizable=1;rotatable=1;deletable=1;editable=1;locked=0;connectable=1;fillColor=#ffcccc;strokeColor=#36393d;" parent="5efrx6tgmJ7ktwZ-VxUX-1" vertex="1">
          <mxGeometry x="440" y="360" width="40" height="40" as="geometry" />
        </mxCell>
        <mxCell id="5efrx6tgmJ7ktwZ-VxUX-37" value="" style="endArrow=classic;html=1;rounded=0;fontSize=12;startSize=8;endSize=8;fillColor=#eeeeee;strokeColor=#36393d;exitX=0.5;exitY=1;exitDx=0;exitDy=0;entryX=0.5;entryY=0;entryDx=0;entryDy=0;edgeStyle=orthogonalEdgeStyle;movable=1;resizable=1;rotatable=1;deletable=1;editable=1;locked=0;connectable=1;" parent="5efrx6tgmJ7ktwZ-VxUX-1" source="5efrx6tgmJ7ktwZ-VxUX-17" target="5efrx6tgmJ7ktwZ-VxUX-28" edge="1">
          <mxGeometry width="50" height="50" relative="1" as="geometry">
            <mxPoint x="480" y="210" as="sourcePoint" />
            <mxPoint x="650" y="340" as="targetPoint" />
            <Array as="points">
              <mxPoint x="540" y="240" />
              <mxPoint x="590" y="240" />
              <mxPoint x="590" y="60" />
              <mxPoint x="730" y="60" />
            </Array>
          </mxGeometry>
        </mxCell>
        <mxCell id="5efrx6tgmJ7ktwZ-VxUX-38" value="" style="endArrow=classic;html=1;rounded=0;fontSize=12;startSize=8;endSize=8;fillColor=#eeeeee;strokeColor=#36393d;exitX=0.5;exitY=0;exitDx=0;exitDy=0;entryX=0.5;entryY=1;entryDx=0;entryDy=0;edgeStyle=orthogonalEdgeStyle;movable=1;resizable=1;rotatable=1;deletable=1;editable=1;locked=0;connectable=1;" parent="5efrx6tgmJ7ktwZ-VxUX-1" source="5efrx6tgmJ7ktwZ-VxUX-7" target="5efrx6tgmJ7ktwZ-VxUX-29" edge="1">
          <mxGeometry width="50" height="50" relative="1" as="geometry">
            <mxPoint x="470" y="400" as="sourcePoint" />
            <mxPoint x="520" y="350" as="targetPoint" />
          </mxGeometry>
        </mxCell>
        <mxCell id="5efrx6tgmJ7ktwZ-VxUX-39" value="" style="endArrow=classic;html=1;rounded=0;fontSize=12;startSize=8;endSize=8;fillColor=#eeeeee;strokeColor=#36393d;exitX=0.5;exitY=1;exitDx=0;exitDy=0;entryX=0.5;entryY=0;entryDx=0;entryDy=0;edgeStyle=orthogonalEdgeStyle;movable=1;resizable=1;rotatable=1;deletable=1;editable=1;locked=0;connectable=1;" parent="5efrx6tgmJ7ktwZ-VxUX-1" source="5efrx6tgmJ7ktwZ-VxUX-9" target="5efrx6tgmJ7ktwZ-VxUX-32" edge="1">
          <mxGeometry width="50" height="50" relative="1" as="geometry">
            <mxPoint x="700" y="230" as="sourcePoint" />
            <mxPoint x="640" y="190" as="targetPoint" />
          </mxGeometry>
        </mxCell>
        <mxCell id="5efrx6tgmJ7ktwZ-VxUX-40" value="" style="endArrow=classic;html=1;rounded=0;fontSize=12;startSize=8;endSize=8;fillColor=#eeeeee;strokeColor=#36393d;exitX=0.5;exitY=0;exitDx=0;exitDy=0;edgeStyle=orthogonalEdgeStyle;entryX=0.5;entryY=1;entryDx=0;entryDy=0;movable=1;resizable=1;rotatable=1;deletable=1;editable=1;locked=0;connectable=1;" parent="5efrx6tgmJ7ktwZ-VxUX-1" source="5efrx6tgmJ7ktwZ-VxUX-20" target="5efrx6tgmJ7ktwZ-VxUX-35" edge="1">
          <mxGeometry width="50" height="50" relative="1" as="geometry">
            <mxPoint x="710" y="280" as="sourcePoint" />
            <mxPoint x="570" y="340" as="targetPoint" />
            <Array as="points">
              <mxPoint x="770" y="250" />
              <mxPoint x="600" y="250" />
              <mxPoint x="600" y="430" />
              <mxPoint x="420" y="430" />
            </Array>
          </mxGeometry>
        </mxCell>
        <mxCell id="5efrx6tgmJ7ktwZ-VxUX-41" value="" style="endArrow=classic;html=1;rounded=0;fontSize=12;startSize=8;endSize=8;fillColor=#eeeeee;strokeColor=#36393d;exitX=0.5;exitY=1;exitDx=0;exitDy=0;entryX=0.5;entryY=0;entryDx=0;entryDy=0;edgeStyle=orthogonalEdgeStyle;movable=1;resizable=1;rotatable=1;deletable=1;editable=1;locked=0;connectable=1;" parent="5efrx6tgmJ7ktwZ-VxUX-1" source="5efrx6tgmJ7ktwZ-VxUX-8" target="5efrx6tgmJ7ktwZ-VxUX-36" edge="1">
          <mxGeometry width="50" height="50" relative="1" as="geometry">
            <mxPoint x="569.97" y="310" as="sourcePoint" />
            <mxPoint x="649.97" y="350" as="targetPoint" />
          </mxGeometry>
        </mxCell>
        <mxCell id="5efrx6tgmJ7ktwZ-VxUX-42" value="" style="endArrow=classic;html=1;rounded=0;fontSize=12;startSize=8;endSize=8;fillColor=#eeeeee;strokeColor=#36393d;exitX=0.5;exitY=0;exitDx=0;exitDy=0;entryX=0.5;entryY=0;entryDx=0;entryDy=0;edgeStyle=orthogonalEdgeStyle;movable=1;resizable=1;rotatable=1;deletable=1;editable=1;locked=0;connectable=1;" parent="5efrx6tgmJ7ktwZ-VxUX-1" source="5efrx6tgmJ7ktwZ-VxUX-18" target="5efrx6tgmJ7ktwZ-VxUX-26" edge="1">
          <mxGeometry width="50" height="50" relative="1" as="geometry">
            <mxPoint x="480" y="280" as="sourcePoint" />
            <mxPoint x="649.97" y="470" as="targetPoint" />
            <Array as="points">
              <mxPoint x="540" y="250" />
              <mxPoint x="370" y="250" />
              <mxPoint x="370" y="60" />
              <mxPoint x="460" y="60" />
            </Array>
          </mxGeometry>
        </mxCell>
        <mxCell id="5efrx6tgmJ7ktwZ-VxUX-43" value="" style="endArrow=classic;html=1;rounded=0;fontSize=12;startSize=8;endSize=8;fillColor=#eeeeee;strokeColor=#36393d;exitX=0.5;exitY=1;exitDx=0;exitDy=0;entryX=0.5;entryY=1;entryDx=0;entryDy=0;edgeStyle=orthogonalEdgeStyle;movable=1;resizable=1;rotatable=1;deletable=1;editable=1;locked=0;connectable=1;" parent="5efrx6tgmJ7ktwZ-VxUX-1" source="5efrx6tgmJ7ktwZ-VxUX-19" target="5efrx6tgmJ7ktwZ-VxUX-33" edge="1">
          <mxGeometry width="50" height="50" relative="1" as="geometry">
            <mxPoint x="959.97" y="260" as="sourcePoint" />
            <mxPoint x="1019.97" y="70" as="targetPoint" />
            <Array as="points">
              <mxPoint x="770" y="240" />
              <mxPoint x="820" y="240" />
              <mxPoint x="820" y="430" />
              <mxPoint x="770" y="430" />
            </Array>
          </mxGeometry>
        </mxCell>
        <mxCell id="5efrx6tgmJ7ktwZ-VxUX-44" value="" style="endArrow=classic;html=1;rounded=0;fontSize=12;startSize=8;endSize=8;fillColor=#eeeeee;strokeColor=#36393d;exitX=0.5;exitY=0;exitDx=0;exitDy=0;entryX=0.5;entryY=1;entryDx=0;entryDy=0;edgeStyle=orthogonalEdgeStyle;movable=1;resizable=1;rotatable=1;deletable=1;editable=1;locked=0;connectable=1;" parent="5efrx6tgmJ7ktwZ-VxUX-1" source="5efrx6tgmJ7ktwZ-VxUX-17" target="5efrx6tgmJ7ktwZ-VxUX-27" edge="1">
          <mxGeometry width="50" height="50" relative="1" as="geometry">
            <mxPoint x="470" y="400" as="sourcePoint" />
            <mxPoint x="520" y="350" as="targetPoint" />
          </mxGeometry>
        </mxCell>
        <mxCell id="5efrx6tgmJ7ktwZ-VxUX-45" value="" style="endArrow=classic;html=1;rounded=0;fontSize=12;startSize=8;endSize=8;fillColor=#eeeeee;strokeColor=#36393d;exitX=0.5;exitY=0;exitDx=0;exitDy=0;entryX=0.5;entryY=1;entryDx=0;entryDy=0;edgeStyle=orthogonalEdgeStyle;movable=1;resizable=1;rotatable=1;deletable=1;editable=1;locked=0;connectable=1;" parent="5efrx6tgmJ7ktwZ-VxUX-1" source="5efrx6tgmJ7ktwZ-VxUX-19" target="5efrx6tgmJ7ktwZ-VxUX-29" edge="1">
          <mxGeometry width="50" height="50" relative="1" as="geometry">
            <mxPoint x="470" y="400" as="sourcePoint" />
            <mxPoint x="520" y="350" as="targetPoint" />
          </mxGeometry>
        </mxCell>
        <mxCell id="5efrx6tgmJ7ktwZ-VxUX-46" value="" style="endArrow=classic;html=1;rounded=0;fontSize=12;startSize=8;endSize=8;fillColor=#eeeeee;strokeColor=#36393d;exitX=0.5;exitY=1;exitDx=0;exitDy=0;entryX=0.5;entryY=0;entryDx=0;entryDy=0;edgeStyle=orthogonalEdgeStyle;movable=1;resizable=1;rotatable=1;deletable=1;editable=1;locked=0;connectable=1;" parent="5efrx6tgmJ7ktwZ-VxUX-1" source="5efrx6tgmJ7ktwZ-VxUX-20" target="5efrx6tgmJ7ktwZ-VxUX-32" edge="1">
          <mxGeometry width="50" height="50" relative="1" as="geometry">
            <mxPoint x="700" y="230" as="sourcePoint" />
            <mxPoint x="640" y="190" as="targetPoint" />
          </mxGeometry>
        </mxCell>
        <mxCell id="5efrx6tgmJ7ktwZ-VxUX-47" value="" style="endArrow=classic;html=1;rounded=0;fontSize=12;startSize=8;endSize=8;fillColor=#eeeeee;strokeColor=#36393d;exitX=0.5;exitY=1;exitDx=0;exitDy=0;entryX=0.5;entryY=0;entryDx=0;entryDy=0;edgeStyle=orthogonalEdgeStyle;movable=1;resizable=1;rotatable=1;deletable=1;editable=1;locked=0;connectable=1;" parent="5efrx6tgmJ7ktwZ-VxUX-1" source="5efrx6tgmJ7ktwZ-VxUX-18" target="5efrx6tgmJ7ktwZ-VxUX-36" edge="1">
          <mxGeometry width="50" height="50" relative="1" as="geometry">
            <mxPoint x="569.97" y="310" as="sourcePoint" />
            <mxPoint x="649.97" y="350" as="targetPoint" />
          </mxGeometry>
        </mxCell>
        <mxCell id="5efrx6tgmJ7ktwZ-VxUX-48" value="" style="endArrow=classic;html=1;rounded=0;fontSize=12;startSize=8;endSize=8;fillColor=#eeeeee;strokeColor=#36393d;exitX=0.5;exitY=0;exitDx=0;exitDy=0;entryX=0.5;entryY=1;entryDx=0;entryDy=0;edgeStyle=orthogonalEdgeStyle;movable=1;resizable=1;rotatable=1;deletable=1;editable=1;locked=0;connectable=1;" parent="5efrx6tgmJ7ktwZ-VxUX-1" source="5efrx6tgmJ7ktwZ-VxUX-6" target="5efrx6tgmJ7ktwZ-VxUX-27" edge="1">
          <mxGeometry width="50" height="50" relative="1" as="geometry">
            <mxPoint x="470" y="400" as="sourcePoint" />
            <mxPoint x="520" y="350" as="targetPoint" />
          </mxGeometry>
        </mxCell>
      </root>
    </mxGraphModel>
  </diagram>
  <diagram name="第 9 页" id="yYIBKFbfAVFEqjfHaYi6">
    <mxGraphModel dx="1042" dy="678" grid="1" gridSize="10" guides="1" tooltips="1" connect="1" arrows="1" fold="1" page="0" pageScale="1" pageWidth="1654" pageHeight="1169" math="1" shadow="0">
      <root>
        <mxCell id="nHLChrfZ5yYXDeFp7Jvn-0" />
        <mxCell id="nHLChrfZ5yYXDeFp7Jvn-1" parent="nHLChrfZ5yYXDeFp7Jvn-0" />
        <mxCell id="KOq0lQ3zMShNe1PpEElD-0" value="" style="rounded=0;whiteSpace=wrap;html=1;strokeColor=none;" vertex="1" parent="nHLChrfZ5yYXDeFp7Jvn-1">
          <mxGeometry x="350" y="40" width="490" height="410" as="geometry" />
        </mxCell>
        <mxCell id="nHLChrfZ5yYXDeFp7Jvn-2" value="" style="rounded=1;whiteSpace=wrap;html=1;fillColor=#eeeeee;strokeColor=#36393d;movable=1;resizable=1;rotatable=1;deletable=1;editable=1;locked=0;connectable=1;" parent="nHLChrfZ5yYXDeFp7Jvn-1" vertex="1">
          <mxGeometry x="380" y="260" width="200" height="160" as="geometry" />
        </mxCell>
        <mxCell id="nHLChrfZ5yYXDeFp7Jvn-3" value="" style="rounded=1;whiteSpace=wrap;html=1;fillColor=#eeeeee;strokeColor=#36393d;movable=1;resizable=1;rotatable=1;deletable=1;editable=1;locked=0;connectable=1;" parent="nHLChrfZ5yYXDeFp7Jvn-1" vertex="1">
          <mxGeometry x="610" y="260" width="200" height="160" as="geometry" />
        </mxCell>
        <mxCell id="nHLChrfZ5yYXDeFp7Jvn-4" value="" style="rounded=1;whiteSpace=wrap;html=1;fillColor=#eeeeee;strokeColor=#36393d;movable=1;resizable=1;rotatable=1;deletable=1;editable=1;locked=0;connectable=1;" parent="nHLChrfZ5yYXDeFp7Jvn-1" vertex="1">
          <mxGeometry x="610" y="70" width="200" height="160" as="geometry" />
        </mxCell>
        <mxCell id="nHLChrfZ5yYXDeFp7Jvn-5" value="" style="rounded=1;whiteSpace=wrap;html=1;fillColor=#eeeeee;strokeColor=#36393d;movable=1;resizable=1;rotatable=1;deletable=1;editable=1;locked=0;connectable=1;" parent="nHLChrfZ5yYXDeFp7Jvn-1" vertex="1">
          <mxGeometry x="380" y="70" width="200" height="160" as="geometry" />
        </mxCell>
        <mxCell id="nHLChrfZ5yYXDeFp7Jvn-6" value="\( S_0 \)" style="rounded=0;whiteSpace=wrap;html=1;fillColor=#ffcc99;strokeColor=#36393d;movable=1;resizable=1;rotatable=1;deletable=1;editable=1;locked=0;connectable=1;" parent="nHLChrfZ5yYXDeFp7Jvn-1" vertex="1">
          <mxGeometry x="400" y="170" width="40" height="40" as="geometry" />
        </mxCell>
        <mxCell id="nHLChrfZ5yYXDeFp7Jvn-7" value="\( S_1 \)" style="rounded=0;whiteSpace=wrap;html=1;fillColor=#cce5ff;strokeColor=#36393d;movable=1;resizable=1;rotatable=1;deletable=1;editable=1;locked=0;connectable=1;" parent="nHLChrfZ5yYXDeFp7Jvn-1" vertex="1">
          <mxGeometry x="630" y="170" width="40" height="40" as="geometry" />
        </mxCell>
        <mxCell id="nHLChrfZ5yYXDeFp7Jvn-8" value="\( S_3 \)" style="rounded=0;whiteSpace=wrap;html=1;fillColor=#ffcccc;strokeColor=#36393d;movable=1;resizable=1;rotatable=1;deletable=1;editable=1;locked=0;connectable=1;" parent="nHLChrfZ5yYXDeFp7Jvn-1" vertex="1">
          <mxGeometry x="400" y="280" width="40" height="40" as="geometry" />
        </mxCell>
        <mxCell id="nHLChrfZ5yYXDeFp7Jvn-9" value="\( S_2 \)" style="rounded=0;whiteSpace=wrap;html=1;fillColor=#cdeb8b;strokeColor=#36393d;movable=1;resizable=1;rotatable=1;deletable=1;editable=1;locked=0;connectable=1;" parent="nHLChrfZ5yYXDeFp7Jvn-1" vertex="1">
          <mxGeometry x="630" y="280" width="40" height="40" as="geometry" />
        </mxCell>
        <mxCell id="nHLChrfZ5yYXDeFp7Jvn-17" value="\( V_1 \)" style="rounded=0;whiteSpace=wrap;html=1;fillColor=#cce5ff;strokeColor=#36393d;movable=1;resizable=1;rotatable=1;deletable=1;editable=1;locked=0;connectable=1;" parent="nHLChrfZ5yYXDeFp7Jvn-1" vertex="1">
          <mxGeometry x="520" y="170" width="40" height="40" as="geometry" />
        </mxCell>
        <mxCell id="nHLChrfZ5yYXDeFp7Jvn-18" value="\( V_0 \)" style="rounded=0;whiteSpace=wrap;html=1;fillColor=#ffcc99;strokeColor=#36393d;movable=1;resizable=1;rotatable=1;deletable=1;editable=1;locked=0;connectable=1;" parent="nHLChrfZ5yYXDeFp7Jvn-1" vertex="1">
          <mxGeometry x="520" y="280" width="40" height="40" as="geometry" />
        </mxCell>
        <mxCell id="nHLChrfZ5yYXDeFp7Jvn-19" value="\( V_2 \)" style="rounded=0;whiteSpace=wrap;html=1;fillColor=#cdeb8b;strokeColor=#36393d;movable=1;resizable=1;rotatable=1;deletable=1;editable=1;locked=0;connectable=1;" parent="nHLChrfZ5yYXDeFp7Jvn-1" vertex="1">
          <mxGeometry x="750" y="170" width="40" height="40" as="geometry" />
        </mxCell>
        <mxCell id="nHLChrfZ5yYXDeFp7Jvn-20" value="\( V_3 \)" style="rounded=0;whiteSpace=wrap;html=1;fillColor=#ffcccc;strokeColor=#36393d;movable=1;resizable=1;rotatable=1;deletable=1;editable=1;locked=0;connectable=1;" parent="nHLChrfZ5yYXDeFp7Jvn-1" vertex="1">
          <mxGeometry x="750" y="280" width="40" height="40" as="geometry" />
        </mxCell>
        <mxCell id="nHLChrfZ5yYXDeFp7Jvn-21" value="\( S_0 V_0 \)" style="whiteSpace=wrap;html=1;aspect=fixed;fillColor=#ffcc99;strokeColor=#36393d;movable=1;resizable=1;rotatable=1;deletable=1;editable=1;locked=0;connectable=1;" parent="nHLChrfZ5yYXDeFp7Jvn-1" vertex="1">
          <mxGeometry x="400" y="90" width="40" height="40" as="geometry" />
        </mxCell>
        <mxCell id="nHLChrfZ5yYXDeFp7Jvn-22" value="\( S_1 V_1 \)" style="whiteSpace=wrap;html=1;aspect=fixed;fillColor=#cce5ff;strokeColor=#36393d;movable=1;resizable=1;rotatable=1;deletable=1;editable=1;locked=0;connectable=1;" parent="nHLChrfZ5yYXDeFp7Jvn-1" vertex="1">
          <mxGeometry x="670" y="90" width="40" height="40" as="geometry" />
        </mxCell>
        <mxCell id="nHLChrfZ5yYXDeFp7Jvn-23" value="\( S_2 V_2 \)" style="whiteSpace=wrap;html=1;aspect=fixed;fillColor=#cdeb8b;strokeColor=#36393d;movable=1;resizable=1;rotatable=1;deletable=1;editable=1;locked=0;connectable=1;" parent="nHLChrfZ5yYXDeFp7Jvn-1" vertex="1">
          <mxGeometry x="710" y="360" width="40" height="40" as="geometry" />
        </mxCell>
        <mxCell id="nHLChrfZ5yYXDeFp7Jvn-24" value="\( S_3 V_3 \)" style="whiteSpace=wrap;html=1;aspect=fixed;fillColor=#ffcccc;strokeColor=#36393d;movable=1;resizable=1;rotatable=1;deletable=1;editable=1;locked=0;connectable=1;" parent="nHLChrfZ5yYXDeFp7Jvn-1" vertex="1">
          <mxGeometry x="520" y="360" width="40" height="40" as="geometry" />
        </mxCell>
        <mxCell id="nHLChrfZ5yYXDeFp7Jvn-25" value="\( S_0 V_3 \)" style="whiteSpace=wrap;html=1;aspect=fixed;fillColor=#ffcc99;strokeColor=#36393d;movable=1;resizable=1;rotatable=1;deletable=1;editable=1;locked=0;connectable=1;" parent="nHLChrfZ5yYXDeFp7Jvn-1" vertex="1">
          <mxGeometry x="520" y="90" width="40" height="40" as="geometry" />
        </mxCell>
        <mxCell id="nHLChrfZ5yYXDeFp7Jvn-26" value="\( S_0 V_1 \)" style="whiteSpace=wrap;html=1;aspect=fixed;movable=1;resizable=1;rotatable=1;deletable=1;editable=1;locked=0;connectable=1;fillColor=#ffcc99;strokeColor=#36393d;" parent="nHLChrfZ5yYXDeFp7Jvn-1" vertex="1">
          <mxGeometry x="440" y="90" width="40" height="40" as="geometry" />
        </mxCell>
        <mxCell id="nHLChrfZ5yYXDeFp7Jvn-27" value="\( S_0 V_2 \)" style="whiteSpace=wrap;html=1;aspect=fixed;movable=1;resizable=1;rotatable=1;deletable=1;editable=1;locked=0;connectable=1;fillColor=#ffcc99;strokeColor=#36393d;" parent="nHLChrfZ5yYXDeFp7Jvn-1" vertex="1">
          <mxGeometry x="480" y="90" width="40" height="40" as="geometry" />
        </mxCell>
        <mxCell id="nHLChrfZ5yYXDeFp7Jvn-28" value="\( S_1 V_2 \)" style="whiteSpace=wrap;html=1;aspect=fixed;movable=1;resizable=1;rotatable=1;deletable=1;editable=1;locked=0;connectable=1;fillColor=#cce5ff;strokeColor=#36393d;" parent="nHLChrfZ5yYXDeFp7Jvn-1" vertex="1">
          <mxGeometry x="710" y="90" width="40" height="40" as="geometry" />
        </mxCell>
        <mxCell id="nHLChrfZ5yYXDeFp7Jvn-29" value="\( S_1 V_3 \)" style="whiteSpace=wrap;html=1;aspect=fixed;movable=1;resizable=1;rotatable=1;deletable=1;editable=1;locked=0;connectable=1;fillColor=#cce5ff;strokeColor=#36393d;" parent="nHLChrfZ5yYXDeFp7Jvn-1" vertex="1">
          <mxGeometry x="750" y="90" width="40" height="40" as="geometry" />
        </mxCell>
        <mxCell id="nHLChrfZ5yYXDeFp7Jvn-30" value="\( S_1 V_0 \)" style="rounded=0;whiteSpace=wrap;html=1;fillColor=#cce5ff;strokeColor=#36393d;movable=1;resizable=1;rotatable=1;deletable=1;editable=1;locked=0;connectable=1;" parent="nHLChrfZ5yYXDeFp7Jvn-1" vertex="1">
          <mxGeometry x="630" y="90" width="40" height="40" as="geometry" />
        </mxCell>
        <mxCell id="nHLChrfZ5yYXDeFp7Jvn-31" value="\( S_2 V_1 \)" style="rounded=0;whiteSpace=wrap;html=1;fillColor=#cdeb8b;strokeColor=#36393d;movable=1;resizable=1;rotatable=1;deletable=1;editable=1;locked=0;connectable=1;" parent="nHLChrfZ5yYXDeFp7Jvn-1" vertex="1">
          <mxGeometry x="670" y="360" width="40" height="40" as="geometry" />
        </mxCell>
        <mxCell id="nHLChrfZ5yYXDeFp7Jvn-32" value="\( S_2 V_0 \)" style="whiteSpace=wrap;html=1;aspect=fixed;movable=1;resizable=1;rotatable=1;deletable=1;editable=1;locked=0;connectable=1;fillColor=#cdeb8b;strokeColor=#36393d;" parent="nHLChrfZ5yYXDeFp7Jvn-1" vertex="1">
          <mxGeometry x="630" y="360" width="40" height="40" as="geometry" />
        </mxCell>
        <mxCell id="nHLChrfZ5yYXDeFp7Jvn-33" value="\( S_2 V_3 \)" style="whiteSpace=wrap;html=1;aspect=fixed;movable=1;resizable=1;rotatable=1;deletable=1;editable=1;locked=0;connectable=1;fillColor=#cdeb8b;strokeColor=#36393d;" parent="nHLChrfZ5yYXDeFp7Jvn-1" vertex="1">
          <mxGeometry x="750" y="360" width="40" height="40" as="geometry" />
        </mxCell>
        <mxCell id="nHLChrfZ5yYXDeFp7Jvn-34" value="\( S_3 V_2 \)" style="rounded=0;whiteSpace=wrap;html=1;fillColor=#ffcccc;strokeColor=#36393d;movable=1;resizable=1;rotatable=1;deletable=1;editable=1;locked=0;connectable=1;" parent="nHLChrfZ5yYXDeFp7Jvn-1" vertex="1">
          <mxGeometry x="480" y="360" width="40" height="40" as="geometry" />
        </mxCell>
        <mxCell id="nHLChrfZ5yYXDeFp7Jvn-35" value="\( S_3 V_0 \)" style="whiteSpace=wrap;html=1;aspect=fixed;movable=1;resizable=1;rotatable=1;deletable=1;editable=1;locked=0;connectable=1;fillColor=#ffcccc;strokeColor=#36393d;" parent="nHLChrfZ5yYXDeFp7Jvn-1" vertex="1">
          <mxGeometry x="400" y="360" width="40" height="40" as="geometry" />
        </mxCell>
        <mxCell id="nHLChrfZ5yYXDeFp7Jvn-36" value="\( S_3 V_1 \)" style="whiteSpace=wrap;html=1;aspect=fixed;movable=1;resizable=1;rotatable=1;deletable=1;editable=1;locked=0;connectable=1;fillColor=#ffcccc;strokeColor=#36393d;" parent="nHLChrfZ5yYXDeFp7Jvn-1" vertex="1">
          <mxGeometry x="440" y="360" width="40" height="40" as="geometry" />
        </mxCell>
        <mxCell id="nHLChrfZ5yYXDeFp7Jvn-38" value="" style="endArrow=classic;html=1;rounded=0;fontSize=12;startSize=8;endSize=8;fillColor=#eeeeee;strokeColor=#36393d;exitX=0.5;exitY=0;exitDx=0;exitDy=0;entryX=0.5;entryY=1;entryDx=0;entryDy=0;edgeStyle=orthogonalEdgeStyle;movable=1;resizable=1;rotatable=1;deletable=1;editable=1;locked=0;connectable=1;" parent="nHLChrfZ5yYXDeFp7Jvn-1" source="nHLChrfZ5yYXDeFp7Jvn-7" target="nHLChrfZ5yYXDeFp7Jvn-28" edge="1">
          <mxGeometry width="50" height="50" relative="1" as="geometry">
            <mxPoint x="470" y="400" as="sourcePoint" />
            <mxPoint x="520" y="350" as="targetPoint" />
          </mxGeometry>
        </mxCell>
        <mxCell id="nHLChrfZ5yYXDeFp7Jvn-39" value="" style="endArrow=classic;html=1;rounded=0;fontSize=12;startSize=8;endSize=8;fillColor=#eeeeee;strokeColor=#36393d;exitX=0.5;exitY=1;exitDx=0;exitDy=0;entryX=0.5;entryY=0;entryDx=0;entryDy=0;edgeStyle=orthogonalEdgeStyle;movable=1;resizable=1;rotatable=1;deletable=1;editable=1;locked=0;connectable=1;" parent="nHLChrfZ5yYXDeFp7Jvn-1" source="nHLChrfZ5yYXDeFp7Jvn-9" target="nHLChrfZ5yYXDeFp7Jvn-33" edge="1">
          <mxGeometry width="50" height="50" relative="1" as="geometry">
            <mxPoint x="700" y="230" as="sourcePoint" />
            <mxPoint x="640" y="190" as="targetPoint" />
          </mxGeometry>
        </mxCell>
        <mxCell id="nHLChrfZ5yYXDeFp7Jvn-41" value="" style="endArrow=classic;html=1;rounded=0;fontSize=12;startSize=8;endSize=8;fillColor=#eeeeee;strokeColor=#36393d;exitX=0.5;exitY=1;exitDx=0;exitDy=0;entryX=0.5;entryY=0;entryDx=0;entryDy=0;edgeStyle=orthogonalEdgeStyle;movable=1;resizable=1;rotatable=1;deletable=1;editable=1;locked=0;connectable=1;" parent="nHLChrfZ5yYXDeFp7Jvn-1" source="nHLChrfZ5yYXDeFp7Jvn-8" target="nHLChrfZ5yYXDeFp7Jvn-35" edge="1">
          <mxGeometry width="50" height="50" relative="1" as="geometry">
            <mxPoint x="569.97" y="310" as="sourcePoint" />
            <mxPoint x="649.97" y="350" as="targetPoint" />
          </mxGeometry>
        </mxCell>
        <mxCell id="nHLChrfZ5yYXDeFp7Jvn-44" value="" style="endArrow=classic;html=1;rounded=0;fontSize=12;startSize=8;endSize=8;fillColor=#eeeeee;strokeColor=#36393d;exitX=0.5;exitY=0;exitDx=0;exitDy=0;entryX=0.5;entryY=1;entryDx=0;entryDy=0;edgeStyle=orthogonalEdgeStyle;movable=1;resizable=1;rotatable=1;deletable=1;editable=1;locked=0;connectable=1;" parent="nHLChrfZ5yYXDeFp7Jvn-1" source="nHLChrfZ5yYXDeFp7Jvn-17" target="nHLChrfZ5yYXDeFp7Jvn-26" edge="1">
          <mxGeometry width="50" height="50" relative="1" as="geometry">
            <mxPoint x="470" y="400" as="sourcePoint" />
            <mxPoint x="520" y="350" as="targetPoint" />
          </mxGeometry>
        </mxCell>
        <mxCell id="nHLChrfZ5yYXDeFp7Jvn-45" value="" style="endArrow=classic;html=1;rounded=0;fontSize=12;startSize=8;endSize=8;fillColor=#eeeeee;strokeColor=#36393d;exitX=0.5;exitY=0;exitDx=0;exitDy=0;entryX=0.5;entryY=1;entryDx=0;entryDy=0;edgeStyle=orthogonalEdgeStyle;movable=1;resizable=1;rotatable=1;deletable=1;editable=1;locked=0;connectable=1;" parent="nHLChrfZ5yYXDeFp7Jvn-1" source="nHLChrfZ5yYXDeFp7Jvn-19" target="nHLChrfZ5yYXDeFp7Jvn-28" edge="1">
          <mxGeometry width="50" height="50" relative="1" as="geometry">
            <mxPoint x="470" y="400" as="sourcePoint" />
            <mxPoint x="520" y="350" as="targetPoint" />
          </mxGeometry>
        </mxCell>
        <mxCell id="nHLChrfZ5yYXDeFp7Jvn-46" value="" style="endArrow=classic;html=1;rounded=0;fontSize=12;startSize=8;endSize=8;fillColor=#eeeeee;strokeColor=#36393d;exitX=0.5;exitY=1;exitDx=0;exitDy=0;entryX=0.5;entryY=0;entryDx=0;entryDy=0;edgeStyle=orthogonalEdgeStyle;movable=1;resizable=1;rotatable=1;deletable=1;editable=1;locked=0;connectable=1;" parent="nHLChrfZ5yYXDeFp7Jvn-1" source="nHLChrfZ5yYXDeFp7Jvn-20" target="nHLChrfZ5yYXDeFp7Jvn-33" edge="1">
          <mxGeometry width="50" height="50" relative="1" as="geometry">
            <mxPoint x="700" y="230" as="sourcePoint" />
            <mxPoint x="640" y="190" as="targetPoint" />
          </mxGeometry>
        </mxCell>
        <mxCell id="nHLChrfZ5yYXDeFp7Jvn-47" value="" style="endArrow=classic;html=1;rounded=0;fontSize=12;startSize=8;endSize=8;fillColor=#eeeeee;strokeColor=#36393d;exitX=0.5;exitY=1;exitDx=0;exitDy=0;entryX=0.5;entryY=0;entryDx=0;entryDy=0;edgeStyle=orthogonalEdgeStyle;movable=1;resizable=1;rotatable=1;deletable=1;editable=1;locked=0;connectable=1;" parent="nHLChrfZ5yYXDeFp7Jvn-1" source="nHLChrfZ5yYXDeFp7Jvn-18" target="nHLChrfZ5yYXDeFp7Jvn-35" edge="1">
          <mxGeometry width="50" height="50" relative="1" as="geometry">
            <mxPoint x="569.97" y="310" as="sourcePoint" />
            <mxPoint x="649.97" y="350" as="targetPoint" />
          </mxGeometry>
        </mxCell>
        <mxCell id="nHLChrfZ5yYXDeFp7Jvn-48" value="" style="endArrow=classic;html=1;rounded=0;fontSize=12;startSize=8;endSize=8;fillColor=#eeeeee;strokeColor=#36393d;exitX=0.5;exitY=0;exitDx=0;exitDy=0;entryX=0.5;entryY=1;entryDx=0;entryDy=0;edgeStyle=orthogonalEdgeStyle;movable=1;resizable=1;rotatable=1;deletable=1;editable=1;locked=0;connectable=1;" parent="nHLChrfZ5yYXDeFp7Jvn-1" source="nHLChrfZ5yYXDeFp7Jvn-6" target="nHLChrfZ5yYXDeFp7Jvn-26" edge="1">
          <mxGeometry width="50" height="50" relative="1" as="geometry">
            <mxPoint x="470" y="400" as="sourcePoint" />
            <mxPoint x="520" y="350" as="targetPoint" />
          </mxGeometry>
        </mxCell>
      </root>
    </mxGraphModel>
  </diagram>
  <diagram name="第 10 页" id="KewDxf1d05iA2rIFbr9l">
    <mxGraphModel dx="1042" dy="678" grid="1" gridSize="10" guides="1" tooltips="1" connect="1" arrows="1" fold="1" page="0" pageScale="1" pageWidth="1654" pageHeight="1169" math="1" shadow="0">
      <root>
        <mxCell id="YdMudkMhX91v9ntPmHEd-0" />
        <mxCell id="YdMudkMhX91v9ntPmHEd-1" parent="YdMudkMhX91v9ntPmHEd-0" />
        <mxCell id="W6sg5IyihhKCaT1evM0m-0" value="" style="rounded=0;whiteSpace=wrap;html=1;strokeColor=none;" vertex="1" parent="YdMudkMhX91v9ntPmHEd-1">
          <mxGeometry x="350" y="40" width="490" height="410" as="geometry" />
        </mxCell>
        <mxCell id="YdMudkMhX91v9ntPmHEd-2" value="" style="rounded=1;whiteSpace=wrap;html=1;fillColor=#eeeeee;strokeColor=#36393d;movable=1;resizable=1;rotatable=1;deletable=1;editable=1;locked=0;connectable=1;" parent="YdMudkMhX91v9ntPmHEd-1" vertex="1">
          <mxGeometry x="380" y="260" width="200" height="160" as="geometry" />
        </mxCell>
        <mxCell id="YdMudkMhX91v9ntPmHEd-3" value="" style="rounded=1;whiteSpace=wrap;html=1;fillColor=#eeeeee;strokeColor=#36393d;movable=1;resizable=1;rotatable=1;deletable=1;editable=1;locked=0;connectable=1;" parent="YdMudkMhX91v9ntPmHEd-1" vertex="1">
          <mxGeometry x="610" y="260" width="200" height="160" as="geometry" />
        </mxCell>
        <mxCell id="YdMudkMhX91v9ntPmHEd-4" value="" style="rounded=1;whiteSpace=wrap;html=1;fillColor=#eeeeee;strokeColor=#36393d;movable=1;resizable=1;rotatable=1;deletable=1;editable=1;locked=0;connectable=1;" parent="YdMudkMhX91v9ntPmHEd-1" vertex="1">
          <mxGeometry x="610" y="70" width="200" height="160" as="geometry" />
        </mxCell>
        <mxCell id="YdMudkMhX91v9ntPmHEd-5" value="" style="rounded=1;whiteSpace=wrap;html=1;fillColor=#eeeeee;strokeColor=#36393d;movable=1;resizable=1;rotatable=1;deletable=1;editable=1;locked=0;connectable=1;" parent="YdMudkMhX91v9ntPmHEd-1" vertex="1">
          <mxGeometry x="380" y="70" width="200" height="160" as="geometry" />
        </mxCell>
        <mxCell id="Sw9ppfn7J2PCRMkxAvk_-0" value="\( S_0 V \)" style="rounded=0;whiteSpace=wrap;html=1;fillColor=#ffcc99;strokeColor=#36393d;" parent="YdMudkMhX91v9ntPmHEd-1" vertex="1">
          <mxGeometry x="400" y="90" width="160" height="40" as="geometry" />
        </mxCell>
        <mxCell id="Sw9ppfn7J2PCRMkxAvk_-1" value="\( \operatorname{Attention} (Q_0, K, V) \)" style="rounded=0;whiteSpace=wrap;html=1;fillColor=#ffcc99;strokeColor=#36393d;" parent="YdMudkMhX91v9ntPmHEd-1" vertex="1">
          <mxGeometry x="400" y="170" width="160" height="40" as="geometry" />
        </mxCell>
        <mxCell id="Sw9ppfn7J2PCRMkxAvk_-2" value="" style="endArrow=classic;html=1;rounded=0;fontSize=12;startSize=8;endSize=8;fillColor=#eeeeee;strokeColor=#36393d;exitX=0.5;exitY=1;exitDx=0;exitDy=0;entryX=0.5;entryY=0;entryDx=0;entryDy=0;edgeStyle=orthogonalEdgeStyle;movable=1;resizable=1;rotatable=1;deletable=1;editable=1;locked=0;connectable=1;" parent="YdMudkMhX91v9ntPmHEd-1" source="Sw9ppfn7J2PCRMkxAvk_-0" target="Sw9ppfn7J2PCRMkxAvk_-1" edge="1">
          <mxGeometry width="50" height="50" relative="1" as="geometry">
            <mxPoint x="240" y="180" as="sourcePoint" />
            <mxPoint x="320" y="140" as="targetPoint" />
          </mxGeometry>
        </mxCell>
        <mxCell id="Sw9ppfn7J2PCRMkxAvk_-3" value="\( S_1 V \)" style="rounded=0;whiteSpace=wrap;html=1;fillColor=#cce5ff;strokeColor=#36393d;" parent="YdMudkMhX91v9ntPmHEd-1" vertex="1">
          <mxGeometry x="630" y="90" width="160" height="40" as="geometry" />
        </mxCell>
        <mxCell id="Sw9ppfn7J2PCRMkxAvk_-4" value="" style="endArrow=classic;html=1;rounded=0;fontSize=12;startSize=8;endSize=8;fillColor=#cce5ff;strokeColor=#36393d;exitX=0.5;exitY=1;exitDx=0;exitDy=0;entryX=0.5;entryY=0;entryDx=0;entryDy=0;edgeStyle=orthogonalEdgeStyle;movable=1;resizable=1;rotatable=1;deletable=1;editable=1;locked=0;connectable=1;" parent="YdMudkMhX91v9ntPmHEd-1" source="Sw9ppfn7J2PCRMkxAvk_-3" target="Sw9ppfn7J2PCRMkxAvk_-5" edge="1">
          <mxGeometry width="50" height="50" relative="1" as="geometry">
            <mxPoint x="470" y="180" as="sourcePoint" />
            <mxPoint x="550" y="140" as="targetPoint" />
          </mxGeometry>
        </mxCell>
        <mxCell id="Sw9ppfn7J2PCRMkxAvk_-5" value="\( \operatorname{Attention} (Q_1, K, V) \)" style="rounded=0;whiteSpace=wrap;html=1;fillColor=#cce5ff;strokeColor=#36393d;" parent="YdMudkMhX91v9ntPmHEd-1" vertex="1">
          <mxGeometry x="630" y="170" width="160" height="40" as="geometry" />
        </mxCell>
        <mxCell id="Sw9ppfn7J2PCRMkxAvk_-6" value="\( \operatorname{Attention} (Q_2, K, V) \)" style="rounded=0;whiteSpace=wrap;html=1;fillColor=#cdeb8b;strokeColor=#36393d;" parent="YdMudkMhX91v9ntPmHEd-1" vertex="1">
          <mxGeometry x="630" y="280" width="160" height="40" as="geometry" />
        </mxCell>
        <mxCell id="Sw9ppfn7J2PCRMkxAvk_-7" value="" style="endArrow=classic;html=1;rounded=0;fontSize=12;startSize=8;endSize=8;fillColor=#cce5ff;strokeColor=#36393d;exitX=0.5;exitY=0;exitDx=0;exitDy=0;entryX=0.5;entryY=1;entryDx=0;entryDy=0;edgeStyle=orthogonalEdgeStyle;movable=1;resizable=1;rotatable=1;deletable=1;editable=1;locked=0;connectable=1;" parent="YdMudkMhX91v9ntPmHEd-1" source="Sw9ppfn7J2PCRMkxAvk_-8" target="Sw9ppfn7J2PCRMkxAvk_-6" edge="1">
          <mxGeometry width="50" height="50" relative="1" as="geometry">
            <mxPoint x="670" y="470" as="sourcePoint" />
            <mxPoint x="750" y="430" as="targetPoint" />
          </mxGeometry>
        </mxCell>
        <mxCell id="Sw9ppfn7J2PCRMkxAvk_-8" value="\( S_2 V \)" style="rounded=0;whiteSpace=wrap;html=1;fillColor=#cdeb8b;strokeColor=#36393d;" parent="YdMudkMhX91v9ntPmHEd-1" vertex="1">
          <mxGeometry x="630" y="360" width="160" height="40" as="geometry" />
        </mxCell>
        <mxCell id="Sw9ppfn7J2PCRMkxAvk_-11" value="\( \operatorname{Attention} (Q_3, K, V) \)" style="rounded=0;whiteSpace=wrap;html=1;fillColor=#ffcccc;strokeColor=#36393d;" parent="YdMudkMhX91v9ntPmHEd-1" vertex="1">
          <mxGeometry x="400" y="280" width="160" height="40" as="geometry" />
        </mxCell>
        <mxCell id="Sw9ppfn7J2PCRMkxAvk_-12" value="" style="endArrow=classic;html=1;rounded=0;fontSize=12;startSize=8;endSize=8;fillColor=#ffcccc;strokeColor=#36393d;exitX=0.5;exitY=0;exitDx=0;exitDy=0;entryX=0.5;entryY=1;entryDx=0;entryDy=0;edgeStyle=orthogonalEdgeStyle;movable=1;resizable=1;rotatable=1;deletable=1;editable=1;locked=0;connectable=1;" parent="YdMudkMhX91v9ntPmHEd-1" source="Sw9ppfn7J2PCRMkxAvk_-13" target="Sw9ppfn7J2PCRMkxAvk_-11" edge="1">
          <mxGeometry width="50" height="50" relative="1" as="geometry">
            <mxPoint x="440" y="470" as="sourcePoint" />
            <mxPoint x="520" y="430" as="targetPoint" />
          </mxGeometry>
        </mxCell>
        <mxCell id="Sw9ppfn7J2PCRMkxAvk_-13" value="\( S_3 V \)" style="rounded=0;whiteSpace=wrap;html=1;fillColor=#ffcccc;strokeColor=#36393d;" parent="YdMudkMhX91v9ntPmHEd-1" vertex="1">
          <mxGeometry x="400" y="360" width="160" height="40" as="geometry" />
        </mxCell>
      </root>
    </mxGraphModel>
  </diagram>
</mxfile>
